<?plantuml 1.2026.1?><svg xmlns="http://www.w3.org/2000/svg" xmlns:xlink="http://www.w3.org/1999/xlink" contentStyleType="text/css" data-diagram-type="DESCRIPTION" height="1016px" preserveAspectRatio="none" style="width:2556px;height:1016px;background:#FEFEFE;" version="1.1" viewBox="0 0 2556 1016" width="2556px" zoomAndPan="magnify"><title>Combined Connectivity - System Architecture</title><defs/><g><rect fill="#FEFEFE" height="1016" style="stroke:none;stroke-width:1;" width="2556" x="0" y="0"/><g class="title" data-source-line="5"><text fill="#000000" font-family="Verdana" font-size="22" font-weight="bold" lengthAdjust="spacing" textLength="565.1035" x="991.0232" y="35.4209">Combined Connectivity - System Architecture</text></g><!--cluster User Interface--><g class="cluster" data-qualified-name="User Interface" data-source-line="7" id="ent0002"><path d="M1269.54,57.6094 L1383.1142,57.6094 A3.75,3.75 0 0 1 1385.6142,60.1094 L1392.6142,79.9063 L1676.54,79.9063 A2.5,2.5 0 0 1 1679.04,82.4063 L1679.04,177.6994 A2.5,2.5 0 0 1 1676.54,180.1994 L1269.54,180.1994 A2.5,2.5 0 0 1 1267.04,177.6994 L1267.04,60.1094 A2.5,2.5 0 0 1 1269.54,57.6094" fill="#FFFFFF" style="stroke:#000000;stroke-width:1;"/><line style="stroke:#000000;stroke-width:1;" x1="1267.04" x2="1392.6142" y1="79.9063" y2="79.9063"/><text fill="#000000" font-family="Verdana" font-size="14" font-weight="bold" lengthAdjust="spacing" textLength="112.5742" x="1271.04" y="72.6045">User Interface</text></g><!--cluster connectivity_shared--><g class="cluster" data-qualified-name="connectivity_shared" data-source-line="13" id="ent0006"><path d="M535.54,732.3894 L694.5869,732.3894 A3.75,3.75 0 0 1 697.0869,734.8894 L704.0869,754.6863 L1491.54,754.6863 A2.5,2.5 0 0 1 1494.04,757.1863 L1494.04,868.1794 A2.5,2.5 0 0 1 1491.54,870.6794 L535.54,870.6794 A2.5,2.5 0 0 1 533.04,868.1794 L533.04,734.8894 A2.5,2.5 0 0 1 535.54,732.3894" fill="#FFFFFF" style="stroke:#000000;stroke-width:1;"/><line style="stroke:#000000;stroke-width:1;" x1="533.04" x2="704.0869" y1="754.6863" y2="754.6863"/><text fill="#000000" font-family="Verdana" font-size="14" font-weight="bold" lengthAdjust="spacing" textLength="158.0469" x="537.04" y="747.3845">connectivity_shared</text><text fill="#000000" font-family="Verdana" font-size="14" font-style="italic" lengthAdjust="spacing" textLength="95.6484" x="969.7158" y="769.6814">&#171;Framework&#187;</text></g><!--cluster nilearn_RSB_analysis_pipeline--><g class="cluster" data-qualified-name="nilearn_RSB_analysis_pipeline" data-source-line="22" id="ent0013"><path d="M1532.54,213.1994 L1769.0996,213.1994 A3.75,3.75 0 0 1 1771.5996,215.6994 L1778.5996,235.4963 L2543.54,235.4963 A2.5,2.5 0 0 1 2546.04,237.9963 L2546.04,868.1794 A2.5,2.5 0 0 1 2543.54,870.6794 L1532.54,870.6794 A2.5,2.5 0 0 1 1530.04,868.1794 L1530.04,215.6994 A2.5,2.5 0 0 1 1532.54,213.1994" fill="#FFFFFF" style="stroke:#000000;stroke-width:1;"/><line style="stroke:#000000;stroke-width:1;" x1="1530.04" x2="1778.5996" y1="235.4963" y2="235.4963"/><text fill="#000000" font-family="Verdana" font-size="14" font-weight="bold" lengthAdjust="spacing" textLength="235.5596" x="1534.04" y="228.1945">nilearn_RSB_analysis_pipeline</text><text fill="#000000" font-family="Verdana" font-size="14" font-style="italic" lengthAdjust="spacing" textLength="95.3545" x="1994.3628" y="250.4914">&#171;Application&#187;</text></g><!--cluster mrtrix3_demon_addon--><g class="cluster" data-qualified-name="mrtrix3_demon_addon" data-source-line="33" id="ent0022"><path d="M57.54,382.4994 L233.9638,382.4994 A3.75,3.75 0 0 1 236.4638,384.9994 L243.4638,404.7963 L520.54,404.7963 A2.5,2.5 0 0 1 523.04,407.2963 L523.04,668.2394 A2.5,2.5 0 0 1 520.54,670.7394 L57.54,670.7394 A2.5,2.5 0 0 1 55.04,668.2394 L55.04,384.9994 A2.5,2.5 0 0 1 57.54,382.4994" fill="#FFFFFF" style="stroke:#000000;stroke-width:1;"/><line style="stroke:#000000;stroke-width:1;" x1="55.04" x2="243.4638" y1="404.7963" y2="404.7963"/><text fill="#000000" font-family="Verdana" font-size="14" font-weight="bold" lengthAdjust="spacing" textLength="175.4238" x="59.04" y="397.4945">mrtrix3_demon_addon</text><text fill="#000000" font-family="Verdana" font-size="14" font-style="italic" lengthAdjust="spacing" textLength="95.3545" x="245.3628" y="419.7914">&#171;Application&#187;</text></g><!--cluster External Tools--><g class="cluster" data-qualified-name="External Tools" data-source-line="40" id="ent0027"><path d="M1237.54,903.6794 L1351.2304,903.6794 A3.75,3.75 0 0 1 1353.7304,906.1794 L1360.7304,925.9763 L1811.54,925.9763 A2.5,2.5 0 0 1 1814.04,928.4763 L1814.04,1007.4794 A2.5,2.5 0 0 1 1811.54,1009.9794 L1237.54,1009.9794 A2.5,2.5 0 0 1 1235.04,1007.4794 L1235.04,906.1794 A2.5,2.5 0 0 1 1237.54,903.6794" fill="#FFFFFF" style="stroke:#000000;stroke-width:1;"/><line style="stroke:#000000;stroke-width:1;" x1="1235.04" x2="1360.7304" y1="925.9763" y2="925.9763"/><text fill="#000000" font-family="Verdana" font-size="14" font-weight="bold" lengthAdjust="spacing" textLength="112.6904" x="1239.04" y="918.6745">External Tools</text></g><!--cluster Data Storage--><g class="cluster" data-qualified-name="Data Storage" data-source-line="48" id="ent0033"><path d="M932.54,551.7894 L1037.8838,551.7894 A3.75,3.75 0 0 1 1040.3838,554.2894 L1047.3838,574.0863 L1503.54,574.0863 A2.5,2.5 0 0 1 1506.04,576.5863 L1506.04,680.8894 A2.5,2.5 0 0 1 1503.54,683.3894 L932.54,683.3894 A2.5,2.5 0 0 1 930.04,680.8894 L930.04,554.2894 A2.5,2.5 0 0 1 932.54,551.7894" fill="#FFFFFF" style="stroke:#000000;stroke-width:1;"/><line style="stroke:#000000;stroke-width:1;" x1="930.04" x2="1047.3838" y1="574.0863" y2="574.0863"/><text fill="#000000" font-family="Verdana" font-size="14" font-weight="bold" lengthAdjust="spacing" textLength="104.3438" x="934.04" y="566.7845">Data Storage</text></g><!--entity CLI--><g class="entity" data-qualified-name="User Interface.CLI" data-source-line="8" id="ent0003"><rect fill="#FFFFFF" height="36.2969" rx="2.5" ry="2.5" style="stroke:#000000;stroke-width:1;" width="94.0537" x="1420.01" y="119.7494"/><text fill="#000000" font-family="Verdana" font-size="14" lengthAdjust="spacing" textLength="74.0537" x="1430.01" y="142.7445">CLI Scripts</text></g><!--entity SLURM--><g class="entity" data-qualified-name="User Interface.SLURM" data-source-line="9" id="ent0004"><rect fill="#FFFFFF" height="36.2969" rx="2.5" ry="2.5" style="stroke:#000000;stroke-width:1;" width="102.0654" x="1283.01" y="119.7494"/><text fill="#000000" font-family="Verdana" font-size="14" lengthAdjust="spacing" textLength="82.0654" x="1293.01" y="142.7445">SLURM Jobs</text></g><!--entity CONFIG--><g class="entity" data-qualified-name="User Interface.CONFIG" data-source-line="10" id="ent0005"><rect fill="#FFFFFF" height="52.5938" rx="2.5" ry="2.5" style="stroke:#000000;stroke-width:1;" width="114.9443" x="1548.57" y="111.6094"/><text fill="#000000" font-family="Verdana" font-size="14" lengthAdjust="spacing" textLength="94.9443" x="1558.57" y="134.6045">Configuration</text><text fill="#000000" font-family="Verdana" font-size="14" lengthAdjust="spacing" textLength="48.9316" x="1558.57" y="150.9014">(YAML)</text></g><!--entity GM--><g class="entity" data-qualified-name="connectivity_shared.GM" data-source-line="14" id="ent0007"><rect fill="#FFFFFF" height="36.2969" rx="2.5" ry="2.5" style="stroke:#000000;stroke-width:1;" width="113.7617" x="663.16" y="818.3894"/><text fill="#000000" font-family="Verdana" font-size="14" lengthAdjust="spacing" textLength="93.7617" x="673.16" y="841.3845">GraphMetrics</text></g><!--entity MIO--><g class="entity" data-qualified-name="connectivity_shared.MIO" data-source-line="15" id="ent0008"><rect fill="#FFFFFF" height="36.2969" rx="2.5" ry="2.5" style="stroke:#000000;stroke-width:1;" width="79.2266" x="549.43" y="818.3894"/><text fill="#000000" font-family="Verdana" font-size="14" lengthAdjust="spacing" textLength="59.2266" x="559.43" y="841.3845">MatrixIO</text></g><!--entity FSD--><g class="entity" data-qualified-name="connectivity_shared.FSD" data-source-line="16" id="ent0009"><rect fill="#FFFFFF" height="36.2969" rx="2.5" ry="2.5" style="stroke:#000000;stroke-width:1;" width="154.8525" x="1188.61" y="818.3894"/><text fill="#000000" font-family="Verdana" font-size="14" lengthAdjust="spacing" textLength="134.8525" x="1198.61" y="841.3845">FreeSurferDetector</text></g><!--entity AL--><g class="entity" data-qualified-name="connectivity_shared.AL" data-source-line="17" id="ent0010"><rect fill="#FFFFFF" height="36.2969" rx="2.5" ry="2.5" style="stroke:#000000;stroke-width:1;" width="99.8916" x="1378.09" y="818.3894"/><text fill="#000000" font-family="Verdana" font-size="14" lengthAdjust="spacing" textLength="79.8916" x="1388.09" y="841.3845">AtlasLabels</text></g><!--entity QCV--><g class="entity" data-qualified-name="connectivity_shared.QCV" data-source-line="18" id="ent0011"><rect fill="#FFFFFF" height="36.2969" rx="2.5" ry="2.5" style="stroke:#000000;stroke-width:1;" width="129.5322" x="812.27" y="818.3894"/><text fill="#000000" font-family="Verdana" font-size="14" lengthAdjust="spacing" textLength="109.5322" x="822.27" y="841.3845">QCVisualization</text></g><!--entity HRG--><g class="entity" data-qualified-name="connectivity_shared.HRG" data-source-line="19" id="ent0012"><rect fill="#FFFFFF" height="36.2969" rx="2.5" ry="2.5" style="stroke:#000000;stroke-width:1;" width="177.0898" x="976.49" y="818.3894"/><text fill="#000000" font-family="Verdana" font-size="14" lengthAdjust="spacing" textLength="157.0898" x="986.49" y="841.3845">HTMLReportGenerator</text></g><!--entity STEP1--><g class="entity" data-qualified-name="nilearn_RSB_analysis_pipeline.STEP1" data-source-line="23" id="ent0014"><rect fill="#FFFFFF" height="36.2969" rx="2.5" ry="2.5" style="stroke:#000000;stroke-width:1;" width="194.6445" x="1899.72" y="468.4994"/><text fill="#000000" font-family="Verdana" font-size="14" lengthAdjust="spacing" textLength="174.6445" x="1909.72" y="491.4945">01_validate_and_convert</text></g><!--entity STEP2--><g class="entity" data-qualified-name="nilearn_RSB_analysis_pipeline.STEP2" data-source-line="24" id="ent0015"><rect fill="#FFFFFF" height="36.2969" rx="2.5" ry="2.5" style="stroke:#000000;stroke-width:1;" width="135.6709" x="2129.2" y="468.4994"/><text fill="#000000" font-family="Verdana" font-size="14" lengthAdjust="spacing" textLength="115.6709" x="2139.2" y="491.4945">02_run_fmriprep</text></g><!--entity STEP3--><g class="entity" data-qualified-name="nilearn_RSB_analysis_pipeline.STEP3" data-source-line="25" id="ent0016"><rect fill="#FFFFFF" height="36.2969" rx="2.5" ry="2.5" style="stroke:#000000;stroke-width:1;" width="155.2559" x="2337.41" y="468.4994"/><text fill="#000000" font-family="Verdana" font-size="14" lengthAdjust="spacing" textLength="135.2559" x="2347.41" y="491.4945">03_denoise_signals</text></g><!--entity STEP4--><g class="entity" data-qualified-name="nilearn_RSB_analysis_pipeline.STEP4" data-source-line="26" id="ent0017"><rect fill="#FFFFFF" height="36.2969" rx="2.5" ry="2.5" style="stroke:#000000;stroke-width:1;" width="175.6406" x="1929.22" y="618.4394"/><text fill="#000000" font-family="Verdana" font-size="14" lengthAdjust="spacing" textLength="155.6406" x="1939.22" y="641.4345">04_extract_roi_signals</text></g><!--entity STEP5--><g class="entity" data-qualified-name="nilearn_RSB_analysis_pipeline.STEP5" data-source-line="27" id="ent0018"><rect fill="#FFFFFF" height="36.2969" rx="2.5" ry="2.5" style="stroke:#000000;stroke-width:1;" width="199.2246" x="1546.43" y="818.3894"/><text fill="#000000" font-family="Verdana" font-size="14" lengthAdjust="spacing" textLength="179.2246" x="1556.43" y="841.3845">05_compute_connectivity</text></g><!--entity STEP6--><g class="entity" data-qualified-name="nilearn_RSB_analysis_pipeline.STEP6" data-source-line="28" id="ent0019"><rect fill="#FFFFFF" height="36.2969" rx="2.5" ry="2.5" style="stroke:#000000;stroke-width:1;" width="145.1729" x="1546.45" y="468.4994"/><text fill="#000000" font-family="Verdana" font-size="14" lengthAdjust="spacing" textLength="125.1729" x="1556.45" y="491.4945">06_graph_metrics</text></g><!--entity STEP7--><g class="entity" data-qualified-name="nilearn_RSB_analysis_pipeline.STEP7" data-source-line="29" id="ent0020"><rect fill="#FFFFFF" height="36.2969" rx="2.5" ry="2.5" style="stroke:#000000;stroke-width:1;" width="137.9814" x="1727.05" y="468.4994"/><text fill="#000000" font-family="Verdana" font-size="14" lengthAdjust="spacing" textLength="117.9814" x="1737.05" y="491.4945">07_visualize_rois</text></g><!--entity ORCHESTRATOR--><g class="entity" data-qualified-name="nilearn_RSB_analysis_pipeline.ORCHESTRATOR" data-source-line="30" id="ent0021"><rect fill="#FFFFFF" height="36.2969" rx="2.5" ry="2.5" style="stroke:#000000;stroke-width:1;" width="130.6123" x="1806.73" y="299.1994"/><text fill="#000000" font-family="Verdana" font-size="14" lengthAdjust="spacing" textLength="110.6123" x="1816.73" y="322.1945">submit_pipeline</text></g><!--entity DWI_MAIN--><g class="entity" data-qualified-name="mrtrix3_demon_addon.DWI_MAIN" data-source-line="34" id="ent0023"><rect fill="#FFFFFF" height="36.2969" rx="2.5" ry="2.5" style="stroke:#000000;stroke-width:1;" width="106.0439" x="401.02" y="468.4994"/><text fill="#000000" font-family="Verdana" font-size="14" lengthAdjust="spacing" textLength="86.0439" x="411.02" y="491.4945">run_pipeline</text></g><!--entity ITC--><g class="entity" data-qualified-name="mrtrix3_demon_addon.ITC" data-source-line="35" id="ent0024"><rect fill="#FFFFFF" height="36.2969" rx="2.5" ry="2.5" style="stroke:#000000;stroke-width:1;" width="155.6182" x="71.23" y="618.4394"/><text fill="#000000" font-family="Verdana" font-size="14" lengthAdjust="spacing" textLength="135.6182" x="81.23" y="641.4345">ImageTypeChecker</text></g><!--entity CONN--><g class="entity" data-qualified-name="mrtrix3_demon_addon.CONN" data-source-line="36" id="ent0025"><rect fill="#FFFFFF" height="36.2969" rx="2.5" ry="2.5" style="stroke:#000000;stroke-width:1;" width="108.7031" x="261.69" y="618.4394"/><text fill="#000000" font-family="Verdana" font-size="14" lengthAdjust="spacing" textLength="88.7031" x="271.69" y="641.4345">Connectome</text></g><!--entity SB--><g class="entity" data-qualified-name="mrtrix3_demon_addon.SB" data-source-line="37" id="ent0026"><rect fill="#FFFFFF" height="36.2969" rx="2.5" ry="2.5" style="stroke:#000000;stroke-width:1;" width="101.2861" x="405.4" y="618.4394"/><text fill="#000000" font-family="Verdana" font-size="14" lengthAdjust="spacing" textLength="81.2861" x="415.4" y="641.4345">SlurmBatch</text></g><!--entity FMRIPREP--><g class="entity" data-qualified-name="External Tools.FMRIPREP" data-source-line="41" id="ent0028"><rect fill="#FFFFFF" height="36.2969" rx="2.5" ry="2.5" style="stroke:#000000;stroke-width:1;" width="82.5625" x="1715.76" y="957.6794"/><text fill="#000000" font-family="Verdana" font-size="14" lengthAdjust="spacing" textLength="62.5625" x="1725.76" y="980.6745">fMRIPrep</text></g><!--entity MRTRIX--><g class="entity" data-qualified-name="External Tools.MRTRIX" data-source-line="42" id="ent0029"><rect fill="#FFFFFF" height="36.2969" rx="2.5" ry="2.5" style="stroke:#000000;stroke-width:1;" width="74.1338" x="1250.97" y="957.6794"/><text fill="#000000" font-family="Verdana" font-size="14" lengthAdjust="spacing" textLength="54.1338" x="1260.97" y="980.6745">MRtrix3</text></g><!--entity FS--><g class="entity" data-qualified-name="External Tools.FS" data-source-line="43" id="ent0030"><rect fill="#FFFFFF" height="36.2969" rx="2.5" ry="2.5" style="stroke:#000000;stroke-width:1;" width="93.8486" x="1483.11" y="957.6794"/><text fill="#000000" font-family="Verdana" font-size="14" lengthAdjust="spacing" textLength="73.8486" x="1493.11" y="980.6745">FreeSurfer</text></g><!--entity NILEARN--><g class="entity" data-qualified-name="External Tools.NILEARN" data-source-line="44" id="ent0031"><rect fill="#FFFFFF" height="36.2969" rx="2.5" ry="2.5" style="stroke:#000000;stroke-width:1;" width="68.4736" x="1611.8" y="957.6794"/><text fill="#000000" font-family="Verdana" font-size="14" lengthAdjust="spacing" textLength="48.4736" x="1621.8" y="980.6745">nilearn</text></g><!--entity NX--><g class="entity" data-qualified-name="External Tools.NX" data-source-line="45" id="ent0032"><rect fill="#FFFFFF" height="36.2969" rx="2.5" ry="2.5" style="stroke:#000000;stroke-width:1;" width="88.0449" x="1360.02" y="957.6794"/><text fill="#000000" font-family="Verdana" font-size="14" lengthAdjust="spacing" textLength="68.0449" x="1370.02" y="980.6745">NetworkX</text></g><!--entity RAW--><g class="entity" data-qualified-name="Data Storage.RAW" data-source-line="49" id="ent0034"><path d="M1127.04,623.9394 C1127.04,613.9394 1178.0351,613.9394 1178.0351,613.9394 C1178.0351,613.9394 1229.0302,613.9394 1229.0302,623.9394 L1229.0302,649.2363 C1229.0302,659.2363 1178.0351,659.2363 1178.0351,659.2363 C1178.0351,659.2363 1127.04,659.2363 1127.04,649.2363 L1127.04,623.9394" fill="#FFFFFF" style="stroke:#000000;stroke-width:1;"/><path d="M1127.04,623.9394 C1127.04,633.9394 1178.0351,633.9394 1178.0351,633.9394 C1178.0351,633.9394 1229.0302,633.9394 1229.0302,623.9394" fill="none" style="stroke:#000000;stroke-width:1;"/><text fill="#000000" font-family="Verdana" font-size="14" lengthAdjust="spacing" textLength="81.9902" x="1137.04" y="650.9345">Raw DICOM</text></g><!--entity BIDS--><g class="entity" data-qualified-name="Data Storage.BIDS" data-source-line="50" id="ent0035"><path d="M1264.4,623.9394 C1264.4,613.9394 1310.0392,613.9394 1310.0392,613.9394 C1310.0392,613.9394 1355.6783,613.9394 1355.6783,623.9394 L1355.6783,649.2363 C1355.6783,659.2363 1310.0392,659.2363 1310.0392,659.2363 C1310.0392,659.2363 1264.4,659.2363 1264.4,649.2363 L1264.4,623.9394" fill="#FFFFFF" style="stroke:#000000;stroke-width:1;"/><path d="M1264.4,623.9394 C1264.4,633.9394 1310.0392,633.9394 1310.0392,633.9394 C1310.0392,633.9394 1355.6783,633.9394 1355.6783,623.9394" fill="none" style="stroke:#000000;stroke-width:1;"/><text fill="#000000" font-family="Verdana" font-size="14" lengthAdjust="spacing" textLength="71.2783" x="1274.4" y="650.9345">BIDS Data</text></g><!--entity DERIV--><g class="entity" data-qualified-name="Data Storage.DERIV" data-source-line="51" id="ent0036"><path d="M1390.3,623.9394 C1390.3,613.9394 1440.0373,613.9394 1440.0373,613.9394 C1440.0373,613.9394 1489.7746,613.9394 1489.7746,623.9394 L1489.7746,649.2363 C1489.7746,659.2363 1440.0373,659.2363 1440.0373,659.2363 C1440.0373,659.2363 1390.3,659.2363 1390.3,649.2363 L1390.3,623.9394" fill="#FFFFFF" style="stroke:#000000;stroke-width:1;"/><path d="M1390.3,623.9394 C1390.3,633.9394 1440.0373,633.9394 1440.0373,633.9394 C1440.0373,633.9394 1489.7746,633.9394 1489.7746,623.9394" fill="none" style="stroke:#000000;stroke-width:1;"/><text fill="#000000" font-family="Verdana" font-size="14" lengthAdjust="spacing" textLength="79.4746" x="1400.3" y="650.9345">Derivatives</text></g><!--entity OUT--><g class="entity" data-qualified-name="Data Storage.OUT" data-source-line="52" id="ent0037"><path d="M946.11,615.7894 C946.11,605.7894 1019.0382,605.7894 1019.0382,605.7894 C1019.0382,605.7894 1091.9664,605.7894 1091.9664,615.7894 L1091.9664,657.3831 C1091.9664,667.3831 1019.0382,667.3831 1019.0382,667.3831 C1019.0382,667.3831 946.11,667.3831 946.11,657.3831 L946.11,615.7894" fill="#FFFFFF" style="stroke:#000000;stroke-width:1;"/><path d="M946.11,615.7894 C946.11,625.7894 1019.0382,625.7894 1019.0382,625.7894 C1019.0382,625.7894 1091.9664,625.7894 1091.9664,615.7894" fill="none" style="stroke:#000000;stroke-width:1;"/><text fill="#000000" font-family="Verdana" font-size="14" lengthAdjust="spacing" textLength="55.9248" x="956.11" y="642.7845">Outputs</text><text fill="#000000" font-family="Verdana" font-size="14" lengthAdjust="spacing" textLength="125.8564" x="956.11" y="659.0814">(Matrices/Metrics)</text></g><!--link CLI to ORCHESTRATOR--><g class="link" data-entity-1="ent0003" data-entity-2="ent0021" data-link-type="dependency" data-source-line="56" id="lnk38"><path d="M1486.71,156.5294 C1498.85,166.7594 1515.11,179.3294 1531.04,188.1994 C1622.49,239.0994 1732.4695,276.0371 1802.8595,296.9971" fill="none" id="CLI-to-ORCHESTRATOR" style="stroke:#000000;stroke-width:1;"/><polygon fill="#000000" points="1808.61,298.7094,1801.1258,292.3072,1803.8179,297.2824,1798.8427,299.9746,1808.61,298.7094" style="stroke:#000000;stroke-width:1;"/></g><!--link CLI to DWI_MAIN--><g class="link" data-entity-1="ent0003" data-entity-2="ent0023" data-link-type="dependency" data-source-line="57" id="lnk39"><path d="M1450.38,156.4594 C1438.41,167.7894 1421.23,181.5994 1403.04,188.1994 C1361.02,203.4494 1245.65,186.3694 1202.04,196.1994 C1048.34,230.8594 1022.78,278.0994 876.04,335.4994 C744.41,386.9794 592.6661,439.1242 512.4161,466.1542" fill="none" id="CLI-to-DWI_MAIN" style="stroke:#000000;stroke-width:1;"/><polygon fill="#000000" points="506.73,468.0694,516.536,468.9873,511.4684,466.4734,513.9824,461.4058,506.73,468.0694" style="stroke:#000000;stroke-width:1;"/></g><!--link CONFIG to ORCHESTRATOR--><g class="link" data-entity-1="ent0005" data-entity-2="ent0021" data-link-type="dependency" data-source-line="58" id="lnk40"><path d="M1644.43,164.5094 C1699.25,201.0794 1793.529,263.9692 1840.739,295.4692" fill="none" id="CONFIG-to-ORCHESTRATOR" style="stroke:#000000;stroke-width:1;"/><polygon fill="#000000" points="1845.73,298.7994,1840.4636,290.4768,1841.5708,296.0242,1836.0234,297.1315,1845.73,298.7994" style="stroke:#000000;stroke-width:1;"/></g><!--link CONFIG to DWI_MAIN--><g class="link" data-entity-1="ent0005" data-entity-2="ent0023" data-link-type="dependency" data-source-line="59" id="lnk41"><path d="M1571.9,164.6794 C1559.77,172.9994 1545.72,181.7394 1532.04,188.1994 C1161.14,363.2494 674.2352,450.9948 513.2652,476.6548" fill="none" id="CONFIG-to-DWI_MAIN" style="stroke:#000000;stroke-width:1;"/><polygon fill="#000000" points="507.34,477.5994,516.8575,480.1327,512.2777,476.8123,515.5981,472.2325,507.34,477.5994" style="stroke:#000000;stroke-width:1;"/></g><!--reverse link SLURM to ORCHESTRATOR--><g class="link" data-entity-1="ent0004" data-entity-2="ent0021" data-link-type="dependency" data-source-line="60" id="lnk42"><path d="M1358.8848,160.3252 C1371.7948,170.8252 1384.68,179.8794 1402.04,188.1994 C1538.19,253.4194 1712.98,289.9894 1806.33,306.1594" fill="none" id="SLURM-backto-ORCHESTRATOR" style="stroke:#000000;stroke-width:1;"/><polygon fill="#000000" points="1354.23,156.5394,1358.6883,165.3214,1358.109,159.6943,1363.7361,159.115,1354.23,156.5394" style="stroke:#000000;stroke-width:1;"/></g><!--reverse link SLURM to DWI_MAIN--><g class="link" data-entity-1="ent0004" data-entity-2="ent0023" data-link-type="dependency" data-source-line="61" id="lnk43"><path d="M1276.5638,144.1752 C1213.0338,150.9452 1108.34,165.5994 1018.04,196.1994 C799.15,270.3794 559.85,417.6294 480.92,468.1494" fill="none" id="SLURM-backto-DWI_MAIN" style="stroke:#000000;stroke-width:1;"/><polygon fill="#000000" points="1282.53,143.5394,1273.1568,140.5156,1277.5582,144.0692,1274.0045,148.4705,1282.53,143.5394" style="stroke:#000000;stroke-width:1;"/></g><!--link ORCHESTRATOR to STEP1--><g class="link" data-entity-1="ent0021" data-entity-2="ent0014" data-link-type="dependency" data-source-line="64" id="lnk44"><path d="M1885.18,335.9294 C1909.19,368.0694 1956.2781,431.0933 1980.2981,463.2333" fill="none" id="ORCHESTRATOR-to-STEP1" style="stroke:#000000;stroke-width:1;"/><polygon fill="#000000" points="1983.89,468.0394,1981.7063,458.4357,1980.8968,464.0343,1975.2981,463.2248,1983.89,468.0394" style="stroke:#000000;stroke-width:1;"/></g><!--link ORCHESTRATOR to STEP2--><g class="link" data-entity-1="ent0021" data-entity-2="ent0015" data-link-type="dependency" data-source-line="65" id="lnk45"><path d="M1937.83,321.7494 C1988.89,327.0894 2059.57,340.5794 2112.04,374.4994 C2148.76,398.2294 2173.1105,438.2116 2185.9605,463.0216" fill="none" id="ORCHESTRATOR-to-STEP2" style="stroke:#000000;stroke-width:1;"/><polygon fill="#000000" points="2188.72,468.3494,2188.1327,458.518,2186.4205,463.9095,2181.029,462.1973,2188.72,468.3494" style="stroke:#000000;stroke-width:1;"/></g><!--link ORCHESTRATOR to STEP3--><g class="link" data-entity-1="ent0021" data-entity-2="ent0016" data-link-type="dependency" data-source-line="66" id="lnk46"><path d="M1937.8,319.6194 C2043.77,322.6194 2246.86,332.6094 2310.04,365.4994 C2355.25,389.0294 2386.7112,435.6083 2402.5112,462.8683" fill="none" id="ORCHESTRATOR-to-STEP3" style="stroke:#000000;stroke-width:1;"/><polygon fill="#000000" points="2405.52,468.0594,2404.4676,458.2669,2403.0127,463.7335,2397.5461,462.2786,2405.52,468.0594" style="stroke:#000000;stroke-width:1;"/></g><!--link ORCHESTRATOR to STEP4--><g class="link" data-entity-1="ent0021" data-entity-2="ent0017" data-link-type="dependency" data-source-line="67" id="lnk47"><path d="M1937.81,317.3494 C2042.11,317.3394 2238.17,324.2094 2282.04,374.4994 C2320.11,418.1294 2312.61,455.6094 2282.04,504.7894 C2243.37,566.9894 2171.2011,598.858 2109.8111,616.318" fill="none" id="ORCHESTRATOR-to-STEP4" style="stroke:#000000;stroke-width:1;"/><polygon fill="#000000" points="2104.04,617.9594,2113.7909,619.3447,2108.8493,616.5916,2111.6024,611.6499,2104.04,617.9594" style="stroke:#000000;stroke-width:1;"/></g><!--link ORCHESTRATOR to STEP5--><g class="link" data-entity-1="ent0021" data-entity-2="ent0018" data-link-type="dependency" data-source-line="68" id="lnk48"><path d="M1937.57,319.2094 C2092.62,321.9494 2471.9,332.8594 2510.04,374.4994 C2549.15,417.1994 2540.86,455.7694 2510.04,504.7894 C2344.62,767.8994 1941.6302,821.877 1751.8002,832.727" fill="none" id="ORCHESTRATOR-to-STEP5" style="stroke:#000000;stroke-width:1;"/><polygon fill="#000000" points="1745.81,833.0694,1755.0236,836.5493,1750.8019,832.7841,1754.5671,828.5623,1745.81,833.0694" style="stroke:#000000;stroke-width:1;"/></g><!--link ORCHESTRATOR to STEP6--><g class="link" data-entity-1="ent0021" data-entity-2="ent0019" data-link-type="dependency" data-source-line="69" id="lnk49"><path d="M1806.28,332.2894 C1775.2,341.0094 1738.72,354.4794 1710.04,374.4994 C1673.63,399.8994 1646.9711,438.579 1632.2111,462.919" fill="none" id="ORCHESTRATOR-to-STEP6" style="stroke:#000000;stroke-width:1;"/><polygon fill="#000000" points="1629.1,468.0494,1637.1869,462.4279,1631.6926,463.774,1630.3464,458.2797,1629.1,468.0494" style="stroke:#000000;stroke-width:1;"/></g><!--link ORCHESTRATOR to STEP7--><g class="link" data-entity-1="ent0021" data-entity-2="ent0020" data-link-type="dependency" data-source-line="70" id="lnk50"><path d="M1864.05,335.9294 C1849.45,368.0694 1821.1215,430.4366 1806.5215,462.5766" fill="none" id="ORCHESTRATOR-to-STEP7" style="stroke:#000000;stroke-width:1;"/><polygon fill="#000000" points="1804.04,468.0394,1811.4042,461.4996,1806.1079,463.4871,1804.1205,458.1908,1804.04,468.0394" style="stroke:#000000;stroke-width:1;"/></g><!--link STEP4 to FSD--><g class="link" data-entity-1="ent0017" data-entity-2="ent0009" data-link-type="dependency" data-source-line="73" id="lnk51"><path d="M1928.78,645.5694 C1761.26,661.2594 1409.55,696.9694 1361.04,724.3894 C1321.26,746.8694 1293.4828,787.5023 1278.7028,812.7323" fill="none" id="STEP4-to-FSD" style="stroke:#000000;stroke-width:1;stroke-dasharray:7,7;"/><polygon fill="#000000" points="1275.67,817.9094,1283.6706,812.1656,1278.1973,813.5951,1276.7678,808.1219,1275.67,817.9094" style="stroke:#000000;stroke-width:1;"/><text fill="#000000" font-family="Verdana" font-size="13" lengthAdjust="spacing" textLength="29.7832" x="1454.84" y="712.4563">uses</text></g><!--link STEP4 to AL--><g class="link" data-entity-1="ent0017" data-entity-2="ent0010" data-link-type="dependency" data-source-line="74" id="lnk52"><path d="M1928.89,646.4594 C1807.78,659.7994 1597.27,687.4594 1530.04,724.3894 C1488.72,747.0794 1458.3475,787.7771 1442.0175,812.9271" fill="none" id="STEP4-to-AL" style="stroke:#000000;stroke-width:1;stroke-dasharray:7,7;"/><polygon fill="#000000" points="1438.75,817.9594,1447.006,812.5893,1441.4729,813.7658,1440.2964,808.2327,1438.75,817.9594" style="stroke:#000000;stroke-width:1;"/><text fill="#000000" font-family="Verdana" font-size="13" lengthAdjust="spacing" textLength="29.7832" x="1597.08" y="712.4563">uses</text></g><!--link STEP5 to MIO--><g class="link" data-entity-1="ent0018" data-entity-2="ent0008" data-link-type="dependency" data-source-line="75" id="lnk53"><path d="M1627.45,818.1294 C1600.66,793.0494 1548.42,749.3194 1494.04,732.4894 C1404.03,704.6394 727.11,684.4694 646.04,732.4894 C614.67,751.0694 600.9492,787.8949 594.5292,812.4249" fill="none" id="STEP5-to-MIO" style="stroke:#000000;stroke-width:1;stroke-dasharray:7,7;"/><polygon fill="#000000" points="593.01,818.2294,599.1584,810.5354,594.276,813.3923,591.4191,808.5099,593.01,818.2294" style="stroke:#000000;stroke-width:1;"/><text fill="#000000" font-family="Verdana" font-size="13" lengthAdjust="spacing" textLength="29.7832" x="815.54" y="712.4563">uses</text></g><!--link STEP6 to GM--><g class="link" data-entity-1="ent0019" data-entity-2="ent0007" data-link-type="dependency" data-source-line="76" id="lnk54"><path d="M1545.97,489.2694 C1333.94,494.3494 731.79,511.5594 705.04,543.7894 C637.35,625.3594 687.781,762.6898 709.461,812.3898" fill="none" id="STEP6-to-GM" style="stroke:#000000;stroke-width:1;stroke-dasharray:7,7;"/><polygon fill="#000000" points="711.86,817.8894,711.9279,808.0408,709.8608,813.3064,704.5952,811.2394,711.86,817.8894" style="stroke:#000000;stroke-width:1;"/><text fill="#000000" font-family="Verdana" font-size="13" lengthAdjust="spacing" textLength="29.7832" x="706.04" y="641.1563">uses</text></g><!--link STEP6 to MIO--><g class="link" data-entity-1="ent0019" data-entity-2="ent0008" data-link-type="dependency" data-source-line="77" id="lnk55"><path d="M1546.16,489.2294 C1323.61,494.4094 665.97,512.3294 633.04,543.7894 C555.08,618.2794 574.4469,761.6273 584.1969,812.3273" fill="none" id="STEP6-to-MIO" style="stroke:#000000;stroke-width:1;stroke-dasharray:7,7;"/><polygon fill="#000000" points="585.33,818.2194,587.5584,808.6259,584.3858,813.3093,579.7023,810.1367,585.33,818.2194" style="stroke:#000000;stroke-width:1;"/><text fill="#000000" font-family="Verdana" font-size="13" lengthAdjust="spacing" textLength="29.7832" x="634.04" y="641.1563">uses</text></g><!--link STEP7 to QCV--><g class="link" data-entity-1="ent0020" data-entity-2="ent0011" data-link-type="dependency" data-source-line="78" id="lnk56"><path d="M1726.86,502.2894 C1720.85,503.2594 1714.85,504.1094 1709.04,504.7894 C1660.49,510.4694 865.41,510.0494 830.04,543.7894 C774.05,597.2094 786.73,641.7094 807.04,716.3894 C817.81,755.9694 841.7416,791.0992 858.8916,813.1992" fill="none" id="STEP7-to-QCV" style="stroke:#000000;stroke-width:1;stroke-dasharray:7,7;"/><polygon fill="#000000" points="862.57,817.9394,860.2124,808.3768,859.5046,813.9892,853.8922,813.2814,862.57,817.9394" style="stroke:#000000;stroke-width:1;"/><text fill="#000000" font-family="Verdana" font-size="13" lengthAdjust="spacing" textLength="29.7832" x="831.04" y="641.1563">uses</text></g><!--link STEP7 to HRG--><g class="link" data-entity-1="ent0020" data-entity-2="ent0012" data-link-type="dependency" data-source-line="79" id="lnk57"><path d="M1726.85,502.2294 C1720.85,503.2094 1714.85,504.0794 1709.04,504.7894 C1664.32,510.2494 930.12,511.1794 899.04,543.7894 C853.78,591.2794 865.65,634.9194 899.04,691.3894 C914.53,717.5794 934.92,705.8194 959.04,724.3894 C996.23,753.0094 1028.5947,790.1541 1047.5647,813.4841" fill="none" id="STEP7-to-HRG" style="stroke:#000000;stroke-width:1;stroke-dasharray:7,7;"/><polygon fill="#000000" points="1051.35,818.1394,1048.7756,808.6329,1048.1956,814.26,1042.5686,813.68,1051.35,818.1394" style="stroke:#000000;stroke-width:1;"/><text fill="#000000" font-family="Verdana" font-size="13" lengthAdjust="spacing" textLength="29.7832" x="900.04" y="641.1563">uses</text></g><!--link DWI_MAIN to ITC--><g class="link" data-entity-1="ent0023" data-entity-2="ent0024" data-link-type="dependency" data-source-line="82" id="lnk58"><path d="M400.74,494.2894 C356.52,501.5294 293.15,516.0194 244.04,543.7894 C210.1,562.9894 183.1141,592.505 166.2841,613.305" fill="none" id="DWI_MAIN-to-ITC" style="stroke:#000000;stroke-width:1;"/><polygon fill="#000000" points="162.51,617.9694,171.2807,613.4889,165.6551,614.0824,165.0616,608.4568,162.51,617.9694" style="stroke:#000000;stroke-width:1;"/></g><!--link DWI_MAIN to CONN--><g class="link" data-entity-1="ent0023" data-entity-2="ent0025" data-link-type="dependency" data-source-line="83" id="lnk59"><path d="M431.35,505.0594 C418.14,515.6494 401.49,529.7994 388.04,543.7894 C364.88,567.8894 345.1456,594.1685 331.5656,613.2785" fill="none" id="DWI_MAIN-to-CONN" style="stroke:#000000;stroke-width:1;"/><polygon fill="#000000" points="328.09,618.1694,336.5639,613.1501,330.9863,614.0937,330.0428,608.516,328.09,618.1694" style="stroke:#000000;stroke-width:1;"/></g><!--link DWI_MAIN to SB--><g class="link" data-entity-1="ent0023" data-entity-2="ent0026" data-link-type="dependency" data-source-line="84" id="lnk60"><path d="M454.28,505.1994 C454.66,533.6694 455.3399,583.5999 455.7199,612.0599" fill="none" id="DWI_MAIN-to-SB" style="stroke:#000000;stroke-width:1;"/><polygon fill="#000000" points="455.8,618.0594,459.6795,609.0068,455.7332,613.0598,451.6802,609.1136,455.8,618.0594" style="stroke:#000000;stroke-width:1;"/></g><!--link CONN to GM--><g class="link" data-entity-1="ent0025" data-entity-2="ent0007" data-link-type="dependency" data-source-line="85" id="lnk61"><path d="M333.94,655.1494 C347.59,667.4294 367.5,683.0794 388.04,691.3894 C389.71,692.0594 644.5,723.4294 646.04,724.3894 C681.69,746.5094 701.7195,787.3275 711.6895,812.6175" fill="none" id="CONN-to-GM" style="stroke:#000000;stroke-width:1;stroke-dasharray:7,7;"/><polygon fill="#000000" points="713.89,818.1994,714.3105,808.3595,712.0562,813.5478,706.8679,811.2935,713.89,818.1994" style="stroke:#000000;stroke-width:1;"/><text fill="#000000" font-family="Verdana" font-size="13" lengthAdjust="spacing" textLength="29.7832" x="584.36" y="712.4563">uses</text></g><!--link CONN to MIO--><g class="link" data-entity-1="ent0025" data-entity-2="ent0008" data-link-type="dependency" data-source-line="86" id="lnk62"><path d="M336.94,654.9394 C356.74,671.2194 387.48,696.0194 415.04,716.3894 C465.98,754.0294 522.5177,791.9114 557.0777,814.6514" fill="none" id="CONN-to-MIO" style="stroke:#000000;stroke-width:1;stroke-dasharray:7,7;"/><polygon fill="#000000" points="562.09,817.9494,556.7702,809.6608,557.9131,815.201,552.3729,816.3439,562.09,817.9494" style="stroke:#000000;stroke-width:1;"/><text fill="#000000" font-family="Verdana" font-size="13" lengthAdjust="spacing" textLength="29.7832" x="416.04" y="712.4563">uses</text></g><!--link STEP2 to FMRIPREP--><g class="link" data-entity-1="ent0015" data-entity-2="ent0028" data-link-type="dependency" data-source-line="89" id="lnk63"><path d="M2193.97,505.2894 C2186.77,542.6594 2165.99,631.3094 2122.04,691.3894 C2028.48,819.2694 1867.3118,915.6743 1796.1218,954.3643" fill="none" id="STEP2-to-FMRIPREP" style="stroke:#000000;stroke-width:1;"/><polygon fill="#000000" points="1790.85,957.2294,1800.6677,956.4463,1795.2431,954.8418,1796.8476,949.4173,1790.85,957.2294" style="stroke:#000000;stroke-width:1;"/></g><!--link STEP3 to NILEARN--><g class="link" data-entity-1="ent0016" data-entity-2="ent0031" data-link-type="dependency" data-source-line="90" id="lnk64"><path d="M2396.98,505.0494 C2358.64,541.5994 2265.6,628.1894 2180.04,691.3894 C2053.6,784.7794 2028.96,828.3994 1880.04,878.6794 C1860.8,885.1794 1715.45,885.2194 1698.04,895.6794 C1674.79,909.6594 1662.1751,932.9434 1654.5351,951.6834" fill="none" id="STEP3-to-NILEARN" style="stroke:#000000;stroke-width:1;"/><polygon fill="#000000" points="1652.27,957.2394,1659.3717,950.4154,1654.1576,952.6094,1651.9636,947.3953,1652.27,957.2394" style="stroke:#000000;stroke-width:1;"/></g><!--link STEP4 to NILEARN--><g class="link" data-entity-1="ent0017" data-entity-2="ent0031" data-link-type="dependency" data-source-line="91" id="lnk65"><path d="M2004.03,654.9394 C1969.79,699.3694 1872.23,817.9494 1763.04,878.6794 C1736.94,893.1994 1722.3,878.2694 1698.04,895.6794 C1676.27,911.3094 1663.5914,933.653 1655.4714,951.793" fill="none" id="STEP4-to-NILEARN" style="stroke:#000000;stroke-width:1;"/><polygon fill="#000000" points="1653.02,957.2694,1660.348,950.6891,1655.0628,952.7057,1653.0462,947.4206,1653.02,957.2694" style="stroke:#000000;stroke-width:1;"/></g><!--link STEP5 to NILEARN--><g class="link" data-entity-1="ent0018" data-entity-2="ent0031" data-link-type="dependency" data-source-line="92" id="lnk66"><path d="M1646.04,854.9194 C1646.04,881.3294 1646.04,925.2594 1646.04,951.5794" fill="none" id="STEP5-to-NILEARN" style="stroke:#000000;stroke-width:1;"/><polygon fill="#000000" points="1646.04,957.5794,1650.04,948.5794,1646.04,952.5794,1642.04,948.5794,1646.04,957.5794" style="stroke:#000000;stroke-width:1;"/></g><!--link GM to NX--><g class="link" data-entity-1="ent0007" data-entity-2="ent0032" data-link-type="dependency" data-source-line="93" id="lnk67"><path d="M744.79,854.9894 C758.83,863.8694 777.13,873.7994 795.04,878.6794 C853.81,894.7194 1288.8,867.9494 1343.04,895.6794 C1368.68,908.7894 1384.039,932.8117 1393.549,951.8517" fill="none" id="GM-to-NX" style="stroke:#000000;stroke-width:1;"/><polygon fill="#000000" points="1396.23,957.2194,1395.7869,947.3805,1393.9958,952.7463,1388.63,950.9552,1396.23,957.2194" style="stroke:#000000;stroke-width:1;"/></g><!--link DWI_MAIN to MRTRIX--><g class="link" data-entity-1="ent0023" data-entity-2="ent0029" data-link-type="dependency" data-source-line="94" id="lnk68"><path d="M400.59,486.8894 C302.18,486.7794 98.32,492.8594 54.04,543.7894 C11,593.2994 17.05,637.2094 54.04,691.3894 C194.94,897.7794 1053.031,960.7768 1244.501,972.3668" fill="none" id="DWI_MAIN-to-MRTRIX" style="stroke:#000000;stroke-width:1;"/><polygon fill="#000000" points="1250.49,972.7294,1241.7481,968.1929,1245.4991,972.4273,1241.2648,976.1783,1250.49,972.7294" style="stroke:#000000;stroke-width:1;"/></g><!--link FSD to FS--><g class="link" data-entity-1="ent0009" data-entity-2="ent0030" data-link-type="dependency" data-source-line="95" id="lnk69"><path d="M1300.9,855.1194 C1318.54,863.3594 1340.51,872.6794 1361.04,878.6794 C1406.41,891.9594 1425.15,871.9594 1466.04,895.6794 C1491.26,910.3094 1507.5944,933.7435 1518.1244,952.2635" fill="none" id="FSD-to-FS" style="stroke:#000000;stroke-width:1;"/><polygon fill="#000000" points="1521.09,957.4794,1520.1188,947.6785,1518.6187,953.1328,1513.1644,951.6327,1521.09,957.4794" style="stroke:#000000;stroke-width:1;"/></g><!--link RAW to STEP1--><g class="link" data-entity-1="ent0034" data-entity-2="ent0014" data-link-type="dependency" data-source-line="98" id="lnk70"><path d="M1187.63,613.7694 C1198.55,591.8394 1218.64,559.1694 1247.04,543.7894 C1309.2,510.1394 1811.73,512.1294 1882.04,504.7894 C1887.66,504.2094 1887.4743,504.2672 1893.2843,503.5572" fill="none" id="RAW-to-STEP1" style="stroke:#000000;stroke-width:1;"/><polygon fill="#000000" points="1899.24,502.8294,1889.8213,499.9506,1894.2769,503.4359,1890.7917,507.8915,1899.24,502.8294" style="stroke:#000000;stroke-width:1;"/></g><!--link STEP1 to BIDS--><g class="link" data-entity-1="ent0014" data-entity-2="ent0035" data-link-type="dependency" data-source-line="99" id="lnk71"><path d="M1899.23,502.7194 C1893.42,503.4594 1887.66,504.1594 1882.04,504.7894 C1769.31,517.4994 1471.32,487.1394 1373.04,543.7894 C1346.08,559.3294 1330.5286,586.1384 1320.9086,607.9784" fill="none" id="STEP1-to-BIDS" style="stroke:#000000;stroke-width:1;"/><polygon fill="#000000" points="1318.49,613.4694,1325.7786,606.8454,1320.5055,608.8936,1318.4573,603.6206,1318.49,613.4694" style="stroke:#000000;stroke-width:1;"/></g><!--link BIDS to STEP2--><g class="link" data-entity-1="ent0035" data-entity-2="ent0015" data-link-type="dependency" data-source-line="100" id="lnk72"><path d="M1318.24,613.7394 C1327.75,591.7994 1345.73,559.1094 1373.04,543.7894 C1408.9,523.6894 2071.25,509.9494 2112.04,504.7894 C2117.56,504.0894 2117.3514,504.2241 2123.0614,503.2741" fill="none" id="BIDS-to-STEP2" style="stroke:#000000;stroke-width:1;"/><polygon fill="#000000" points="2128.98,502.2894,2119.4456,499.8207,2124.0478,503.11,2120.7585,507.7122,2128.98,502.2894" style="stroke:#000000;stroke-width:1;"/></g><!--link STEP2 to DERIV--><g class="link" data-entity-1="ent0015" data-entity-2="ent0036" data-link-type="dependency" data-source-line="101" id="lnk73"><path d="M2128.97,502.1994 C2123.26,503.1694 2117.56,504.0494 2112.04,504.7894 C2095.98,506.9394 1544.76,537.0194 1530.04,543.7894 C1497.19,558.8994 1473.3554,586.7584 1457.7154,608.7684" fill="none" id="STEP2-to-DERIV" style="stroke:#000000;stroke-width:1;"/><polygon fill="#000000" points="1454.24,613.6594,1462.7138,608.6399,1457.1362,609.5836,1456.1925,604.006,1454.24,613.6594" style="stroke:#000000;stroke-width:1;"/></g><!--link DERIV to STEP3--><g class="link" data-entity-1="ent0036" data-entity-2="ent0016" data-link-type="dependency" data-source-line="102" id="lnk74"><path d="M1454.2,613.5594 C1469.79,591.4694 1497.08,558.6494 1530.04,543.7894 C1539.57,539.4894 2271.62,505.7294 2282.04,504.7894 C2299.89,503.1794 2313.0874,501.7417 2331.1274,499.4617" fill="none" id="DERIV-to-STEP3" style="stroke:#000000;stroke-width:1;"/><polygon fill="#000000" points="2337.08,498.7094,2327.6495,495.8694,2332.1195,499.3363,2328.6526,503.8063,2337.08,498.7094" style="stroke:#000000;stroke-width:1;"/></g><!--link STEP3 to STEP4--><g class="link" data-entity-1="ent0016" data-entity-2="ent0017" data-link-type="dependency" data-source-line="103" id="lnk75"><path d="M2380.03,505.2494 C2358.33,515.5094 2329.63,527.9394 2303.04,535.7894 C2282.72,541.7994 2276.47,538.1894 2256.04,543.7894 C2183.38,563.7194 2107.6493,595.077 2061.0593,615.637" fill="none" id="STEP3-to-STEP4" style="stroke:#000000;stroke-width:1;"/><polygon fill="#000000" points="2055.57,618.0594,2065.4188,618.0853,2060.1444,616.0407,2062.189,610.7663,2055.57,618.0594" style="stroke:#000000;stroke-width:1;"/></g><!--link STEP4 to STEP5--><g class="link" data-entity-1="ent0017" data-entity-2="ent0018" data-link-type="dependency" data-source-line="104" id="lnk76"><path d="M1984.12,655.1594 C1913.71,692.7194 1754.5236,777.6549 1684.1836,815.1849" fill="none" id="STEP4-to-STEP5" style="stroke:#000000;stroke-width:1;"/><polygon fill="#000000" points="1678.89,818.0094,1688.7134,817.3018,1683.3014,815.6557,1684.9475,810.2436,1678.89,818.0094" style="stroke:#000000;stroke-width:1;"/></g><!--link STEP5 to OUT--><g class="link" data-entity-1="ent0018" data-entity-2="ent0037" data-link-type="dependency" data-source-line="105" id="lnk77"><path d="M1644.22,817.9894 C1640.03,787.7294 1626.71,726.3994 1586.04,699.3894 C1564.01,684.7494 1135.49,698.5794 1110.04,691.3894 C1092.38,686.3994 1079.7072,680.2966 1064.6372,670.8066" fill="none" id="STEP5-to-OUT" style="stroke:#000000;stroke-width:1;"/><polygon fill="#000000" points="1059.56,667.6094,1065.0443,675.79,1063.791,670.2737,1069.3072,669.0204,1059.56,667.6094" style="stroke:#000000;stroke-width:1;"/></g><!--link STEP6 to OUT--><g class="link" data-entity-1="ent0019" data-entity-2="ent0037" data-link-type="dependency" data-source-line="106" id="lnk78"><path d="M1546.22,490.3594 C1428.06,495.4794 1200.11,508.4694 1124.04,534.7894 C1087.74,547.3494 1061.1167,575.7194 1042.5567,600.6094" fill="none" id="STEP6-to-OUT" style="stroke:#000000;stroke-width:1;"/><polygon fill="#000000" points="1038.97,605.4194,1047.5567,600.5956,1041.9589,601.4111,1041.1434,595.8133,1038.97,605.4194" style="stroke:#000000;stroke-width:1;"/></g><!--link STEP7 to OUT--><g class="link" data-entity-1="ent0020" data-entity-2="ent0037" data-link-type="dependency" data-source-line="107" id="lnk79"><path d="M1726.84,502.1594 C1720.84,503.1494 1714.84,504.0494 1709.04,504.7894 C1576.72,521.6794 1230.55,486.5994 1110.04,543.7894 C1081.25,557.4594 1060.0827,579.4625 1043.6627,600.5825" fill="none" id="STEP7-to-OUT" style="stroke:#000000;stroke-width:1;"/><polygon fill="#000000" points="1039.98,605.3194,1048.662,600.6693,1043.0489,601.372,1042.3462,595.759,1039.98,605.3194" style="stroke:#000000;stroke-width:1;"/></g><!--link RAW to ITC--><g class="link" data-entity-1="ent0034" data-entity-2="ent0024" data-link-type="dependency" data-source-line="109" id="lnk80"><path d="M1168.7,613.8194 C1155.95,586.2994 1130.19,541.5394 1091.54,524.2894 C1049.43,505.4994 304.15,506.6694 261.54,524.2894 C215.38,543.3894 181.5951,586.6317 163.7951,613.2517" fill="none" id="RAW-to-ITC" style="stroke:#000000;stroke-width:1;"/><polygon fill="#000000" points="160.46,618.2394,168.7878,612.9813,163.2393,614.083,162.1376,608.5344,160.46,618.2394" style="stroke:#000000;stroke-width:1;"/></g><!--link DWI_MAIN to OUT--><g class="link" data-entity-1="ent0023" data-entity-2="ent0037" data-link-type="dependency" data-source-line="110" id="lnk81"><path d="M507.17,489.9794 C613.13,495.2994 846.74,510.5094 919.04,543.7894 C949.44,557.7894 972.9268,579.9858 991.3368,601.0058" fill="none" id="DWI_MAIN-to-OUT" style="stroke:#000000;stroke-width:1;"/><polygon fill="#000000" points="995.29,605.5194,992.3693,596.1135,991.9957,601.758,986.3512,601.3844,995.29,605.5194" style="stroke:#000000;stroke-width:1;"/></g><?plantuml-src TLHTR-is37tFhz2wX-q-v6wtRHfWA0gu-Qg7kEdizDuEss0e3fC8jIL3ajDcm_xxg0yxTfebG10TKk8XUSZlz0uA86LE6U-fLyPBAcb1LZHxtKfHyVL8v4AIxwSJysrvPA8e1GUk4tt8WKZ8DENR77ezpJG28r6i68Sr_k4SZMpFz87qIN9G6WeIo6p7DEALn2ibXgDR81VF2YG9kGQveHbSa7zw13z_ZEOXIJB9Igt-8bGHF3j3Cd-E8_AhM3dS7lqLmJTiMqcgcU1_yXz_3wBv9tTvyJWDPxr_Ms6p5iTKxQY4zGMvlPrYel0cvElTNSra9ccvYq1BbhcGCnyleeYzXmiBHk72eLC9a5Ho0t8C9biXhNsQZ9qzq3bLSxg2tBqMp1t-s-WhKnNDsT-MlxKXvemFosWUGocadW47pD2_-X1ti-8i1ofv6YVtAUKqFoYcqfALa6DZJ7v1MUOiin6E6Vxy9TrZu3NLWBVMATPc3rAx-YudJr-yssKgAvvk2koAXB8nNthpLRe6BfY2LB4j1bUDnvNtk4xXNKkQwLGAzi7hsdiDKgEq2icqczIu3RpRJRerdKcBLckC_SRRX-dU5nHCkAF3q3ceQbKmtLJ7cXVnw66IBEDWkOWxXIsawRN9i10yfUkruFzRJbEapglZRs4Q1U6ZCuS5lhWyb33QGVOAhf7XSjI8sAGi2gYLwwybUIMBUwgpdKlaliDlyeu3XDKaIo5orKpH9eh3fxfNKtE89qzUlR7Do8atNiRXowb-lMuTx9LbiSTmFWbYp-iHj9cN5sTvwR0QKqr9WcB5Kyq9LKPNLA4rfcza78uMqOMv6WVVJkptuJWXvWbhDwSJXp58jiVYxq5Pb_4a3h-U-2mgZL9Ik0xik6QWVlAp_CdUMJml3UKVYDr3hDv3f9QUuAfdTb6_VzTLHmqspNLBvepZ4MzytHAxxVUxhaUuyKHcfedaoGkAR7BnrclViY-xCJqBNvw7hyx3r-VXmNduvZmyDBGJkrH9pbQIoWEf58gWPqEGpv_lp48alo0AgWK6ypOsi1XkrZPuOy5Pz14xSHnQ45VeHn3NPWqYKQnrKzvUNNYRYvdA3c37iOFW71hmX5G3jJXXf6PADKufMKC975TcnZovI_jYCwQsInQg1yuLwXGPT10aOOylNPv-n4tLRP34PcxcqmeAfw-b8_jhptRgx20UvNIawWRE_hPqTUJj17LaxPHqv6o6p_MlVHesfuRMXqQWzJy0?></g></svg>