<?plantuml 1.2026.1?><svg xmlns="http://www.w3.org/2000/svg" xmlns:xlink="http://www.w3.org/1999/xlink" contentStyleType="text/css" data-diagram-type="CLASS" height="892px" preserveAspectRatio="none" style="width:2063px;height:892px;background:#FEFEFE;" version="1.1" viewBox="0 0 2063 892" width="2063px" zoomAndPan="magnify"><title>mrtrix3_demon_addon - Class Diagram</title><defs/><g><rect fill="#FEFEFE" height="892" style="stroke:none;stroke-width:1;" width="2063" x="0" y="0"/><g class="title" data-source-line="5"><text fill="#000000" font-family="Verdana" font-size="22" font-weight="bold" lengthAdjust="spacing" textLength="477.5117" x="788.524" y="35.4209">mrtrix3_demon_addon - Class Diagram</text></g><!--cluster DWI Pipeline--><g class="cluster" data-qualified-name="DWI Pipeline" data-source-line="7" id="ent0002"><path d="M13.5,84.3094 L115.2822,84.3094 A3.75,3.75 0 0 1 117.7822,86.8094 L124.7822,106.6063 L1207.5,106.6063 A2.5,2.5 0 0 1 1210,109.1063 L1210,580.5294 A2.5,2.5 0 0 1 1207.5,583.0294 L13.5,583.0294 A2.5,2.5 0 0 1 11,580.5294 L11,86.8094 A2.5,2.5 0 0 1 13.5,84.3094" fill="#FFFFFF" style="stroke:#000000;stroke-width:1;"/><line style="stroke:#000000;stroke-width:1;" x1="11" x2="124.7822" y1="106.6063" y2="106.6063"/><text fill="#000000" font-family="Verdana" font-size="14" font-weight="bold" lengthAdjust="spacing" textLength="100.7822" x="15" y="99.3045">DWI Pipeline</text></g><!--cluster External Dependencies--><g class="cluster" data-qualified-name="External Dependencies" data-source-line="69" id="ent0009"><path d="M112.5,632.0294 L295.2813,632.0294 A3.75,3.75 0 0 1 297.7813,634.5294 L304.7813,654.3263 L806.5,654.3263 A2.5,2.5 0 0 1 809,656.8263 L809,883.4694 A2.5,2.5 0 0 1 806.5,885.9694 L112.5,885.9694 A2.5,2.5 0 0 1 110,883.4694 L110,634.5294 A2.5,2.5 0 0 1 112.5,632.0294" fill="#FFFFFF" style="stroke:#000000;stroke-width:1;"/><line style="stroke:#000000;stroke-width:1;" x1="110" x2="304.7813" y1="654.3263" y2="654.3263"/><text fill="#000000" font-family="Verdana" font-size="14" font-weight="bold" lengthAdjust="spacing" textLength="181.7813" x="114" y="647.0245">External Dependencies</text></g><!--cluster Configuration--><g class="cluster" data-qualified-name="Configuration" data-source-line="88" id="ent0014"><path d="M1236.5,57.6094 L1345.665,57.6094 A3.75,3.75 0 0 1 1348.165,60.1094 L1355.165,79.9063 L1707.5,79.9063 A2.5,2.5 0 0 1 1710,82.4063 L1710,294.5594 A2.5,2.5 0 0 1 1707.5,297.0594 L1236.5,297.0594 A2.5,2.5 0 0 1 1234,294.5594 L1234,60.1094 A2.5,2.5 0 0 1 1236.5,57.6094" fill="#FFFFFF" style="stroke:#000000;stroke-width:1;"/><line style="stroke:#000000;stroke-width:1;" x1="1234" x2="1355.165" y1="79.9063" y2="79.9063"/><text fill="#000000" font-family="Verdana" font-size="14" font-weight="bold" lengthAdjust="spacing" textLength="108.165" x="1238" y="72.6045">Configuration</text></g><!--cluster commands_ms--><g class="cluster" data-qualified-name="Configuration.commands_ms" data-source-line="89" id="ent0016"><path d="M1260.5,100.6094 L1376.2822,100.6094 A3.75,3.75 0 0 1 1378.7822,103.1094 L1385.7822,122.9063 L1475.5,122.9063 A2.5,2.5 0 0 1 1478,125.4063 L1478,270.5594 A2.5,2.5 0 0 1 1475.5,273.0594 L1260.5,273.0594 A2.5,2.5 0 0 1 1258,270.5594 L1258,103.1094 A2.5,2.5 0 0 1 1260.5,100.6094" fill="#FFFFFF" style="stroke:#000000;stroke-width:1;"/><line style="stroke:#000000;stroke-width:1;" x1="1258" x2="1385.7822" y1="122.9063" y2="122.9063"/><text fill="#000000" font-family="Verdana" font-size="14" font-weight="bold" lengthAdjust="spacing" textLength="114.7822" x="1262" y="115.6045">commands_ms</text></g><!--cluster commands_ss--><g class="cluster" data-qualified-name="Configuration.commands_ss" data-source-line="96" id="ent0018"><path d="M1504.5,125.0594 L1614.0273,125.0594 A3.75,3.75 0 0 1 1616.5273,127.5594 L1623.5273,147.3563 L1683.5,147.3563 A2.5,2.5 0 0 1 1686,149.8563 L1686,246.1194 A2.5,2.5 0 0 1 1683.5,248.6194 L1504.5,248.6194 A2.5,2.5 0 0 1 1502,246.1194 L1502,127.5594 A2.5,2.5 0 0 1 1504.5,125.0594" fill="#FFFFFF" style="stroke:#000000;stroke-width:1;"/><line style="stroke:#000000;stroke-width:1;" x1="1502" x2="1623.5273" y1="147.3563" y2="147.3563"/><text fill="#000000" font-family="Verdana" font-size="14" font-weight="bold" lengthAdjust="spacing" textLength="108.5273" x="1506" y="140.0545">commands_ss</text></g><!--cluster commands_ms--><g class="cluster" data-qualified-name="commands_ms" data-source-line="105" id="ent0023"><path d="M1331.5,406.5494 L1447.2822,406.5494 A3.75,3.75 0 0 1 1449.7822,409.0494 L1456.7822,428.8463 L1456.5,428.8463 A2.5,2.5 0 0 1 1459,431.3463 L1459,499.0494 A2.5,2.5 0 0 1 1456.5,501.5494 L1331.5,501.5494 A2.5,2.5 0 0 1 1329,499.0494 L1329,409.0494 A2.5,2.5 0 0 1 1331.5,406.5494" fill="#FFFFFF" style="stroke:#000000;stroke-width:1;"/><line style="stroke:#000000;stroke-width:1;" x1="1329" x2="1456.7822" y1="428.8463" y2="428.8463"/><text fill="#000000" font-family="Verdana" font-size="14" font-weight="bold" lengthAdjust="spacing" textLength="114.7822" x="1333" y="421.5445">commands_ms</text></g><!--cluster commands_ss--><g class="cluster" data-qualified-name="commands_ss" data-source-line="106" id="ent0026"><path d="M1485.5,406.5494 L1595.0273,406.5494 A3.75,3.75 0 0 1 1597.5273,409.0494 L1604.5273,428.8463 L1604.5,428.8463 A2.5,2.5 0 0 1 1607,431.3463 L1607,499.0494 A2.5,2.5 0 0 1 1604.5,501.5494 L1485.5,501.5494 A2.5,2.5 0 0 1 1483,499.0494 L1483,409.0494 A2.5,2.5 0 0 1 1485.5,406.5494" fill="#FFFFFF" style="stroke:#000000;stroke-width:1;"/><line style="stroke:#000000;stroke-width:1;" x1="1483" x2="1604.5273" y1="428.8463" y2="428.8463"/><text fill="#000000" font-family="Verdana" font-size="14" font-weight="bold" lengthAdjust="spacing" textLength="108.5273" x="1487" y="421.5445">commands_ss</text></g><!--class run_pipeline--><g class="entity" data-qualified-name="DWI Pipeline.run_pipeline" data-source-line="9" id="ent0003"><rect fill="#FFFFFF" height="154.0469" rx="2.5" ry="2.5" style="stroke:#000000;stroke-width:1;" width="314.4561" x="879.77" y="119.3094"/><ellipse cx="990.2261" cy="139.4422" fill="#FFFFFF" rx="9" ry="9" style="stroke:#000000;stroke-width:1;"/><path d="M993.1948,145.0828 Q992.6167,145.3797 991.9761,145.5203 Q991.3354,145.6766 990.6323,145.6766 Q988.1323,145.6766 986.8042,144.0359 Q985.4917,142.3797 985.4917,139.2547 Q985.4917,136.1297 986.8042,134.4734 Q988.1323,132.8172 990.6323,132.8172 Q991.3354,132.8172 991.9761,132.9734 Q992.6323,133.1297 993.1948,133.4266 L993.1948,136.1453 Q992.5698,135.5672 991.9761,135.3016 Q991.3823,135.0203 990.7573,135.0203 Q989.4136,135.0203 988.7261,136.0984 Q988.0386,137.1609 988.0386,139.2547 Q988.0386,141.3484 988.7261,142.4266 Q989.4136,143.4891 990.7573,143.4891 Q991.3823,143.4891 991.9761,143.2234 Q992.5698,142.9422 993.1948,142.3641 L993.1948,145.0828 Z " fill="#000000"/><text fill="#000000" font-family="Verdana" font-size="12" font-style="italic" lengthAdjust="spacing" textLength="59.6543" x="1020.9209" y="135.448">&#171;module&#187;</text><text fill="#000000" font-family="Verdana" font-size="14" lengthAdjust="spacing" textLength="86.0439" x="1007.7261" y="151.2732">run_pipeline</text><line style="stroke:#000000;stroke-width:1;" x1="880.77" x2="1193.2261" y1="159.575" y2="159.575"/><line style="stroke:#000000;stroke-width:1;" x1="880.77" x2="1193.2261" y1="167.575" y2="167.575"/><text fill="#000000" font-family="Verdana" font-size="14" lengthAdjust="spacing" textLength="103.3252" x="885.77" y="184.5701">+main(): None</text><text fill="#000000" font-family="Verdana" font-size="14" lengthAdjust="spacing" textLength="190.8389" x="885.77" y="200.867">+parse_args(): Namespace</text><text fill="#000000" font-family="Verdana" font-size="14" lengthAdjust="spacing" textLength="219.2148" x="885.77" y="217.1639">+load_config(config_path): dict</text><text fill="#000000" font-family="Verdana" font-size="14" lengthAdjust="spacing" textLength="248.8828" x="885.77" y="233.4607">+setup_logging(subject_id): Logger</text><text fill="#000000" font-family="Verdana" font-size="14" lengthAdjust="spacing" textLength="302.4561" x="885.77" y="249.7576">+process_subject(subject_id, config): None</text><text fill="#000000" font-family="Verdana" font-size="14" lengthAdjust="spacing" textLength="282.2285" x="885.77" y="266.0545">+run_mrtrix_command(cmd, config): int</text></g><!--class ImageTypeChecker--><g class="entity" data-qualified-name="DWI Pipeline.ImageTypeChecker" data-source-line="18" id="ent0004"><rect fill="#FFFFFF" height="206.9688" rx="2.5" ry="2.5" style="stroke:#000000;stroke-width:1;" width="424.1797" x="758.91" y="360.0594"/><ellipse cx="899.4408" cy="374.0594" fill="#FFFFFF" rx="9" ry="9" style="stroke:#000000;stroke-width:1;"/><path d="M902.4095,379.7 Q901.8314,379.9969 901.1908,380.1375 Q900.5501,380.2938 899.847,380.2938 Q897.347,380.2938 896.0189,378.6531 Q894.7064,376.9969 894.7064,373.8719 Q894.7064,370.7469 896.0189,369.0906 Q897.347,367.4344 899.847,367.4344 Q900.5501,367.4344 901.1908,367.5906 Q901.847,367.7469 902.4095,368.0438 L902.4095,370.7625 Q901.7845,370.1844 901.1908,369.9188 Q900.597,369.6375 899.972,369.6375 Q898.6283,369.6375 897.9408,370.7156 Q897.2533,371.7781 897.2533,373.8719 Q897.2533,375.9656 897.9408,377.0438 Q898.6283,378.1063 899.972,378.1063 Q900.597,378.1063 901.1908,377.8406 Q901.7845,377.5594 902.4095,376.9813 L902.4095,379.7 Z " fill="#000000"/><text fill="#000000" font-family="Verdana" font-size="14" lengthAdjust="spacing" textLength="135.6182" x="916.9408" y="378.9061">ImageTypeChecker</text><line style="stroke:#000000;stroke-width:1;" x1="759.91" x2="1182.0897" y1="388.0594" y2="388.0594"/><text fill="#000000" font-family="Verdana" font-size="14" lengthAdjust="spacing" textLength="107.1465" x="764.91" y="405.0545">-input_dir: Path</text><text fill="#000000" font-family="Verdana" font-size="14" lengthAdjust="spacing" textLength="117.3115" x="764.91" y="421.3514">-output_dir: Path</text><text fill="#000000" font-family="Verdana" font-size="14" lengthAdjust="spacing" textLength="107.3242" x="764.91" y="437.6482">-logger: Logger</text><line style="stroke:#000000;stroke-width:1;" x1="759.91" x2="1182.0897" y1="444.95" y2="444.95"/><text fill="#000000" font-family="Verdana" font-size="14" lengthAdjust="spacing" textLength="214.9492" x="764.91" y="461.9451">+__init__(input_dir, output_dir)</text><text fill="#000000" font-family="Verdana" font-size="14" lengthAdjust="spacing" textLength="288.8662" x="764.91" y="478.242">+process_directory(): Dict[str, List[Path]]</text><text fill="#000000" font-family="Verdana" font-size="14" lengthAdjust="spacing" textLength="279.9248" x="764.91" y="494.5389">+is_relevant_sequence(json_path): bool</text><text fill="#000000" font-family="Verdana" font-size="14" lengthAdjust="spacing" textLength="295.0732" x="764.91" y="510.8357">+classify_image(nifti_path, json_path): str</text><text fill="#000000" font-family="Verdana" font-size="14" lengthAdjust="spacing" textLength="405.501" x="764.91" y="527.1326">+convert_dicom_to_nifti(dicom_dir, output_dir): List[Path]</text><text fill="#000000" font-family="Verdana" font-size="14" lengthAdjust="spacing" textLength="273.6836" x="764.91" y="543.4295">+get_image_metadata(json_path): dict</text><text fill="#000000" font-family="Verdana" font-size="14" lengthAdjust="spacing" textLength="412.1797" x="764.91" y="559.7264">+validate_dwi_data(nifti_path, bvec_path, bval_path): bool</text></g><!--class NetworkAnalysis--><g class="entity" data-qualified-name="DWI Pipeline.NetworkAnalysis" data-source-line="31" id="ent0005"><rect fill="#FFFFFF" height="190.6719" rx="2.5" ry="2.5" style="stroke:#000000;stroke-width:1;" width="340.2617" x="98.87" y="368.2094"/><ellipse cx="207.183" cy="382.2094" fill="#FFFFFF" rx="9" ry="9" style="stroke:#000000;stroke-width:1;"/><path d="M210.1517,387.85 Q209.5736,388.1469 208.933,388.2875 Q208.2924,388.4438 207.5892,388.4438 Q205.0892,388.4438 203.7611,386.8031 Q202.4486,385.1469 202.4486,382.0219 Q202.4486,378.8969 203.7611,377.2406 Q205.0892,375.5844 207.5892,375.5844 Q208.2924,375.5844 208.933,375.7406 Q209.5892,375.8969 210.1517,376.1938 L210.1517,378.9125 Q209.5267,378.3344 208.933,378.0688 Q208.3392,377.7875 207.7142,377.7875 Q206.3705,377.7875 205.683,378.8656 Q204.9955,379.9281 204.9955,382.0219 Q204.9955,384.1156 205.683,385.1938 Q206.3705,386.2563 207.7142,386.2563 Q208.3392,386.2563 208.933,385.9906 Q209.5267,385.7094 210.1517,385.1313 L210.1517,387.85 Z " fill="#000000"/><text fill="#000000" font-family="Verdana" font-size="14" lengthAdjust="spacing" textLength="116.1357" x="224.683" y="387.0561">NetworkAnalysis</text><line style="stroke:#000000;stroke-width:1;" x1="99.87" x2="438.1317" y1="396.2094" y2="396.2094"/><text fill="#000000" font-family="Verdana" font-size="14" lengthAdjust="spacing" textLength="114.5703" x="104.87" y="413.2045">-matrix: ndarray</text><text fill="#000000" font-family="Verdana" font-size="14" lengthAdjust="spacing" textLength="109.3066" x="104.87" y="429.5014">-labels: List[str]</text><text fill="#000000" font-family="Verdana" font-size="14" lengthAdjust="spacing" textLength="119.752" x="104.87" y="445.7982">-graph: nx.Graph</text><line style="stroke:#000000;stroke-width:1;" x1="99.87" x2="438.1317" y1="453.1" y2="453.1"/><text fill="#000000" font-family="Verdana" font-size="14" lengthAdjust="spacing" textLength="72.7959" x="104.87" y="470.0951">+__init__()</text><text fill="#000000" font-family="Verdana" font-size="14" lengthAdjust="spacing" textLength="199.8828" x="104.87" y="486.392">+load_csv(filepath): ndarray</text><text fill="#000000" font-family="Verdana" font-size="14" lengthAdjust="spacing" textLength="328.2617" x="104.87" y="502.6889">+create_adjacency_matrix(threshold): ndarray</text><text fill="#000000" font-family="Verdana" font-size="14" lengthAdjust="spacing" textLength="228.4502" x="104.87" y="518.9857">+calculate_graph_metrics(): dict</text><text fill="#000000" font-family="Verdana" font-size="14" lengthAdjust="spacing" textLength="234.1924" x="104.87" y="535.2826">+get_node_metrics(): DataFrame</text><text fill="#000000" font-family="Verdana" font-size="14" lengthAdjust="spacing" textLength="240.3311" x="104.87" y="551.5795">+save_results(output_path): None</text></g><!--class SlurmBatch--><g class="entity" data-qualified-name="DWI Pipeline.SlurmBatch" data-source-line="43" id="ent0006"><rect fill="#FFFFFF" height="206.9688" rx="2.5" ry="2.5" style="stroke:#000000;stroke-width:1;" width="248.9678" x="474.52" y="360.0594"/><ellipse cx="554.6108" cy="374.0594" fill="#FFFFFF" rx="9" ry="9" style="stroke:#000000;stroke-width:1;"/><path d="M557.5796,379.7 Q557.0014,379.9969 556.3608,380.1375 Q555.7202,380.2938 555.0171,380.2938 Q552.5171,380.2938 551.1889,378.6531 Q549.8764,376.9969 549.8764,373.8719 Q549.8764,370.7469 551.1889,369.0906 Q552.5171,367.4344 555.0171,367.4344 Q555.7202,367.4344 556.3608,367.5906 Q557.0171,367.7469 557.5796,368.0438 L557.5796,370.7625 Q556.9546,370.1844 556.3608,369.9188 Q555.7671,369.6375 555.1421,369.6375 Q553.7983,369.6375 553.1108,370.7156 Q552.4233,371.7781 552.4233,373.8719 Q552.4233,375.9656 553.1108,377.0438 Q553.7983,378.1063 555.1421,378.1063 Q555.7671,378.1063 556.3608,377.8406 Q556.9546,377.5594 557.5796,376.9813 L557.5796,379.7 Z " fill="#000000"/><text fill="#000000" font-family="Verdana" font-size="14" lengthAdjust="spacing" textLength="81.2861" x="572.1108" y="378.9061">SlurmBatch</text><line style="stroke:#000000;stroke-width:1;" x1="475.52" x2="722.4878" y1="388.0594" y2="388.0594"/><text fill="#000000" font-family="Verdana" font-size="14" lengthAdjust="spacing" textLength="100.8027" x="480.52" y="405.0545">-job_name: str</text><text fill="#000000" font-family="Verdana" font-size="14" lengthAdjust="spacing" textLength="92.1758" x="480.52" y="421.3514">-partition: str</text><text fill="#000000" font-family="Verdana" font-size="14" lengthAdjust="spacing" textLength="88.5322" x="480.52" y="437.6482">-account: str</text><text fill="#000000" font-family="Verdana" font-size="14" lengthAdjust="spacing" textLength="65.2217" x="480.52" y="453.9451">-cpus: int</text><text fill="#000000" font-family="Verdana" font-size="14" lengthAdjust="spacing" textLength="91.2529" x="480.52" y="470.242">-memory: str</text><text fill="#000000" font-family="Verdana" font-size="14" lengthAdjust="spacing" textLength="64.3877" x="480.52" y="486.5389">-time: str</text><line style="stroke:#000000;stroke-width:1;" x1="475.52" x2="722.4878" y1="493.8406" y2="493.8406"/><text fill="#000000" font-family="Verdana" font-size="14" lengthAdjust="spacing" textLength="192.582" x="480.52" y="510.8357">+__init__(job_name, config)</text><text fill="#000000" font-family="Verdana" font-size="14" lengthAdjust="spacing" textLength="236.9678" x="480.52" y="527.1326">+generate_script(commands): str</text><text fill="#000000" font-family="Verdana" font-size="14" lengthAdjust="spacing" textLength="204.6133" x="480.52" y="543.4295">+submit_job(script_path): str</text><text fill="#000000" font-family="Verdana" font-size="14" lengthAdjust="spacing" textLength="175.1914" x="480.52" y="559.7264">+wait_for_job(job_id): int</text></g><!--class connectome_aggregator--><g class="entity" data-qualified-name="DWI Pipeline.connectome_aggregator" data-source-line="56" id="ent0007"><rect fill="#FFFFFF" height="105.1563" rx="2.5" ry="2.5" style="stroke:#000000;stroke-width:1;" width="363.2236" x="481.39" y="143.7594"/><ellipse cx="573.4403" cy="163.8922" fill="#FFFFFF" rx="9" ry="9" style="stroke:#000000;stroke-width:1;"/><path d="M576.409,169.5328 Q575.8309,169.8297 575.1903,169.9703 Q574.5497,170.1266 573.8465,170.1266 Q571.3465,170.1266 570.0184,168.4859 Q568.7059,166.8297 568.7059,163.7047 Q568.7059,160.5797 570.0184,158.9234 Q571.3465,157.2672 573.8465,157.2672 Q574.5497,157.2672 575.1903,157.4234 Q575.8465,157.5797 576.409,157.8766 L576.409,160.5953 Q575.784,160.0172 575.1903,159.7516 Q574.5965,159.4703 573.9715,159.4703 Q572.6278,159.4703 571.9403,160.5484 Q571.2528,161.6109 571.2528,163.7047 Q571.2528,165.7984 571.9403,166.8766 Q572.6278,167.9391 573.9715,167.9391 Q574.5965,167.9391 575.1903,167.6734 Q575.784,167.3922 576.409,166.8141 L576.409,169.5328 Z " fill="#000000"/><text fill="#000000" font-family="Verdana" font-size="12" font-style="italic" lengthAdjust="spacing" textLength="59.6543" x="646.9247" y="159.898">&#171;module&#187;</text><text fill="#000000" font-family="Verdana" font-size="14" lengthAdjust="spacing" textLength="171.623" x="590.9403" y="175.7232">connectome_aggregator</text><line style="stroke:#000000;stroke-width:1;" x1="482.39" x2="843.6136" y1="184.025" y2="184.025"/><line style="stroke:#000000;stroke-width:1;" x1="482.39" x2="843.6136" y1="192.025" y2="192.025"/><text fill="#000000" font-family="Verdana" font-size="14" lengthAdjust="spacing" textLength="330.7842" x="487.39" y="209.0201">+aggregate_subjects(subject_dirs): DataFrame</text><text fill="#000000" font-family="Verdana" font-size="14" lengthAdjust="spacing" textLength="250.7354" x="487.39" y="225.317">+compute_group_statistics(df): dict</text><text fill="#000000" font-family="Verdana" font-size="14" lengthAdjust="spacing" textLength="351.2236" x="487.39" y="241.6139">+save_aggregated_results(df, output_path): None</text></g><!--class generate_standardized_report--><g class="entity" data-qualified-name="DWI Pipeline.generate_standardized_report" data-source-line="62" id="ent0008"><rect fill="#FFFFFF" height="105.1563" rx="2.5" ry="2.5" style="stroke:#000000;stroke-width:1;" width="419.5381" x="27.23" y="143.7594"/><ellipse cx="127.4629" cy="163.8922" fill="#FFFFFF" rx="9" ry="9" style="stroke:#000000;stroke-width:1;"/><path d="M130.4317,169.5328 Q129.8535,169.8297 129.2129,169.9703 Q128.5723,170.1266 127.8692,170.1266 Q125.3692,170.1266 124.041,168.4859 Q122.7285,166.8297 122.7285,163.7047 Q122.7285,160.5797 124.041,158.9234 Q125.3692,157.2672 127.8692,157.2672 Q128.5723,157.2672 129.2129,157.4234 Q129.8692,157.5797 130.4317,157.8766 L130.4317,160.5953 Q129.8067,160.0172 129.2129,159.7516 Q128.6192,159.4703 127.9942,159.4703 Q126.6504,159.4703 125.9629,160.5484 Q125.2754,161.6109 125.2754,163.7047 Q125.2754,165.7984 125.9629,166.8766 Q126.6504,167.9391 127.9942,167.9391 Q128.6192,167.9391 129.2129,167.6734 Q129.8067,167.3922 130.4317,166.8141 L130.4317,169.5328 Z " fill="#000000"/><text fill="#000000" font-family="Verdana" font-size="12" font-style="italic" lengthAdjust="spacing" textLength="59.6543" x="220.9219" y="159.898">&#171;module&#187;</text><text fill="#000000" font-family="Verdana" font-size="14" lengthAdjust="spacing" textLength="211.5723" x="144.9629" y="175.7232">generate_standardized_report</text><line style="stroke:#000000;stroke-width:1;" x1="28.23" x2="445.7681" y1="184.025" y2="184.025"/><line style="stroke:#000000;stroke-width:1;" x1="28.23" x2="445.7681" y1="192.025" y2="192.025"/><text fill="#000000" font-family="Verdana" font-size="14" lengthAdjust="spacing" textLength="407.5381" x="33.23" y="209.0201">+generate_report(subject_id, metrics, output_path): None</text><text fill="#000000" font-family="Verdana" font-size="14" lengthAdjust="spacing" textLength="252.1162" x="33.23" y="225.317">+format_metrics_json(metrics): dict</text><text fill="#000000" font-family="Verdana" font-size="14" lengthAdjust="spacing" textLength="368.375" x="33.23" y="241.6139">+create_summary_csv(subjects, output_path): None</text></g><!--class MRT--><g class="entity" data-qualified-name="External Dependencies.MRT" data-source-line="70" id="ent0010"><rect fill="#FFFFFF" height="202.9375" rx="2.5" ry="2.5" style="stroke:#000000;stroke-width:1;" width="128.8262" x="664.59" y="667.0294"/><ellipse cx="687.2997" cy="695.3106" fill="#FFFFFF" rx="9" ry="9" style="stroke:#000000;stroke-width:1;"/><path d="M690.2685,700.9513 Q689.6903,701.2481 689.0497,701.3888 Q688.4091,701.545 687.706,701.545 Q685.206,701.545 683.8778,699.9044 Q682.5653,698.2481 682.5653,695.1231 Q682.5653,691.9981 683.8778,690.3419 Q685.206,688.6856 687.706,688.6856 Q688.4091,688.6856 689.0497,688.8419 Q689.706,688.9981 690.2685,689.295 L690.2685,692.0138 Q689.6435,691.4356 689.0497,691.17 Q688.456,690.8888 687.831,690.8888 Q686.4872,690.8888 685.7997,691.9669 Q685.1122,693.0294 685.1122,695.1231 Q685.1122,697.2169 685.7997,698.295 Q686.4872,699.3575 687.831,699.3575 Q688.456,699.3575 689.0497,699.0919 Q689.6435,698.8106 690.2685,698.2325 L690.2685,700.9513 Z " fill="#000000"/><text fill="#000000" font-family="Verdana" font-size="12" font-style="italic" lengthAdjust="spacing" textLength="64.4824" x="708.8407" y="683.168">&#171;external&#187;</text><text fill="#000000" font-family="Verdana" font-size="14" lengthAdjust="spacing" textLength="54.1338" x="714.015" y="698.9932">MRtrix3</text><text fill="#000000" font-family="Verdana" font-size="14" lengthAdjust="spacing" textLength="79.249" x="701.4574" y="715.2901">Commands</text><line style="stroke:#000000;stroke-width:1;" x1="665.59" x2="792.4162" y1="723.5919" y2="723.5919"/><text fill="#000000" font-family="Verdana" font-size="14" lengthAdjust="spacing" textLength="97.0293" x="670.59" y="740.587">dwi2response</text><text fill="#000000" font-family="Verdana" font-size="14" lengthAdjust="spacing" textLength="55.5146" x="670.59" y="756.8839">dwi2fod</text><text fill="#000000" font-family="Verdana" font-size="14" lengthAdjust="spacing" textLength="47.667" x="670.59" y="773.1807">tckgen</text><text fill="#000000" font-family="Verdana" font-size="14" lengthAdjust="spacing" textLength="116.8262" x="670.59" y="789.4776">tck2connectome</text><text fill="#000000" font-family="Verdana" font-size="14" lengthAdjust="spacing" textLength="72.6729" x="670.59" y="805.7745">mrconvert</text><text fill="#000000" font-family="Verdana" font-size="14" lengthAdjust="spacing" textLength="78.9619" x="670.59" y="822.0714">dwidenoise</text><text fill="#000000" font-family="Verdana" font-size="14" lengthAdjust="spacing" textLength="74.7373" x="670.59" y="838.3682">mrdegibbs</text><text fill="#000000" font-family="Verdana" font-size="14" lengthAdjust="spacing" textLength="94.5" x="670.59" y="854.6651">dwifslpreproc</text><line style="stroke:#000000;stroke-width:1;" x1="665.59" x2="792.4162" y1="861.9669" y2="861.9669"/></g><!--class NX--><g class="entity" data-qualified-name="External Dependencies.NX" data-source-line="81" id="ent0011"><rect fill="#FFFFFF" height="56.2656" rx="2.5" ry="2.5" style="stroke:#000000;stroke-width:1;" width="96.0449" x="125.98" y="740.3694"/><ellipse cx="138.98" cy="760.5022" fill="#FFFFFF" rx="9" ry="9" style="stroke:#000000;stroke-width:1;"/><path d="M141.9488,766.1428 Q141.3706,766.4397 140.73,766.5803 Q140.0894,766.7366 139.3863,766.7366 Q136.8863,766.7366 135.5581,765.0959 Q134.2456,763.4397 134.2456,760.3147 Q134.2456,757.1897 135.5581,755.5334 Q136.8863,753.8772 139.3863,753.8772 Q140.0894,753.8772 140.73,754.0334 Q141.3863,754.1897 141.9488,754.4866 L141.9488,757.2053 Q141.3238,756.6272 140.73,756.3616 Q140.1363,756.0803 139.5113,756.0803 Q138.1675,756.0803 137.48,757.1584 Q136.7925,758.2209 136.7925,760.3147 Q136.7925,762.4084 137.48,763.4866 Q138.1675,764.5491 139.5113,764.5491 Q140.1363,764.5491 140.73,764.2834 Q141.3238,764.0022 141.9488,763.4241 L141.9488,766.1428 Z " fill="#000000"/><text fill="#000000" font-family="Verdana" font-size="12" font-style="italic" lengthAdjust="spacing" textLength="64.4824" x="152.7613" y="756.508">&#171;external&#187;</text><text fill="#000000" font-family="Verdana" font-size="14" lengthAdjust="spacing" textLength="68.0449" x="150.98" y="772.3332">NetworkX</text><line style="stroke:#000000;stroke-width:1;" x1="126.98" x2="221.0249" y1="780.635" y2="780.635"/><line style="stroke:#000000;stroke-width:1;" x1="126.98" x2="221.0249" y1="788.635" y2="788.635"/></g><!--class GM--><g class="entity" data-qualified-name="External Dependencies.GM" data-source-line="83" id="ent0012"><rect fill="#FFFFFF" height="72.5625" rx="2.5" ry="2.5" style="stroke:#000000;stroke-width:1;" width="168.6494" x="256.68" y="732.2194"/><ellipse cx="269.68" cy="760.5006" fill="#FFFFFF" rx="9" ry="9" style="stroke:#000000;stroke-width:1;"/><path d="M272.6488,766.1413 Q272.0706,766.4381 271.43,766.5788 Q270.7894,766.735 270.0863,766.735 Q267.5863,766.735 266.2581,765.0944 Q264.9456,763.4381 264.9456,760.3131 Q264.9456,757.1881 266.2581,755.5319 Q267.5863,753.8756 270.0863,753.8756 Q270.7894,753.8756 271.43,754.0319 Q272.0863,754.1881 272.6488,754.485 L272.6488,757.2038 Q272.0238,756.6256 271.43,756.36 Q270.8363,756.0788 270.2113,756.0788 Q268.8675,756.0788 268.18,757.1569 Q267.4925,758.2194 267.4925,760.3131 Q267.4925,762.4069 268.18,763.485 Q268.8675,764.5475 270.2113,764.5475 Q270.8363,764.5475 271.43,764.2819 Q272.0238,764.0006 272.6488,763.4225 L272.6488,766.1413 Z " fill="#000000"/><text fill="#000000" font-family="Verdana" font-size="12" font-style="italic" lengthAdjust="spacing" textLength="64.4824" x="319.7635" y="748.358">&#171;external&#187;</text><text fill="#000000" font-family="Verdana" font-size="14" lengthAdjust="spacing" textLength="140.6494" x="281.68" y="764.1832">connectivity_shared</text><text fill="#000000" font-family="Verdana" font-size="14" lengthAdjust="spacing" textLength="93.7617" x="305.1238" y="780.4801">GraphMetrics</text><line style="stroke:#000000;stroke-width:1;" x1="257.68" x2="424.3294" y1="788.7819" y2="788.7819"/><line style="stroke:#000000;stroke-width:1;" x1="257.68" x2="424.3294" y1="796.7819" y2="796.7819"/></g><!--class MIO--><g class="entity" data-qualified-name="External Dependencies.MIO" data-source-line="85" id="ent0013"><rect fill="#FFFFFF" height="72.5625" rx="2.5" ry="2.5" style="stroke:#000000;stroke-width:1;" width="168.6494" x="460.68" y="732.2194"/><ellipse cx="473.68" cy="760.5006" fill="#FFFFFF" rx="9" ry="9" style="stroke:#000000;stroke-width:1;"/><path d="M476.6488,766.1413 Q476.0706,766.4381 475.43,766.5788 Q474.7894,766.735 474.0863,766.735 Q471.5863,766.735 470.2581,765.0944 Q468.9456,763.4381 468.9456,760.3131 Q468.9456,757.1881 470.2581,755.5319 Q471.5863,753.8756 474.0863,753.8756 Q474.7894,753.8756 475.43,754.0319 Q476.0863,754.1881 476.6488,754.485 L476.6488,757.2038 Q476.0238,756.6256 475.43,756.36 Q474.8363,756.0788 474.2113,756.0788 Q472.8675,756.0788 472.18,757.1569 Q471.4925,758.2194 471.4925,760.3131 Q471.4925,762.4069 472.18,763.485 Q472.8675,764.5475 474.2113,764.5475 Q474.8363,764.5475 475.43,764.2819 Q476.0238,764.0006 476.6488,763.4225 L476.6488,766.1413 Z " fill="#000000"/><text fill="#000000" font-family="Verdana" font-size="12" font-style="italic" lengthAdjust="spacing" textLength="64.4824" x="523.7635" y="748.358">&#171;external&#187;</text><text fill="#000000" font-family="Verdana" font-size="14" lengthAdjust="spacing" textLength="140.6494" x="485.68" y="764.1832">connectivity_shared</text><text fill="#000000" font-family="Verdana" font-size="14" lengthAdjust="spacing" textLength="65.0918" x="523.4588" y="780.4801">matrix_io</text><line style="stroke:#000000;stroke-width:1;" x1="461.68" x2="628.3294" y1="788.7819" y2="788.7819"/><line style="stroke:#000000;stroke-width:1;" x1="461.68" x2="628.3294" y1="796.7819" y2="796.7819"/></g><!--class json--><g class="entity" data-qualified-name="Configuration.commands_ms.json" data-source-line="89" id="ent0015"><rect fill="#FFFFFF" height="121.4531" rx="2.5" ry="2.5" style="stroke:#000000;stroke-width:1;" width="188.5586" x="1273.72" y="135.6094"/><ellipse cx="1340.5471" cy="155.7422" fill="#FFFFFF" rx="9" ry="9" style="stroke:#000000;stroke-width:1;"/><path d="M1343.5159,161.3828 Q1342.9378,161.6797 1342.2971,161.8203 Q1341.6565,161.9766 1340.9534,161.9766 Q1338.4534,161.9766 1337.1253,160.3359 Q1335.8128,158.6797 1335.8128,155.5547 Q1335.8128,152.4297 1337.1253,150.7734 Q1338.4534,149.1172 1340.9534,149.1172 Q1341.6565,149.1172 1342.2971,149.2734 Q1342.9534,149.4297 1343.5159,149.7266 L1343.5159,152.4453 Q1342.8909,151.8672 1342.2971,151.6016 Q1341.7034,151.3203 1341.0784,151.3203 Q1339.7346,151.3203 1339.0471,152.3984 Q1338.3596,153.4609 1338.3596,155.5547 Q1338.3596,157.6484 1339.0471,158.7266 Q1339.7346,159.7891 1341.0784,159.7891 Q1341.7034,159.7891 1342.2971,159.5234 Q1342.8909,159.2422 1343.5159,158.6641 L1343.5159,161.3828 Z " fill="#000000"/><text fill="#000000" font-family="Verdana" font-size="12" font-style="italic" lengthAdjust="spacing" textLength="51.4043" x="1356.0471" y="151.748">&#171;config&#187;</text><text fill="#000000" font-family="Verdana" font-size="14" lengthAdjust="spacing" textLength="28.6221" x="1367.4383" y="167.5732">json</text><line style="stroke:#000000;stroke-width:1;" x1="1274.72" x2="1461.2786" y1="175.875" y2="175.875"/><text fill="#000000" font-family="Verdana" font-size="14" lengthAdjust="spacing" textLength="156.7617" x="1279.72" y="192.8701">dwi2response_params</text><text fill="#000000" font-family="Verdana" font-size="14" lengthAdjust="spacing" textLength="115.2471" x="1279.72" y="209.167">dwi2fod_params</text><text fill="#000000" font-family="Verdana" font-size="14" lengthAdjust="spacing" textLength="107.3994" x="1279.72" y="225.4639">tckgen_params</text><text fill="#000000" font-family="Verdana" font-size="14" lengthAdjust="spacing" textLength="176.5586" x="1279.72" y="241.7607">tck2connectome_params</text><line style="stroke:#000000;stroke-width:1;" x1="1274.72" x2="1461.2786" y1="249.0625" y2="249.0625"/></g><!--class json--><g class="entity" data-qualified-name="Configuration.commands_ss.json" data-source-line="96" id="ent0017"><rect fill="#FFFFFF" height="72.5625" rx="2.5" ry="2.5" style="stroke:#000000;stroke-width:1;" width="152.7383" x="1517.63" y="160.0594"/><ellipse cx="1566.547" cy="180.1922" fill="#FFFFFF" rx="9" ry="9" style="stroke:#000000;stroke-width:1;"/><path d="M1569.5157,185.8328 Q1568.9376,186.1297 1568.297,186.2703 Q1567.6564,186.4266 1566.9532,186.4266 Q1564.4532,186.4266 1563.1251,184.7859 Q1561.8126,183.1297 1561.8126,180.0047 Q1561.8126,176.8797 1563.1251,175.2234 Q1564.4532,173.5672 1566.9532,173.5672 Q1567.6564,173.5672 1568.297,173.7234 Q1568.9532,173.8797 1569.5157,174.1766 L1569.5157,176.8953 Q1568.8907,176.3172 1568.297,176.0516 Q1567.7032,175.7703 1567.0782,175.7703 Q1565.7345,175.7703 1565.047,176.8484 Q1564.3595,177.9109 1564.3595,180.0047 Q1564.3595,182.0984 1565.047,183.1766 Q1565.7345,184.2391 1567.0782,184.2391 Q1567.7032,184.2391 1568.297,183.9734 Q1568.8907,183.6922 1569.5157,183.1141 L1569.5157,185.8328 Z " fill="#000000"/><text fill="#000000" font-family="Verdana" font-size="12" font-style="italic" lengthAdjust="spacing" textLength="51.4043" x="1582.047" y="176.198">&#171;config&#187;</text><text fill="#000000" font-family="Verdana" font-size="14" lengthAdjust="spacing" textLength="28.6221" x="1593.4381" y="192.0232">json</text><line style="stroke:#000000;stroke-width:1;" x1="1518.63" x2="1669.3683" y1="200.325" y2="200.325"/><text fill="#000000" font-family="Verdana" font-size="14" lengthAdjust="spacing" textLength="140.7383" x="1523.63" y="217.3201">single_shell_params</text><line style="stroke:#000000;stroke-width:1;" x1="1518.63" x2="1669.3683" y1="224.6219" y2="224.6219"/></g><!--class json--><g class="entity" data-qualified-name="commands_ms.json" data-source-line="105" id="ent0022"><rect fill="#FFFFFF" height="44" rx="2.5" ry="2.5" style="stroke:#000000;stroke-width:1;" width="56.6221" x="1347.69" y="441.5494"/><ellipse cx="1360.69" cy="455.5494" fill="#FFFFFF" rx="9" ry="9" style="stroke:#000000;stroke-width:1;"/><path d="M1363.6588,461.19 Q1363.0806,461.4869 1362.44,461.6275 Q1361.7994,461.7838 1361.0963,461.7838 Q1358.5963,461.7838 1357.2681,460.1431 Q1355.9556,458.4869 1355.9556,455.3619 Q1355.9556,452.2369 1357.2681,450.5806 Q1358.5963,448.9244 1361.0963,448.9244 Q1361.7994,448.9244 1362.44,449.0806 Q1363.0963,449.2369 1363.6588,449.5338 L1363.6588,452.2525 Q1363.0338,451.6744 1362.44,451.4088 Q1361.8463,451.1275 1361.2213,451.1275 Q1359.8775,451.1275 1359.19,452.2056 Q1358.5025,453.2681 1358.5025,455.3619 Q1358.5025,457.4556 1359.19,458.5338 Q1359.8775,459.5963 1361.2213,459.5963 Q1361.8463,459.5963 1362.44,459.3306 Q1363.0338,459.0494 1363.6588,458.4713 L1363.6588,461.19 Z " fill="#000000"/><text fill="#000000" font-family="Verdana" font-size="14" lengthAdjust="spacing" textLength="28.6221" x="1372.69" y="460.3961">json</text><line style="stroke:#000000;stroke-width:1;" x1="1348.69" x2="1403.3121" y1="469.5494" y2="469.5494"/><line style="stroke:#000000;stroke-width:1;" x1="1348.69" x2="1403.3121" y1="477.5494" y2="477.5494"/></g><!--class json--><g class="entity" data-qualified-name="commands_ss.json" data-source-line="106" id="ent0025"><rect fill="#FFFFFF" height="44" rx="2.5" ry="2.5" style="stroke:#000000;stroke-width:1;" width="56.6221" x="1498.69" y="441.5494"/><ellipse cx="1511.69" cy="455.5494" fill="#FFFFFF" rx="9" ry="9" style="stroke:#000000;stroke-width:1;"/><path d="M1514.6588,461.19 Q1514.0806,461.4869 1513.44,461.6275 Q1512.7994,461.7838 1512.0963,461.7838 Q1509.5963,461.7838 1508.2681,460.1431 Q1506.9556,458.4869 1506.9556,455.3619 Q1506.9556,452.2369 1508.2681,450.5806 Q1509.5963,448.9244 1512.0963,448.9244 Q1512.7994,448.9244 1513.44,449.0806 Q1514.0963,449.2369 1514.6588,449.5338 L1514.6588,452.2525 Q1514.0338,451.6744 1513.44,451.4088 Q1512.8463,451.1275 1512.2213,451.1275 Q1510.8775,451.1275 1510.19,452.2056 Q1509.5025,453.2681 1509.5025,455.3619 Q1509.5025,457.4556 1510.19,458.5338 Q1510.8775,459.5963 1512.2213,459.5963 Q1512.8463,459.5963 1513.44,459.3306 Q1514.0338,459.0494 1514.6588,458.4713 L1514.6588,461.19 Z " fill="#000000"/><text fill="#000000" font-family="Verdana" font-size="14" lengthAdjust="spacing" textLength="28.6221" x="1523.69" y="460.3961">json</text><line style="stroke:#000000;stroke-width:1;" x1="1499.69" x2="1554.3121" y1="469.5494" y2="469.5494"/><line style="stroke:#000000;stroke-width:1;" x1="1499.69" x2="1554.3121" y1="477.5494" y2="477.5494"/></g><g class="entity" data-qualified-name="GMN34" data-source-line="118" id="ent0035"><path d="M1623.3,382.8794 L1623.3,544.2075 L1814.7028,544.2075 L1814.7028,392.8794 L1804.7028,382.8794 L1623.3,382.8794" fill="#FFFFFF" style="stroke:#000000;stroke-width:1;"/><path d="M1804.7028,382.8794 L1804.7028,392.8794 L1814.7028,392.8794 L1804.7028,382.8794" fill="#FFFFFF" style="stroke:#000000;stroke-width:1;"/><text fill="#000000" font-family="Verdana" font-size="13" lengthAdjust="spacing" textLength="149.7222" x="1629.3" y="399.9463">Classifies image types:</text><text fill="#000000" font-family="Verdana" font-size="13" lengthAdjust="spacing" textLength="170.4028" x="1629.3" y="415.0791">- DWI (diffusion-weighted)</text><text fill="#000000" font-family="Verdana" font-size="13" lengthAdjust="spacing" textLength="122.167" x="1629.3" y="430.2119">- T1w (anatomical)</text><text fill="#000000" font-family="Verdana" font-size="13" lengthAdjust="spacing" textLength="35.6675" x="1629.3" y="445.3447">- T2w</text><text fill="#000000" font-family="Verdana" font-size="13" lengthAdjust="spacing" textLength="127.5498" x="1629.3" y="460.4775">- Fieldmaps (AP/PA)</text><text fill="#000000" font-family="Verdana" font-size="13" lengthAdjust="spacing" textLength="4.1323" x="1629.3" y="475.6103">&#160;</text><text fill="#000000" font-family="Verdana" font-size="13" lengthAdjust="spacing" textLength="64.5493" x="1629.3" y="490.7431">Validates:</text><text fill="#000000" font-family="Verdana" font-size="13" lengthAdjust="spacing" textLength="102.521" x="1629.3" y="505.876">- bvec/bval files</text><text fill="#000000" font-family="Verdana" font-size="13" lengthAdjust="spacing" textLength="108.0054" x="1629.3" y="521.0088">- JSON metadata</text><text fill="#000000" font-family="Verdana" font-size="13" lengthAdjust="spacing" textLength="130.9014" x="1629.3" y="536.1416">- Shell configuration</text></g><g class="entity" data-qualified-name="GMN37" data-source-line="131" id="ent0038"><path d="M1849.44,398.0194 L1849.44,529.0819 L2056.5596,529.0819 L2056.5596,408.0194 L2046.5596,398.0194 L1849.44,398.0194" fill="#FFFFFF" style="stroke:#000000;stroke-width:1;"/><path d="M2046.5596,398.0194 L2046.5596,408.0194 L2056.5596,408.0194 L2046.5596,398.0194" fill="#FFFFFF" style="stroke:#000000;stroke-width:1;"/><text fill="#000000" font-family="Verdana" font-size="13" lengthAdjust="spacing" textLength="144.4409" x="1855.44" y="415.0863">Connectome Analysis:</text><text fill="#000000" font-family="Verdana" font-size="13" lengthAdjust="spacing" textLength="136.3413" x="1855.44" y="430.2191">- Binary thresholding</text><text fill="#000000" font-family="Verdana" font-size="13" lengthAdjust="spacing" textLength="133.6753" x="1855.44" y="445.3519">- Graph construction</text><text fill="#000000" font-family="Verdana" font-size="13" lengthAdjust="spacing" textLength="125.3281" x="1855.44" y="460.4847">- Centrality metrics</text><text fill="#000000" font-family="Verdana" font-size="13" lengthAdjust="spacing" textLength="131.8345" x="1855.44" y="475.6175">- Clustering analysis</text><text fill="#000000" font-family="Verdana" font-size="13" lengthAdjust="spacing" textLength="4.1323" x="1855.44" y="490.7503">&#160;</text><text fill="#000000" font-family="Verdana" font-size="13" lengthAdjust="spacing" textLength="186.1196" x="1855.44" y="505.8831">Delegates advanced metrics</text><text fill="#000000" font-family="Verdana" font-size="13" lengthAdjust="spacing" textLength="147.7861" x="1855.44" y="521.016">to connectivity_shared</text></g><!--link run_pipeline to ImageTypeChecker--><g class="link" data-entity-1="ent0003" data-entity-2="ent0004" data-link-type="dependency" data-source-line="102" id="lnk19"><path codeLine="102" d="M1018,273.6894 C1011.33,300.4694 1005.1899,325.1872 998.0699,353.7772" fill="none" id="run_pipeline-to-ImageTypeChecker" style="stroke:#000000;stroke-width:1;"/><polygon fill="#000000" points="996.62,359.5994,1002.6764,351.8327,997.8283,354.7476,994.9135,349.8995,996.62,359.5994" style="stroke:#000000;stroke-width:1;"/><text fill="#000000" font-family="Verdana" font-size="13" lengthAdjust="spacing" textLength="29.7832" x="1008.95" y="326.1263">uses</text></g><!--link run_pipeline to NetworkAnalysis--><g class="link" data-entity-1="ent0003" data-entity-2="ent0005" data-link-type="dependency" data-source-line="103" id="lnk20"><path codeLine="103" d="M930.24,273.7394 C908.53,286.1494 885.21,297.4094 862,305.0594 C822.18,318.1894 809.64,308.1494 768,313.0594 C629.17,329.4394 589.49,315.4894 457,360.0594 C450.04,362.3994 448.6136,362.7679 441.6136,365.5579" fill="none" id="run_pipeline-to-NetworkAnalysis" style="stroke:#000000;stroke-width:1;"/><polygon fill="#000000" points="436.04,367.7794,445.8814,368.1629,440.6847,365.9281,442.9194,360.7314,436.04,367.7794" style="stroke:#000000;stroke-width:1;"/><text fill="#000000" font-family="Verdana" font-size="13" lengthAdjust="spacing" textLength="29.7832" x="769" y="326.1263">uses</text></g><!--link run_pipeline to SlurmBatch--><g class="link" data-entity-1="ent0003" data-entity-2="ent0006" data-link-type="dependency" data-source-line="104" id="lnk21"><path codeLine="104" d="M917.18,273.8094 C898.91,284.6794 880.11,295.4194 862,305.0594 C809.86,332.8194 792.09,330.4094 741,360.0594 C735.35,363.3494 734.7275,363.6186 729.0175,367.1886" fill="none" id="run_pipeline-to-SlurmBatch" style="stroke:#000000;stroke-width:1;"/><polygon fill="#000000" points="723.93,370.3694,733.6818,368.9898,728.1696,367.7187,729.4407,362.2065,723.93,370.3694" style="stroke:#000000;stroke-width:1;"/><text fill="#000000" font-family="Verdana" font-size="13" lengthAdjust="spacing" textLength="29.7832" x="845.6" y="326.1263">uses</text></g><!--link run_pipeline to json--><g class="link" data-entity-1="ent0003" data-entity-2="ent0022" data-link-type="dependency" data-source-line="105" id="lnk24"><path codeLine="105" d="M1189.24,273.7494 C1212.13,284.5894 1235.58,295.3494 1258,305.0594 C1267.16,309.0294 1270.77,307.3994 1279,313.0594 C1325.77,345.2494 1353.1329,402.5161 1366.1229,435.5261" fill="none" id="run_pipeline-to-json" style="stroke:#000000;stroke-width:1;stroke-dasharray:7,7;"/><polygon fill="#000000" points="1368.32,441.1094,1368.7465,431.2698,1366.4891,436.4567,1361.3022,434.1992,1368.32,441.1094" style="stroke:#000000;stroke-width:1;"/><text fill="#000000" font-family="Verdana" font-size="13" lengthAdjust="spacing" textLength="34.5566" x="1298.57" y="326.1263">loads</text></g><!--link run_pipeline to json--><g class="link" data-entity-1="ent0003" data-entity-2="ent0025" data-link-type="dependency" data-source-line="106" id="lnk27"><path codeLine="106" d="M1174.9,273.8494 C1201.79,286.0794 1230.27,297.2594 1258,305.0594 C1294.1,315.2194 1306.39,301.3194 1342,313.0594 C1380.44,325.7394 1387.85,335.4694 1420,360.0594 C1452.89,385.2294 1482.6101,414.9174 1503.2001,436.7174" fill="none" id="run_pipeline-to-json-1" style="stroke:#000000;stroke-width:1;stroke-dasharray:7,7;"/><polygon fill="#000000" points="1507.32,441.0794,1504.0482,431.7899,1503.8868,437.4444,1498.2322,437.283,1507.32,441.0794" style="stroke:#000000;stroke-width:1;"/><text fill="#000000" font-family="Verdana" font-size="13" lengthAdjust="spacing" textLength="34.5566" x="1380.47" y="326.1263">loads</text></g><!--link NetworkAnalysis to NX--><g class="link" data-entity-1="ent0005" data-entity-2="ent0011" data-link-type="dependency" data-source-line="108" id="lnk28"><path codeLine="108" d="M239.33,559.1594 C219.68,621.8294 197.0548,693.9741 184.3648,734.4541" fill="none" id="NetworkAnalysis-to-NX" style="stroke:#000000;stroke-width:1;stroke-dasharray:7,7;"/><polygon fill="#000000" points="182.57,740.1794,189.079,732.788,184.0657,735.4083,181.4454,730.3949,182.57,740.1794" style="stroke:#000000;stroke-width:1;"/><text fill="#000000" font-family="Verdana" font-size="13" lengthAdjust="spacing" textLength="29.7832" x="226.77" y="612.0963">uses</text></g><!--link NetworkAnalysis to GM--><g class="link" data-entity-1="ent0005" data-entity-2="ent0012" data-link-type="dependency" data-source-line="109" id="lnk29"><path codeLine="109" d="M291.49,559.1594 C305.43,617.8394 321.1526,684.002 331.1726,726.162" fill="none" id="NetworkAnalysis-to-GM" style="stroke:#000000;stroke-width:1;stroke-dasharray:7,7;"/><polygon fill="#000000" points="332.56,731.9994,334.3706,722.3184,331.4039,727.1349,326.5874,724.1682,332.56,731.9994" style="stroke:#000000;stroke-width:1;"/><text fill="#000000" font-family="Verdana" font-size="13" lengthAdjust="spacing" textLength="81.1294" x="306" y="612.0963">delegates to</text></g><!--link NetworkAnalysis to MIO--><g class="link" data-entity-1="ent0005" data-entity-2="ent0013" data-link-type="dependency" data-source-line="110" id="lnk30"><path codeLine="110" d="M379.18,559.0094 C401.16,579.6294 423.47,601.9194 443,624.0294 C473.35,658.3894 499.8832,696.7067 519.3632,726.7167" fill="none" id="NetworkAnalysis-to-MIO" style="stroke:#000000;stroke-width:1;stroke-dasharray:7,7;"/><polygon fill="#000000" points="522.63,731.7494,521.0849,722.0225,519.9077,727.5555,514.3747,726.3782,522.63,731.7494" style="stroke:#000000;stroke-width:1;"/><text fill="#000000" font-family="Verdana" font-size="13" lengthAdjust="spacing" textLength="29.7832" x="435.51" y="612.0963">uses</text></g><!--link run_pipeline to MRT--><g class="link" data-entity-1="ent0003" data-entity-2="ent0010" data-link-type="dependency" data-source-line="112" id="lnk31"><path codeLine="112" d="M1138.65,273.4994 C1163.81,298.0694 1187.43,327.4794 1201,360.0594 C1240.47,454.8294 1259.51,506.6894 1201,591.0294 C1108,725.0894 905.9842,757.0445 799.8942,764.7545" fill="none" id="run_pipeline-to-MRT" style="stroke:#000000;stroke-width:1;"/><polygon fill="#000000" points="793.91,765.1894,803.1763,768.5265,798.8968,764.827,802.5964,760.5475,793.91,765.1894" style="stroke:#000000;stroke-width:1;"/><text fill="#000000" font-family="Verdana" font-size="13" lengthAdjust="spacing" textLength="58.9443" x="1239.08" y="468.1163">executes</text></g><!--link connectome_aggregator to NetworkAnalysis--><g class="link" data-entity-1="ent0007" data-entity-2="ent0005" data-link-type="dependency" data-source-line="114" id="lnk32"><path codeLine="114" d="M586.1,249.0994 C535.93,282.8694 473.9474,324.589 414.4774,364.619" fill="none" id="connectome_aggregator-to-NetworkAnalysis" style="stroke:#000000;stroke-width:1;stroke-dasharray:7,7;"/><polygon fill="#000000" points="409.5,367.9694,419.1998,366.2621,413.6479,365.1774,414.7326,359.6255,409.5,367.9694" style="stroke:#000000;stroke-width:1;"/><text fill="#000000" font-family="Verdana" font-size="13" lengthAdjust="spacing" textLength="29.7832" x="490.59" y="326.1263">uses</text></g><!--link generate_standardized_report to NetworkAnalysis--><g class="link" data-entity-1="ent0008" data-entity-2="ent0005" data-link-type="dependency" data-source-line="115" id="lnk33"><path codeLine="115" d="M243.25,249.0994 C247.32,282.8694 252.0413,321.9826 256.8713,362.0126" fill="none" id="generate_standardized_report-to-NetworkAnalysis" style="stroke:#000000;stroke-width:1;stroke-dasharray:7,7;"/><polygon fill="#000000" points="257.59,367.9694,260.4831,358.555,256.991,363.0054,252.5407,359.5133,257.59,367.9694" style="stroke:#000000;stroke-width:1;"/><text fill="#000000" font-family="Verdana" font-size="13" lengthAdjust="spacing" textLength="29.7832" x="254" y="326.1263">uses</text></g><!--link ImageTypeChecker to GMN34--><g class="link" data-entity-1="ent0004" data-entity-2="ent0035" data-link-type="association" data-source-line="118" id="lnk36"><path d="M1148.33,359.6894 C1174.17,348.5294 1201,338.9394 1227.5,332.5594 C1297.94,315.6194 1485.08,308.7594 1553.5,332.5594 C1584.13,343.2194 1613.36,362.1594 1638.5,382.3894" fill="none" id="ImageTypeChecker-GMN34" style="stroke:#000000;stroke-width:1;stroke-dasharray:7,7;"/></g><!--link NetworkAnalysis to GMN37--><g class="link" data-entity-1="ent0005" data-entity-2="ent0038" data-link-type="association" data-source-line="131" id="lnk39"><path d="M395.14,367.7594 C420.24,353.2494 447.29,340.4994 474.5,332.5594 C545.97,311.7194 1745.33,305.0394 1814.5,332.5594 C1848.48,346.0894 1878.93,372.3394 1902.57,397.8094" fill="none" id="NetworkAnalysis-GMN37" style="stroke:#000000;stroke-width:1;stroke-dasharray:7,7;"/></g><?plantuml-src bLVVRzis47xtNy5v3rFGEDsoDwC8a3fjaQ59WoJO2hG5GOjdcGb5QZpAYJlqVz-HacLQbZCiUOXz_7Y_x-Fb9x-44bYbXJ8ZV5Ic4awKR2xonyBPsiYPrTQndz-_2xy98jS2yTnxf-QrXylScZlr7TYlev5NNWCh7Hqz_yubbDPm8QKrRC9cuHQxKA8W7QDHHMP40MnyyTSbkr4LQ6LWpFuPZHZzH1Dix6h3g-xipPlIobh3sHd1MFlpgYJtiwCfkxO6jbBo584BLs0y4oKWMKm0sWh9oVM5AhBc3w-4Nn9OgjnlSGY-hhYsHQ5CaM4zVu3SSoK9-964u1ARpkQ0o5jG0ZvcZOazDqE0JRh8bx8KHcPvcSALQNpvaURbigJCtQyhc2qXVmINf6D2HQezbyfDsGt5ipsmjJzmecCS-_5mhepod6UTpcEsrNAq7pX9ALxhrY7d5vJ6B-ZfpaU5_aim-UtRzev2xa33IXZF4VwkmUIGFI0rJ5k6kRLw2u-1gyMQgn1xPjJ2guWyPkabifVSiMO5BZXBkUNUydWhQxxsevacRcvL5E0RYxm4BwJmOiV7tLPP2Qq80bm-AHwngPlp5UJTHw7tmjofy3Nu9-iUputGQrIO5hWKeLscp4ZXd5WdPHHpqDZ6GOdOXZ6XaQkMTENvv4FuD53Ye_vau2fRA0sjbtrZht878L8X7sYgJBxcZLkPNph0fTLoy9BGUQt3lUXGoAbJUPpGtKo6j1ih8KLSK4BV4tKaquDY1TH5M6kFMLlBrk5kp7RIUgThLxuLFb-c6NsmSsv8yMxxJ8X2YC-KDJsvo7DYHz-JvbMDst5jAaNyvzOzd5TzGziYR1pfvZ_DY04NCeUvKvNFMhR0ViyJvvIaYpHb3N9mCfu4OHRMHLom6lbia6l6v8e9KrrIjOl2GI5emW-HyGO16nB4ZWLfo72uZ1GBLIuqXIMgHIyyTN2ekbpiqt4eUMT5TjMNYswQN-o0yJQHNeG6bVHq1JMLTVvGLDsT1hP3x6s77hGU5L2gQJustSm3XMJjbxq8syd2cWhird4GDxby8SGVoOlwxjc38-PW5r21aJIU2d3S1jIcuUeslj5VpQnjf34JoAvkxoa5qDxVIG9nsYabkx86OKUuiBBxxcbr09D-FTssJoSkNSlCgHvoqofCGH8ADPzZ2bgWhgW6zDmCLBRbpCynaklFEu4CTRHQAR_ck1GEv5SJYV6ggKdKyE7gVsfe690hswJoyjFk_RH2ipZUDVKKqKklCfl9vYMUX4O9JTdGmS5wyBYNORyiVN5JdG5fKgJqjCy3hL_uebz8QvAczbs2rhlAIDqlx1Pq31gNgi9HRy6RJCxsTvifgn46eVr7yZ0ouVrXqCd9sL3cfomyXl-1nZvwr7SiuAaXMzD3fzHin0Eq3mLMG-Rj82hqLAjaACemlLC6pv0JcmR80UgExXp8tSlq-CBDaR4Uc5F5qZExs2iZzS2iMU68YrXSgPYdOvpIoOI5Vm9eCLiiQgJcc3n1q0FoA1xU__R4Cc78-LBH2j4AJv_Yt_SAj2n5XImxltbzStuKclRFTXDhjOVLwtLOkbXOQJ3A_hZxTCqsIrsKt8MMRL_UTZH7H9yi1DOFhvU445sNQxQHDiRVAaCyphh5YEOZoYFX17FqCjTvj1R4Cp3UaVj-lNbQ6h6kaQY4BZEnCKe75rtB24chT0uokUKj6o2gBgP_0G00?></g></svg>