<?plantuml 1.2026.1?><svg xmlns="http://www.w3.org/2000/svg" xmlns:xlink="http://www.w3.org/1999/xlink" contentStyleType="text/css" data-diagram-type="CLASS" height="660px" preserveAspectRatio="none" style="width:2749px;height:660px;background:#FEFEFE;" version="1.1" viewBox="0 0 2749 660" width="2749px" zoomAndPan="magnify"><title>connectivity_shared Package - Class Diagram</title><defs/><g><rect fill="#FEFEFE" height="660" style="stroke:none;stroke-width:1;" width="2749" x="0" y="0"/><g class="title" data-source-line="5"><text fill="#000000" font-family="Verdana" font-size="22" font-weight="bold" lengthAdjust="spacing" textLength="562.0205" x="1089.3633" y="35.4209">connectivity_shared Package - Class Diagram</text></g><!--cluster connectivity_shared--><g class="cluster" data-qualified-name="connectivity_shared" data-source-line="7" id="ent0002"><path d="M13.5,99.4594 L172.5469,99.4594 A3.75,3.75 0 0 1 175.0469,101.9594 L182.0469,121.7562 L2227.5,121.7562 A2.5,2.5 0 0 1 2230,124.2562 L2230,651.1594 A2.5,2.5 0 0 1 2227.5,653.6594 L13.5,653.6594 A2.5,2.5 0 0 1 11,651.1594 L11,101.9594 A2.5,2.5 0 0 1 13.5,99.4594" fill="#FFFFFF" style="stroke:#000000;stroke-width:1;"/><line style="stroke:#000000;stroke-width:1;" x1="11" x2="182.0469" y1="121.7562" y2="121.7562"/><text fill="#000000" font-family="Verdana" font-size="14" font-weight="bold" lengthAdjust="spacing" textLength="158.0469" x="15" y="114.4545">connectivity_shared</text></g><!--class GraphMetrics--><g class="entity" data-qualified-name="connectivity_shared.GraphMetrics" data-source-line="9" id="ent0003"><rect fill="#FFFFFF" height="239.5625" rx="2.5" ry="2.5" style="stroke:#000000;stroke-width:1;" width="635.0547" x="514.47" y="134.4594"/><ellipse cx="781.3665" cy="148.4594" fill="#FFFFFF" rx="9" ry="9" style="stroke:#000000;stroke-width:1;"/><path d="M784.3352,154.1 Q783.7571,154.3969 783.1165,154.5375 Q782.4759,154.6937 781.7727,154.6937 Q779.2727,154.6937 777.9446,153.0531 Q776.6321,151.3969 776.6321,148.2719 Q776.6321,145.1469 777.9446,143.4906 Q779.2727,141.8344 781.7727,141.8344 Q782.4759,141.8344 783.1165,141.9906 Q783.7727,142.1469 784.3352,142.4437 L784.3352,145.1625 Q783.7102,144.5844 783.1165,144.3187 Q782.5227,144.0375 781.8977,144.0375 Q780.554,144.0375 779.8665,145.1156 Q779.179,146.1781 779.179,148.2719 Q779.179,150.3656 779.8665,151.4437 Q780.554,152.5062 781.8977,152.5062 Q782.5227,152.5062 783.1165,152.2406 Q783.7102,151.9594 784.3352,151.3812 L784.3352,154.1 Z " fill="#000000"/><text fill="#000000" font-family="Verdana" font-size="14" lengthAdjust="spacing" textLength="93.7617" x="798.8665" y="153.3061">GraphMetrics</text><line style="stroke:#000000;stroke-width:1;" x1="515.47" x2="1148.5247" y1="162.4594" y2="162.4594"/><text fill="#000000" font-family="Verdana" font-size="14" lengthAdjust="spacing" textLength="173.79" x="520.47" y="179.4545">-n_random_networks: int</text><text fill="#000000" font-family="Verdana" font-size="14" lengthAdjust="spacing" textLength="135.9941" x="520.47" y="195.7514">-seed: Optional[int]</text><text fill="#000000" font-family="Verdana" font-size="14" lengthAdjust="spacing" textLength="196.7861" x="520.47" y="212.0482">-_rng: np.random.Generator</text><line style="stroke:#000000;stroke-width:1;" x1="515.47" x2="1148.5247" y1="219.35" y2="219.35"/><text fill="#000000" font-family="Verdana" font-size="14" lengthAdjust="spacing" textLength="256.4229" x="520.47" y="236.3451">+__init__(n_random_networks, seed)</text><text fill="#000000" font-family="Verdana" font-size="14" lengthAdjust="spacing" textLength="623.0547" x="520.47" y="252.642">+compute_all(matrix, labels, modality, atlas, subject_id, session_id): GraphMetricsResult</text><text fill="#000000" font-family="Verdana" font-size="14" lengthAdjust="spacing" textLength="219.2148" x="520.47" y="268.9389">-_basic_metrics(G, matrix): dict</text><text fill="#000000" font-family="Verdana" font-size="14" lengthAdjust="spacing" textLength="252.1299" x="520.47" y="285.2357">-_clustering_metrics(G, matrix): dict</text><text fill="#000000" font-family="Verdana" font-size="14" lengthAdjust="spacing" textLength="195.7471" x="520.47" y="301.5326">-_efficiency_metrics(G): dict</text><text fill="#000000" font-family="Verdana" font-size="14" lengthAdjust="spacing" textLength="265.7061" x="520.47" y="317.8295">-_small_world_metrics(G, matrix): dict</text><text fill="#000000" font-family="Verdana" font-size="14" lengthAdjust="spacing" textLength="244.002" x="520.47" y="334.1264">-_topology_metrics(G, matrix): dict</text><text fill="#000000" font-family="Verdana" font-size="14" lengthAdjust="spacing" textLength="271.7148" x="520.47" y="350.4232">-_nodal_metrics(G, matrix, labels): dict</text><text fill="#000000" font-family="Verdana" font-size="14" lengthAdjust="spacing" textLength="457.3857" x="520.47" y="366.7201">+nodal_metrics_to_dataframe(nodal_metrics, labels): DataFrame</text></g><!--class GraphMetricsResult--><g class="entity" data-qualified-name="connectivity_shared.GraphMetricsResult" data-source-line="24" id="ent0004"><rect fill="#FFFFFF" height="154.0469" rx="2.5" ry="2.5" style="stroke:#000000;stroke-width:1;" width="356.5928" x="26.7" y="467.3194"/><ellipse cx="132.4222" cy="487.4522" fill="#FFFFFF" rx="9" ry="9" style="stroke:#000000;stroke-width:1;"/><path d="M135.3909,493.0928 Q134.8128,493.3897 134.1722,493.5303 Q133.5315,493.6866 132.8284,493.6866 Q130.3284,493.6866 129.0003,492.0459 Q127.6878,490.3897 127.6878,487.2647 Q127.6878,484.1397 129.0003,482.4834 Q130.3284,480.8272 132.8284,480.8272 Q133.5315,480.8272 134.1722,480.9834 Q134.8284,481.1397 135.3909,481.4366 L135.3909,484.1553 Q134.7659,483.5772 134.1722,483.3116 Q133.5784,483.0303 132.9534,483.0303 Q131.6097,483.0303 130.9222,484.1084 Q130.2347,485.1709 130.2347,487.2647 Q130.2347,489.3584 130.9222,490.4366 Q131.6097,491.4991 132.9534,491.4991 Q133.5784,491.4991 134.1722,491.2334 Q134.7659,490.9522 135.3909,490.3741 L135.3909,493.0928 Z " fill="#000000"/><text fill="#000000" font-family="Verdana" font-size="12" font-style="italic" lengthAdjust="spacing" textLength="71.502" x="182.9954" y="483.458">&#171;dataclass&#187;</text><text fill="#000000" font-family="Verdana" font-size="14" lengthAdjust="spacing" textLength="137.6484" x="149.9222" y="499.2832">GraphMetricsResult</text><line style="stroke:#000000;stroke-width:1;" x1="27.7" x2="382.2928" y1="507.585" y2="507.585"/><text fill="#000000" font-family="Verdana" font-size="14" lengthAdjust="spacing" textLength="344.5928" x="32.7" y="524.5801">+global_metrics: Dict[str, Union[int, float, None]]</text><text fill="#000000" font-family="Verdana" font-size="14" lengthAdjust="spacing" textLength="262.2129" x="32.7" y="540.877">+nodal_metrics: Dict[str, np.ndarray]</text><text fill="#000000" font-family="Verdana" font-size="14" lengthAdjust="spacing" textLength="181.7061" x="32.7" y="557.1739">+metadata: Dict[str, Any]</text><text fill="#000000" font-family="Verdana" font-size="14" lengthAdjust="spacing" textLength="138.4346" x="32.7" y="573.4707">+warnings: List[str]</text><line style="stroke:#000000;stroke-width:1;" x1="27.7" x2="382.2928" y1="580.7725" y2="580.7725"/><text fill="#000000" font-family="Verdana" font-size="14" lengthAdjust="spacing" textLength="104.8018" x="32.7" y="597.7676">+to_dict(): dict</text><text fill="#000000" font-family="Verdana" font-size="14" lengthAdjust="spacing" textLength="211.7227" x="32.7" y="614.0645">+to_json(filepath: Path): None</text></g><!--class FreeSurferDetector--><g class="entity" data-qualified-name="connectivity_shared.FreeSurferDetector" data-source-line="33" id="ent0005"><rect fill="#FFFFFF" height="174.375" rx="2.5" ry="2.5" style="stroke:#000000;stroke-width:1;" width="512.999" x="1234.5" y="167.0494"/><ellipse cx="1419.8232" cy="181.0494" fill="#FFFFFF" rx="9" ry="9" style="stroke:#000000;stroke-width:1;"/><path d="M1422.792,186.69 Q1422.2139,186.9869 1421.5732,187.1275 Q1420.9326,187.2837 1420.2295,187.2837 Q1417.7295,187.2837 1416.4014,185.6431 Q1415.0889,183.9869 1415.0889,180.8619 Q1415.0889,177.7369 1416.4014,176.0806 Q1417.7295,174.4244 1420.2295,174.4244 Q1420.9326,174.4244 1421.5732,174.5806 Q1422.2295,174.7369 1422.792,175.0337 L1422.792,177.7525 Q1422.167,177.1744 1421.5732,176.9087 Q1420.9795,176.6275 1420.3545,176.6275 Q1419.0107,176.6275 1418.3232,177.7056 Q1417.6357,178.7681 1417.6357,180.8619 Q1417.6357,182.9556 1418.3232,184.0337 Q1419.0107,185.0962 1420.3545,185.0962 Q1420.9795,185.0962 1421.5732,184.8306 Q1422.167,184.5494 1422.792,183.9712 L1422.792,186.69 Z " fill="#000000"/><text fill="#000000" font-family="Verdana" font-size="14" lengthAdjust="spacing" textLength="134.8525" x="1437.3232" y="185.8961">FreeSurferDetector</text><line style="stroke:#000000;stroke-width:1;" x1="1235.5" x2="1746.499" y1="195.0494" y2="195.0494"/><text fill="#000000" font-family="Verdana" font-size="14" lengthAdjust="spacing" text-decoration="underline" textLength="186.5186" x="1240.5" y="212.0445">+VERSIONS: Dict[str, Dict]</text><text fill="#000000" font-family="Verdana" font-size="14" lengthAdjust="spacing" text-decoration="underline" textLength="167.3096" x="1240.5" y="228.3414">+FS_FILES: Dict[str, str]</text><text fill="#000000" font-family="Verdana" font-size="14" lengthAdjust="spacing" text-decoration="underline" textLength="221.04" x="1240.5" y="244.6382">+ATLAS_MAPPING: Dict[str, str]</text><line style="stroke:#000000;stroke-width:1;" x1="1235.5" x2="1746.499" y1="251.94" y2="251.94"/><text fill="#000000" font-family="Verdana" font-size="14" lengthAdjust="spacing" textLength="426.5898" x="1240.5" y="268.9351">+detect(subject_path, subject_name, is_nhp): FreeSurferInfo</text><text fill="#000000" font-family="Verdana" font-size="14" lengthAdjust="spacing" textLength="455.6426" x="1240.5" y="285.232">-_detect_by_version(subject_path, subject_name): FreeSurferInfo</text><text fill="#000000" font-family="Verdana" font-size="14" lengthAdjust="spacing" textLength="462.9502" x="1240.5" y="301.5289">-_detect_bids_recons(subject_path, subject_name): FreeSurferInfo</text><text fill="#000000" font-family="Verdana" font-size="14" lengthAdjust="spacing" textLength="500.999" x="1240.5" y="317.8257">-_validate_and_build_info(fs_dir, version, subject_name): FreeSurferInfo</text><text fill="#000000" font-family="Verdana" font-size="14" lengthAdjust="spacing" textLength="409.2539" x="1240.5" y="334.1226">+get_parcellation_file(fs_info, atlas_name): Optional[Path]</text></g><!--class FreeSurferInfo--><g class="entity" data-qualified-name="connectivity_shared.FreeSurferInfo" data-source-line="44" id="ent0006"><rect fill="#FFFFFF" height="154.0469" rx="2.5" ry="2.5" style="stroke:#000000;stroke-width:1;" width="206.7627" x="1486.62" y="467.3194"/><ellipse cx="1536.079" cy="487.4522" fill="#FFFFFF" rx="9" ry="9" style="stroke:#000000;stroke-width:1;"/><path d="M1539.0477,493.0928 Q1538.4696,493.3897 1537.829,493.5303 Q1537.1884,493.6866 1536.4852,493.6866 Q1533.9852,493.6866 1532.6571,492.0459 Q1531.3446,490.3897 1531.3446,487.2647 Q1531.3446,484.1397 1532.6571,482.4834 Q1533.9852,480.8272 1536.4852,480.8272 Q1537.1884,480.8272 1537.829,480.9834 Q1538.4852,481.1397 1539.0477,481.4366 L1539.0477,484.1553 Q1538.4227,483.5772 1537.829,483.3116 Q1537.2352,483.0303 1536.6102,483.0303 Q1535.2665,483.0303 1534.579,484.1084 Q1533.8915,485.1709 1533.8915,487.2647 Q1533.8915,489.3584 1534.579,490.4366 Q1535.2665,491.4991 1536.6102,491.4991 Q1537.2352,491.4991 1537.829,491.2334 Q1538.4227,490.9522 1539.0477,490.3741 L1539.0477,493.0928 Z " fill="#000000"/><text fill="#000000" font-family="Verdana" font-size="12" font-style="italic" lengthAdjust="spacing" textLength="71.502" x="1568.0004" y="483.458">&#171;dataclass&#187;</text><text fill="#000000" font-family="Verdana" font-size="14" lengthAdjust="spacing" textLength="100.3447" x="1553.579" y="499.2832">FreeSurferInfo</text><line style="stroke:#000000;stroke-width:1;" x1="1487.62" x2="1692.3827" y1="507.585" y2="507.585"/><text fill="#000000" font-family="Verdana" font-size="14" lengthAdjust="spacing" textLength="90.9316" x="1492.62" y="524.5801">+found: bool</text><text fill="#000000" font-family="Verdana" font-size="14" lengthAdjust="spacing" textLength="160.8291" x="1492.62" y="540.877">+version: Optional[str]</text><text fill="#000000" font-family="Verdana" font-size="14" lengthAdjust="spacing" textLength="154.2256" x="1492.62" y="557.1739">+path: Optional[Path]</text><text fill="#000000" font-family="Verdana" font-size="14" lengthAdjust="spacing" textLength="194.7627" x="1492.62" y="573.4707">+available_atlases: List[str]</text><text fill="#000000" font-family="Verdana" font-size="14" lengthAdjust="spacing" textLength="147.1162" x="1492.62" y="589.7676">+files: Dict[str, Path]</text><text fill="#000000" font-family="Verdana" font-size="14" lengthAdjust="spacing" textLength="165.8604" x="1492.62" y="606.0645">+warning: Optional[str]</text><line style="stroke:#000000;stroke-width:1;" x1="1487.62" x2="1692.3827" y1="613.3662" y2="613.3662"/></g><!--class HTMLReportGenerator--><g class="entity" data-qualified-name="connectivity_shared.HTMLReportGenerator" data-source-line="53" id="ent0007"><rect fill="#FFFFFF" height="158.0781" rx="2.5" ry="2.5" style="stroke:#000000;stroke-width:1;" width="428.1104" x="1782.94" y="175.1994"/><ellipse cx="1914.7003" cy="189.1994" fill="#FFFFFF" rx="9" ry="9" style="stroke:#000000;stroke-width:1;"/><path d="M1917.669,194.84 Q1917.0909,195.1369 1916.4503,195.2775 Q1915.8096,195.4337 1915.1065,195.4337 Q1912.6065,195.4337 1911.2784,193.7931 Q1909.9659,192.1369 1909.9659,189.0119 Q1909.9659,185.8869 1911.2784,184.2306 Q1912.6065,182.5744 1915.1065,182.5744 Q1915.8096,182.5744 1916.4503,182.7306 Q1917.1065,182.8869 1917.669,183.1837 L1917.669,185.9025 Q1917.044,185.3244 1916.4503,185.0587 Q1915.8565,184.7775 1915.2315,184.7775 Q1913.8878,184.7775 1913.2003,185.8556 Q1912.5128,186.9181 1912.5128,189.0119 Q1912.5128,191.1056 1913.2003,192.1837 Q1913.8878,193.2462 1915.2315,193.2462 Q1915.8565,193.2462 1916.4503,192.9806 Q1917.044,192.6994 1917.669,192.1212 L1917.669,194.84 Z " fill="#000000"/><text fill="#000000" font-family="Verdana" font-size="14" lengthAdjust="spacing" textLength="157.0898" x="1932.2003" y="194.0461">HTMLReportGenerator</text><line style="stroke:#000000;stroke-width:1;" x1="1783.94" x2="2210.0504" y1="203.1994" y2="203.1994"/><text fill="#000000" font-family="Verdana" font-size="14" lengthAdjust="spacing" textLength="117.3115" x="1788.94" y="220.1945">-output_dir: Path</text><text fill="#000000" font-family="Verdana" font-size="14" lengthAdjust="spacing" textLength="95.9561" x="1788.94" y="236.4914">-template: str</text><line style="stroke:#000000;stroke-width:1;" x1="1783.94" x2="2210.0504" y1="243.7931" y2="243.7931"/><text fill="#000000" font-family="Verdana" font-size="14" lengthAdjust="spacing" textLength="144.5049" x="1788.94" y="260.7882">+__init__(output_dir)</text><text fill="#000000" font-family="Verdana" font-size="14" lengthAdjust="spacing" textLength="416.1104" x="1788.94" y="277.0851">+generate_report(metrics, visualizations, output_file): Path</text><text fill="#000000" font-family="Verdana" font-size="14" lengthAdjust="spacing" textLength="234.9717" x="1788.94" y="293.382">-_encode_image(image_path): str</text><text fill="#000000" font-family="Verdana" font-size="14" lengthAdjust="spacing" textLength="251.3916" x="1788.94" y="309.6789">-_render_metrics_table(metrics): str</text><text fill="#000000" font-family="Verdana" font-size="14" lengthAdjust="spacing" textLength="143.3906" x="1788.94" y="325.9757">-_generate_css(): str</text></g><!--class QCVisualizer--><g class="entity" data-qualified-name="connectivity_shared.QCVisualizer" data-source-line="63" id="ent0008"><rect fill="#FFFFFF" height="158.0781" rx="2.5" ry="2.5" style="stroke:#000000;stroke-width:1;" width="486.0176" x="1727.99" y="465.2994"/><ellipse cx="1922.9963" cy="479.2994" fill="#FFFFFF" rx="9" ry="9" style="stroke:#000000;stroke-width:1;"/><path d="M1925.9651,484.94 Q1925.387,485.2369 1924.7463,485.3775 Q1924.1057,485.5337 1923.4026,485.5337 Q1920.9026,485.5337 1919.5745,483.8931 Q1918.262,482.2369 1918.262,479.1119 Q1918.262,475.9869 1919.5745,474.3306 Q1920.9026,472.6744 1923.4026,472.6744 Q1924.1057,472.6744 1924.7463,472.8306 Q1925.4026,472.9869 1925.9651,473.2837 L1925.9651,476.0025 Q1925.3401,475.4244 1924.7463,475.1587 Q1924.1526,474.8775 1923.5276,474.8775 Q1922.1838,474.8775 1921.4963,475.9556 Q1920.8088,477.0181 1920.8088,479.1119 Q1920.8088,481.2056 1921.4963,482.2837 Q1922.1838,483.3462 1923.5276,483.3462 Q1924.1526,483.3462 1924.7463,483.0806 Q1925.3401,482.7994 1925.9651,482.2212 L1925.9651,484.94 Z " fill="#000000"/><text fill="#000000" font-family="Verdana" font-size="14" lengthAdjust="spacing" textLength="88.5049" x="1940.4963" y="484.1461">QCVisualizer</text><line style="stroke:#000000;stroke-width:1;" x1="1728.99" x2="2213.0076" y1="493.2994" y2="493.2994"/><text fill="#000000" font-family="Verdana" font-size="14" lengthAdjust="spacing" textLength="117.3115" x="1733.99" y="510.2945">-output_dir: Path</text><text fill="#000000" font-family="Verdana" font-size="14" lengthAdjust="spacing" textLength="54.1338" x="1733.99" y="526.5914">-dpi: int</text><line style="stroke:#000000;stroke-width:1;" x1="1728.99" x2="2213.0076" y1="533.8931" y2="533.8931"/><text fill="#000000" font-family="Verdana" font-size="14" lengthAdjust="spacing" textLength="175.0684" x="1733.99" y="550.8882">+__init__(output_dir, dpi)</text><text fill="#000000" font-family="Verdana" font-size="14" lengthAdjust="spacing" textLength="395.6436" x="1733.99" y="567.1851">+create_atlas_overlay(underlay, atlas, output_file): Path</text><text fill="#000000" font-family="Verdana" font-size="14" lengthAdjust="spacing" textLength="449.3467" x="1733.99" y="583.482">+create_connectivity_heatmap(matrix, labels, output_file): Path</text><text fill="#000000" font-family="Verdana" font-size="14" lengthAdjust="spacing" textLength="474.0176" x="1733.99" y="599.7789">+create_network_graph(matrix, labels, output_file, threshold): Path</text><text fill="#000000" font-family="Verdana" font-size="14" lengthAdjust="spacing" textLength="363.2617" x="1733.99" y="616.0757">+create_summary_figure(images, output_file): Path</text></g><!--class matrix_io--><g class="entity" data-qualified-name="connectivity_shared.matrix_io" data-source-line="73" id="ent0009"><rect fill="#FFFFFF" height="137.75" rx="2.5" ry="2.5" style="stroke:#000000;stroke-width:1;" width="528.9951" x="418.5" y="475.4594"/><ellipse cx="646.7017" cy="495.5922" fill="#FFFFFF" rx="9" ry="9" style="stroke:#000000;stroke-width:1;"/><path d="M649.6704,501.2328 Q649.0923,501.5297 648.4517,501.6703 Q647.811,501.8266 647.1079,501.8266 Q644.6079,501.8266 643.2798,500.1859 Q641.9673,498.5297 641.9673,495.4047 Q641.9673,492.2797 643.2798,490.6234 Q644.6079,488.9672 647.1079,488.9672 Q647.811,488.9672 648.4517,489.1234 Q649.1079,489.2797 649.6704,489.5766 L649.6704,492.2953 Q649.0454,491.7172 648.4517,491.4516 Q647.8579,491.1703 647.2329,491.1703 Q645.8892,491.1703 645.2017,492.2484 Q644.5142,493.3109 644.5142,495.4047 Q644.5142,497.4984 645.2017,498.5766 Q645.8892,499.6391 647.2329,499.6391 Q647.8579,499.6391 648.4517,499.3734 Q649.0454,499.0922 649.6704,498.5141 L649.6704,501.2328 Z " fill="#000000"/><text fill="#000000" font-family="Verdana" font-size="12" font-style="italic" lengthAdjust="spacing" textLength="59.6543" x="666.9204" y="491.598">&#171;module&#187;</text><text fill="#000000" font-family="Verdana" font-size="14" lengthAdjust="spacing" textLength="65.0918" x="664.2017" y="507.4232">matrix_io</text><line style="stroke:#000000;stroke-width:1;" x1="419.5" x2="946.4951" y1="515.725" y2="515.725"/><line style="stroke:#000000;stroke-width:1;" x1="419.5" x2="946.4951" y1="523.725" y2="523.725"/><text fill="#000000" font-family="Verdana" font-size="14" lengthAdjust="spacing" textLength="505.8389" x="424.5" y="540.7201">+load_connectivity_matrix(filepath, labels_file): Tuple[ndarray, List[str]]</text><text fill="#000000" font-family="Verdana" font-size="14" lengthAdjust="spacing" textLength="516.9951" x="424.5" y="557.017">+save_connectivity_matrix(matrix, labels, filepath, modality, atlas): None</text><text fill="#000000" font-family="Verdana" font-size="14" lengthAdjust="spacing" textLength="402.6367" x="424.5" y="573.3139">+convert_legacy_csv(input_file, output_file, labels): None</text><text fill="#000000" font-family="Verdana" font-size="14" lengthAdjust="spacing" textLength="328.7881" x="424.5" y="589.6107">+validate_matrix(matrix): Tuple[bool, List[str]]</text><text fill="#000000" font-family="Verdana" font-size="14" lengthAdjust="spacing" textLength="220.1924" x="424.5" y="605.9076">+get_matrix_stats(matrix): dict</text></g><!--class atlas_labels--><g class="entity" data-qualified-name="connectivity_shared.atlas_labels" data-source-line="81" id="ent0010"><rect fill="#FFFFFF" height="186.6406" rx="2.5" ry="2.5" style="stroke:#000000;stroke-width:1;" width="468.3262" x="982.84" y="451.0194"/><ellipse cx="1172.2614" cy="471.1522" fill="#FFFFFF" rx="9" ry="9" style="stroke:#000000;stroke-width:1;"/><path d="M1175.2301,476.7928 Q1174.652,477.0897 1174.0114,477.2303 Q1173.3708,477.3866 1172.6676,477.3866 Q1170.1676,477.3866 1168.8395,475.7459 Q1167.527,474.0897 1167.527,470.9647 Q1167.527,467.8397 1168.8395,466.1834 Q1170.1676,464.5272 1172.6676,464.5272 Q1173.3708,464.5272 1174.0114,464.6834 Q1174.6676,464.8397 1175.2301,465.1366 L1175.2301,467.8553 Q1174.6051,467.2772 1174.0114,467.0116 Q1173.4176,466.7303 1172.7926,466.7303 Q1171.4489,466.7303 1170.7614,467.8084 Q1170.0739,468.8709 1170.0739,470.9647 Q1170.0739,473.0584 1170.7614,474.1366 Q1171.4489,475.1991 1172.7926,475.1991 Q1173.4176,475.1991 1174.0114,474.9334 Q1174.6051,474.6522 1175.2301,474.0741 L1175.2301,476.7928 Z " fill="#000000"/><text fill="#000000" font-family="Verdana" font-size="12" font-style="italic" lengthAdjust="spacing" textLength="59.6543" x="1200.9259" y="467.158">&#171;module&#187;</text><text fill="#000000" font-family="Verdana" font-size="14" lengthAdjust="spacing" textLength="81.9834" x="1189.7614" y="482.9832">atlas_labels</text><line style="stroke:#000000;stroke-width:1;" x1="983.84" x2="1450.1662" y1="491.285" y2="491.285"/><text fill="#000000" font-family="Verdana" font-size="14" lengthAdjust="spacing" text-decoration="underline" textLength="237.6719" x="988.84" y="508.2801">+BRAINNETOME_LABELS: List[str]</text><text fill="#000000" font-family="Verdana" font-size="14" lengthAdjust="spacing" text-decoration="underline" textLength="252.2666" x="988.84" y="524.577">+FREESURFER_DK_LABELS: List[str]</text><line style="stroke:#000000;stroke-width:1;" x1="983.84" x2="1450.1662" y1="531.8788" y2="531.8788"/><text fill="#000000" font-family="Verdana" font-size="14" lengthAdjust="spacing" textLength="278.2637" x="988.84" y="548.8739">+get_atlas_labels(atlas_name): List[str]</text><text fill="#000000" font-family="Verdana" font-size="14" lengthAdjust="spacing" textLength="235.3955" x="988.84" y="565.1707">+get_atlas_info(atlas_name): dict</text><text fill="#000000" font-family="Verdana" font-size="14" lengthAdjust="spacing" textLength="280.793" x="988.84" y="581.4676">+save_labels_file(labels, filepath): None</text><text fill="#000000" font-family="Verdana" font-size="14" lengthAdjust="spacing" textLength="245.3008" x="988.84" y="597.7645">+load_labels_file(filepath): List[str]</text><text fill="#000000" font-family="Verdana" font-size="14" lengthAdjust="spacing" textLength="334.8994" x="988.84" y="614.0614">+verify_labels_consistency(matrix, labels): bool</text><text fill="#000000" font-family="Verdana" font-size="14" lengthAdjust="spacing" textLength="456.3262" x="988.84" y="630.3582">+generate_canonical_labels_file(atlas_name, output_path): None</text></g><g class="entity" data-qualified-name="GMN16" data-source-line="100" id="ent0017"><path d="M2245.84,188.7094 L2245.84,319.7719 L2512.1515,319.7719 L2512.1515,198.7094 L2502.1515,188.7094 L2245.84,188.7094" fill="#FFFFFF" style="stroke:#000000;stroke-width:1;"/><path d="M2502.1515,188.7094 L2502.1515,198.7094 L2512.1515,198.7094 L2502.1515,188.7094" fill="#FFFFFF" style="stroke:#000000;stroke-width:1;"/><text fill="#000000" font-family="Verdana" font-size="13" lengthAdjust="spacing" textLength="198.5483" x="2251.84" y="205.7763">Computes 27+ global metrics:</text><text fill="#000000" font-family="Verdana" font-size="13" lengthAdjust="spacing" textLength="245.3115" x="2251.84" y="220.9091">- connectivity (nodes, edges, density)</text><text fill="#000000" font-family="Verdana" font-size="13" lengthAdjust="spacing" textLength="192.9814" x="2251.84" y="236.0419">- clustering (binary/weighted)</text><text fill="#000000" font-family="Verdana" font-size="13" lengthAdjust="spacing" textLength="160.0181" x="2251.84" y="251.1747">- efficiency (global/local)</text><text fill="#000000" font-family="Verdana" font-size="13" lengthAdjust="spacing" textLength="190.5757" x="2251.84" y="266.3075">- small-world (sigma, omega)</text><text fill="#000000" font-family="Verdana" font-size="13" lengthAdjust="spacing" textLength="214.8491" x="2251.84" y="281.4403">- topology (modularity, rich-club)</text><text fill="#000000" font-family="Verdana" font-size="13" lengthAdjust="spacing" textLength="4.1323" x="2251.84" y="296.5731">&#160;</text><text fill="#000000" font-family="Verdana" font-size="13" lengthAdjust="spacing" textLength="184.7485" x="2251.84" y="311.706">Plus 6 nodal metrics per ROI</text></g><g class="entity" data-qualified-name="GMN19" data-source-line="111" id="ent0020"><path d="M2547.25,181.1394 L2547.25,327.3347 L2742.7471,327.3347 L2742.7471,191.1394 L2732.7471,181.1394 L2547.25,181.1394" fill="#FFFFFF" style="stroke:#000000;stroke-width:1;"/><path d="M2732.7471,181.1394 L2732.7471,191.1394 L2742.7471,191.1394 L2732.7471,181.1394" fill="#FFFFFF" style="stroke:#000000;stroke-width:1;"/><text fill="#000000" font-family="Verdana" font-size="13" lengthAdjust="spacing" textLength="121.0625" x="2553.25" y="198.2063">Supports versions:</text><text fill="#000000" font-family="Verdana" font-size="13" lengthAdjust="spacing" textLength="93.1138" x="2553.25" y="213.3391">- freesurfer7.x</text><text fill="#000000" font-family="Verdana" font-size="13" lengthAdjust="spacing" textLength="93.6914" x="2553.25" y="228.4719">- freesurfer8.0</text><text fill="#000000" font-family="Verdana" font-size="13" lengthAdjust="spacing" textLength="150.6362" x="2553.25" y="243.6047">- freesurfer5.3 (legacy)</text><text fill="#000000" font-family="Verdana" font-size="13" lengthAdjust="spacing" textLength="4.1323" x="2553.25" y="258.7375">&#160;</text><text fill="#000000" font-family="Verdana" font-size="13" lengthAdjust="spacing" textLength="167.6289" x="2553.25" y="273.8703">Detects available atlases:</text><text fill="#000000" font-family="Verdana" font-size="13" lengthAdjust="spacing" textLength="78.311" x="2553.25" y="289.0031">- aparc (DK)</text><text fill="#000000" font-family="Verdana" font-size="13" lengthAdjust="spacing" textLength="174.4971" x="2553.25" y="304.136">- aparc.a2009s (Destrieux)</text><text fill="#000000" font-family="Verdana" font-size="13" lengthAdjust="spacing" textLength="107.5229" x="2553.25" y="319.2688">- aparc.DKTatlas</text></g><!--link GraphMetrics to GraphMetricsResult--><g class="link" data-entity-1="ent0003" data-entity-2="ent0004" data-link-type="dependency" data-source-line="92" id="lnk11"><path codeLine="92" d="M567.91,374.5094 C512.69,399.6394 454.89,426.0894 401,451.0194 C389.91,456.1494 383.9073,458.9326 372.3973,464.3026" fill="none" id="GraphMetrics-to-GraphMetricsResult" style="stroke:#000000;stroke-width:1;"/><polygon fill="#000000" points="366.96,466.8394,376.8072,466.6591,371.4911,464.7254,373.4248,459.4093,366.96,466.8394" style="stroke:#000000;stroke-width:1;"/><text fill="#000000" font-family="Verdana" font-size="13" lengthAdjust="spacing" textLength="48.3247" x="496.24" y="417.0863">creates</text></g><!--link FreeSurferDetector to FreeSurferInfo--><g class="link" data-entity-1="ent0005" data-entity-2="ent0006" data-link-type="dependency" data-source-line="93" id="lnk12"><path codeLine="93" d="M1520.7,341.6794 C1534.43,381.6194 1548.6402,422.965 1561.9002,461.555" fill="none" id="FreeSurferDetector-to-FreeSurferInfo" style="stroke:#000000;stroke-width:1;"/><polygon fill="#000000" points="1563.85,467.2294,1564.7082,457.418,1562.2252,462.5007,1557.1424,460.0177,1563.85,467.2294" style="stroke:#000000;stroke-width:1;"/><text fill="#000000" font-family="Verdana" font-size="13" lengthAdjust="spacing" textLength="48.3247" x="1547.43" y="417.0863">creates</text></g><!--link HTMLReportGenerator to QCVisualizer--><g class="link" data-entity-1="ent0007" data-entity-2="ent0008" data-link-type="dependency" data-source-line="94" id="lnk13"><path codeLine="94" d="M1989.93,333.5794 C1986.25,374.4094 1982.2887,418.2136 1978.6087,459.0336" fill="none" id="HTMLReportGenerator-to-QCVisualizer" style="stroke:#000000;stroke-width:1;stroke-dasharray:7,7;"/><polygon fill="#000000" points="1978.07,465.0094,1982.8619,456.4049,1978.5189,460.0296,1974.8942,455.6866,1978.07,465.0094" style="stroke:#000000;stroke-width:1;"/><text fill="#000000" font-family="Verdana" font-size="13" lengthAdjust="spacing" textLength="83.5669" x="1984.22" y="417.0863">uses outputs</text></g><!--link GraphMetrics to matrix_io--><g class="link" data-entity-1="ent0003" data-entity-2="ent0009" data-link-type="dependency" data-source-line="95" id="lnk14"><path codeLine="95" d="M770.32,374.4994 C752.55,408.8694 736.526,439.8398 720.956,469.9498" fill="none" id="GraphMetrics-to-matrix_io" style="stroke:#000000;stroke-width:1;stroke-dasharray:7,7;"/><polygon fill="#000000" points="718.2,475.2794,725.887,469.1223,720.4966,470.838,718.7809,465.4477,718.2,475.2794" style="stroke:#000000;stroke-width:1;"/><text fill="#000000" font-family="Verdana" font-size="13" lengthAdjust="spacing" textLength="29.7832" x="754.03" y="417.0863">uses</text></g><!--link GraphMetrics to atlas_labels--><g class="link" data-entity-1="ent0003" data-entity-2="ent0010" data-link-type="dependency" data-source-line="96" id="lnk15"><path codeLine="96" d="M991.37,374.4994 C1025.3,399.8894 1055.8366,422.7339 1088.2066,446.9639" fill="none" id="GraphMetrics-to-atlas_labels" style="stroke:#000000;stroke-width:1;stroke-dasharray:7,7;"/><polygon fill="#000000" points="1093.01,450.5594,1088.2019,441.9639,1089.0072,447.5631,1083.4079,448.3684,1093.01,450.5594" style="stroke:#000000;stroke-width:1;"/><text fill="#000000" font-family="Verdana" font-size="13" lengthAdjust="spacing" textLength="29.7832" x="1048.55" y="417.0863">uses</text></g><!--link GraphMetrics to GMN16--><g class="link" data-entity-1="ent0003" data-entity-2="ent0017" data-link-type="association" data-source-line="100" id="lnk18"><path d="M1060.08,133.9794 C1115.67,110.2094 1176.01,88.7994 1234.5,76.4594 C1287.66,65.2394 2161.54,57.6094 2212.5,76.4594 C2267.23,96.6994 2311.34,146.7794 2340.37,188.6494" fill="none" id="GraphMetrics-GMN16" style="stroke:#000000;stroke-width:1;stroke-dasharray:7,7;"/></g><!--link FreeSurferDetector to GMN19--><g class="link" data-entity-1="ent0005" data-entity-2="ent0020" data-link-type="association" data-source-line="111" id="lnk21"><path d="M1601.89,166.7494 C1653.66,131.3294 1718.01,94.5694 1782.5,76.4594 C1821.54,65.4894 2474.46,62.3894 2512.5,76.4594 C2559.79,93.9494 2593.38,140.0994 2614.91,180.9894" fill="none" id="FreeSurferDetector-GMN19" style="stroke:#000000;stroke-width:1;stroke-dasharray:7,7;"/></g><?plantuml-src dLTRRnev57xdLtYpBuC2DEggsrrKHQ89oQBcjf3s9OeiCsC6jnvxP7jeQDN_liUUcmr3X3QH4fZpdVjrVZDhcb6KSy94JtzZ8YUAP6X9uc-faeL8BYIN2lr-DRM_7YBcHEk9COej2qDdiHGBzeEYirxFCCCfWWU2nePjcDbYlIQA9kW1f9AKeY6wiDpeaf4KPFLwUKKuwU0wGJzxFGG_JYEwLYHVtrBG6skWeEfdAB0Y8f4P5jHyb-gR7YCcJ4lNb2PZT9yR9WNXJq1xRebOYNICH3ugPOokgQ2A6AaQo2d6J323SRIdQ82ix7uBZMMMGqmmuJpA25ZwCa2SB2a7Q2OJmi6v0I86_07UOlaLFCOiiNAq1lFWStySE3gdkk2UCtX9D8jnLbAZQv3hz01Rmc8V6FD26wgOI8z1qzMAnOoAUDkYzr4w0yym-CwJOuGQcKCDfTjZiCA6PnzOns-NuJJ0WoQS44DMK5Cq2aYUW4j0N5c4a_BhK6sL8KSVFbY9Zdn-xjNRQShbifKFOi6k9stK07qMa4DRO0EqufB0lpifwFFp0QjzLgX0aH2boDP30uvO8tpWHFY8xqG9o328kc7Q8JoY3GhmHNkn0y9NBKMqOfpcnAp7q9zc3J1hxdvmhXIbYqAjgBga1YeMfe8NZf_Q4CFYN-ZBTBwOtTyjV6ljf-SExDK2NyrkfW4sDBw1JXvl9WjyEtbucDrT7yOdphIeRYhhLjjY0f8-G4nZiSx1pTQXcLX9hmXB8NYvnHkgR4E-8kyOEIpHM54ORVf_2jh0o80AW8aY4hmi6FGT0qIqqf1QY45bvh42JrDgBL0nvPpOUOXj2LXfLcercMePpSIqnV7yMbbO7OVxPMMNoHWjfUJjmyfmJqkOph8iEqnmLB8X3DgQGroinRIx_grlGPFjIAcQfyk6mD5_7czlvZINoZJRmTy_iZ0mz6q-oZvgAOPci5uD7TjQxLWeBMVVJv7JGQ5mhCgecMCRfWieXnykSV2zuhPUzdSrOvZaCg6OPR1S8_VNLLu_D0NM7nK9LUqSjK6jLUw16zDYhIEF6aJhtuilbQ7qo30bEGjNTbU41WXW_gfLrFM5grW9vSJ9DYgiC_2XsR6lnAYM41mUQtYKaNnlUHyXfpeAS6fNoMi21iYi5TLhoPD3idIHPKHj0PuMgihVOIk2y9-KcZ6J9z2IS7GKd8Rz29if2RqkMPfrK5jTAteiSawVglKqQ3lDQoLDDhHJvcuSMXqxzv2_VQfRIa1M3UOq9N2Ln7eJmGNQn308QBFYGn7Dz0oCQJoo4wdR7JicgpZQDQIZ_Qib37fPXgKPX-BURBIFyydixcxwU7yxnJUJZzERHUVuQfVbV3fTV9vVJUVuyjDh7DPitv8ecEUlChYj4i33ay4bs2kBQ3UXUy5tPUPpUCWEKo3NRBMj6UpA18ozHwEzGp3S9ErG8a8A5iDzvMjjVMfg9ky-TeBtY-7mlEie7AEoGxNZw3YCBD_EOWnvkfR9Q7GUZiqnAc2fLVRgVUiiWz_e9Vu0BgpD2We-2saeKYnT6oHN0Hy8kYZVP3Hw-_uKbHSlgizM80-3jpnaJsuxe6ZYvbH28Njcso-1pNi8YfPCm5XxyvrQhUMRqn2rhnueAZMzuHBIM5BTAyVGlNAWIBCq8v3736P2IQvVCL3aMeueDr70pFKG52_xDhKFO07w4xdRktO2vH3c-Vsi1_iFsKZincC_jo1fKUGsSxg-kwfOh02h7VRzw6NdoL-ZivqdxqP_eAYSQiwyKhv6pL63wgF6CH9xhw7eybE__JeYRy_E_jRmb48NCLgy-CJBJuzEGkFRVm00?></g></svg>