<?plantuml 1.2026.1?><svg xmlns="http://www.w3.org/2000/svg" xmlns:xlink="http://www.w3.org/1999/xlink" contentStyleType="text/css" data-diagram-type="CLASS" height="1833px" preserveAspectRatio="none" style="width:1632px;height:1833px;background:#FEFEFE;" version="1.1" viewBox="0 0 1632 1833" width="1632px" zoomAndPan="magnify"><title>nilearn_RSB_analysis_pipeline - Class Diagram</title><defs/><g><rect fill="#FEFEFE" height="1833" style="stroke:none;stroke-width:1;" width="1632" x="0" y="0"/><g class="title" data-source-line="5"><text fill="#000000" font-family="Verdana" font-size="22" font-weight="bold" lengthAdjust="spacing" textLength="572.0107" x="525.8862" y="35.4209">nilearn_RSB_analysis_pipeline - Class Diagram</text></g><!--cluster Pipeline Orchestration--><g class="cluster" data-qualified-name="Pipeline Orchestration" data-source-line="7" id="ent0002"><path d="M862.5,57.6094 L1041.0293,57.6094 A3.75,3.75 0 0 1 1043.5293,60.1094 L1050.5293,79.9063 L1287.5,79.9063 A2.5,2.5 0 0 1 1290,82.4063 L1290,378.2594 A2.5,2.5 0 0 1 1287.5,380.7594 L862.5,380.7594 A2.5,2.5 0 0 1 860,378.2594 L860,60.1094 A2.5,2.5 0 0 1 862.5,57.6094" fill="#FFFFFF" style="stroke:#000000;stroke-width:1;"/><line style="stroke:#000000;stroke-width:1;" x1="860" x2="1050.5293" y1="79.9063" y2="79.9063"/><text fill="#000000" font-family="Verdana" font-size="14" font-weight="bold" lengthAdjust="spacing" textLength="177.5293" x="864" y="72.6045">Pipeline Orchestration</text></g><!--cluster Processing Steps--><g class="cluster" data-qualified-name="Processing Steps" data-source-line="27" id="ent0004"><path d="M378.5,429.7594 L515.0293,429.7594 A3.75,3.75 0 0 1 517.5293,432.2594 L524.5293,452.0563 L1540.5,452.0563 A2.5,2.5 0 0 1 1543,454.5563 L1543,1651.2194 A2.5,2.5 0 0 1 1540.5,1653.7194 L378.5,1653.7194 A2.5,2.5 0 0 1 376,1651.2194 L376,432.2594 A2.5,2.5 0 0 1 378.5,429.7594" fill="#FFFFFF" style="stroke:#000000;stroke-width:1;"/><line style="stroke:#000000;stroke-width:1;" x1="376" x2="524.5293" y1="452.0563" y2="452.0563"/><text fill="#000000" font-family="Verdana" font-size="14" font-weight="bold" lengthAdjust="spacing" textLength="135.5293" x="380" y="444.7545">Processing Steps</text></g><!--cluster External Dependencies--><g class="cluster" data-qualified-name="External Dependencies" data-source-line="103" id="ent0010"><path d="M13.5,1702.7194 L196.2813,1702.7194 A3.75,3.75 0 0 1 198.7813,1705.2194 L205.7813,1725.0163 L1171.5,1725.0163 A2.5,2.5 0 0 1 1174,1727.5163 L1174,1823.7794 A2.5,2.5 0 0 1 1171.5,1826.2794 L13.5,1826.2794 A2.5,2.5 0 0 1 11,1823.7794 L11,1705.2194 A2.5,2.5 0 0 1 13.5,1702.7194" fill="#FFFFFF" style="stroke:#000000;stroke-width:1;"/><line style="stroke:#000000;stroke-width:1;" x1="11" x2="205.7813" y1="1725.0163" y2="1725.0163"/><text fill="#000000" font-family="Verdana" font-size="14" font-weight="bold" lengthAdjust="spacing" textLength="181.7813" x="15" y="1717.7145">External Dependencies</text></g><!--class RSBoldPipeline--><g class="entity" data-qualified-name="Pipeline Orchestration.RSBoldPipeline" data-source-line="9" id="ent0003"><rect fill="#FFFFFF" height="272.1563" rx="2.5" ry="2.5" style="stroke:#000000;stroke-width:1;" width="397.54" x="876.23" y="92.6094"/><ellipse cx="1018.9209" cy="106.6094" fill="#FFFFFF" rx="9" ry="9" style="stroke:#000000;stroke-width:1;"/><path d="M1021.8897,112.25 Q1021.3115,112.5469 1020.6709,112.6875 Q1020.0303,112.8438 1019.3272,112.8438 Q1016.8272,112.8438 1015.499,111.2031 Q1014.1865,109.5469 1014.1865,106.4219 Q1014.1865,103.2969 1015.499,101.6406 Q1016.8272,99.9844 1019.3272,99.9844 Q1020.0303,99.9844 1020.6709,100.1406 Q1021.3272,100.2969 1021.8897,100.5938 L1021.8897,103.3125 Q1021.2647,102.7344 1020.6709,102.4688 Q1020.0772,102.1875 1019.4522,102.1875 Q1018.1084,102.1875 1017.4209,103.2656 Q1016.7334,104.3281 1016.7334,106.4219 Q1016.7334,108.5156 1017.4209,109.5938 Q1018.1084,110.6563 1019.4522,110.6563 Q1020.0772,110.6563 1020.6709,110.3906 Q1021.2647,110.1094 1021.8897,109.5313 L1021.8897,112.25 Z " fill="#000000"/><text fill="#000000" font-family="Verdana" font-size="14" lengthAdjust="spacing" textLength="104.6582" x="1036.4209" y="111.4561">RSBoldPipeline</text><line style="stroke:#000000;stroke-width:1;" x1="877.23" x2="1272.77" y1="120.6094" y2="120.6094"/><text fill="#000000" font-family="Verdana" font-size="14" lengthAdjust="spacing" textLength="83.0225" x="882.23" y="137.6045">-config: dict</text><text fill="#000000" font-family="Verdana" font-size="14" lengthAdjust="spacing" textLength="103.2773" x="882.23" y="153.9014">-subject_id: str</text><text fill="#000000" font-family="Verdana" font-size="14" lengthAdjust="spacing" textLength="104.3574" x="882.23" y="170.1982">-session_id: str</text><text fill="#000000" font-family="Verdana" font-size="14" lengthAdjust="spacing" textLength="97.5557" x="882.23" y="186.4951">-dry_run: bool</text><text fill="#000000" font-family="Verdana" font-size="14" lengthAdjust="spacing" textLength="147.3896" x="882.23" y="202.792">-job_ids: Dict[str, str]</text><text fill="#000000" font-family="Verdana" font-size="14" lengthAdjust="spacing" textLength="107.3242" x="882.23" y="219.0889">-logger: Logger</text><line style="stroke:#000000;stroke-width:1;" x1="877.23" x2="1272.77" y1="226.3906" y2="226.3906"/><text fill="#000000" font-family="Verdana" font-size="14" lengthAdjust="spacing" textLength="376.7148" x="882.23" y="243.3857">+__init__(config_path, subject_id, session_id, dry_run)</text><text fill="#000000" font-family="Verdana" font-size="14" lengthAdjust="spacing" textLength="137.5459" x="882.23" y="259.6826">+load_config(): dict</text><text fill="#000000" font-family="Verdana" font-size="14" lengthAdjust="spacing" textLength="166.3799" x="882.23" y="275.9795">+setup_logging(): None</text><text fill="#000000" font-family="Verdana" font-size="14" lengthAdjust="spacing" textLength="194.5439" x="882.23" y="292.2764">+create_directories(): None</text><text fill="#000000" font-family="Verdana" font-size="14" lengthAdjust="spacing" textLength="254.6523" x="882.23" y="308.5732">+check_fmriprep_derivatives(): bool</text><text fill="#000000" font-family="Verdana" font-size="14" lengthAdjust="spacing" textLength="385.54" x="882.23" y="324.8701">+check_for_existing_recons(): Optional[FreeSurferInfo]</text><text fill="#000000" font-family="Verdana" font-size="14" lengthAdjust="spacing" textLength="382.5732" x="882.23" y="341.167">+submit_slurm_job(script, job_name, depends_on): str</text><text fill="#000000" font-family="Verdana" font-size="14" lengthAdjust="spacing" textLength="296.8369" x="882.23" y="357.4639">+run_pipeline(start_step, end_step): None</text></g><!--class SignalDenoiser--><g class="entity" data-qualified-name="Processing Steps.SignalDenoiser" data-source-line="29" id="ent0005"><rect fill="#FFFFFF" height="255.8594" rx="2.5" ry="2.5" style="stroke:#000000;stroke-width:1;" width="474.5127" x="391.74" y="464.7594"/><ellipse cx="572.5515" cy="478.7594" fill="#FFFFFF" rx="9" ry="9" style="stroke:#000000;stroke-width:1;"/><path d="M575.5203,484.4 Q574.9421,484.6969 574.3015,484.8375 Q573.6609,484.9938 572.9578,484.9938 Q570.4578,484.9938 569.1296,483.3531 Q567.8171,481.6969 567.8171,478.5719 Q567.8171,475.4469 569.1296,473.7906 Q570.4578,472.1344 572.9578,472.1344 Q573.6609,472.1344 574.3015,472.2906 Q574.9578,472.4469 575.5203,472.7438 L575.5203,475.4625 Q574.8953,474.8844 574.3015,474.6188 Q573.7078,474.3375 573.0828,474.3375 Q571.739,474.3375 571.0515,475.4156 Q570.364,476.4781 570.364,478.5719 Q570.364,480.6656 571.0515,481.7438 Q571.739,482.8063 573.0828,482.8063 Q573.7078,482.8063 574.3015,482.5406 Q574.8953,482.2594 575.5203,481.6813 L575.5203,484.4 Z " fill="#000000"/><text fill="#000000" font-family="Verdana" font-size="14" lengthAdjust="spacing" textLength="105.3896" x="590.0515" y="483.6061">SignalDenoiser</text><line style="stroke:#000000;stroke-width:1;" x1="392.74" x2="865.2527" y1="492.7594" y2="492.7594"/><text fill="#000000" font-family="Verdana" font-size="14" lengthAdjust="spacing" textLength="83.0225" x="397.74" y="509.7545">-config: dict</text><text fill="#000000" font-family="Verdana" font-size="14" lengthAdjust="spacing" textLength="103.2773" x="397.74" y="526.0514">-subject_id: str</text><text fill="#000000" font-family="Verdana" font-size="14" lengthAdjust="spacing" textLength="104.3574" x="397.74" y="542.3482">-session_id: str</text><text fill="#000000" font-family="Verdana" font-size="14" lengthAdjust="spacing" textLength="107.3242" x="397.74" y="558.6451">-logger: Logger</text><line style="stroke:#000000;stroke-width:1;" x1="392.74" x2="865.2527" y1="565.9469" y2="565.9469"/><text fill="#000000" font-family="Verdana" font-size="14" lengthAdjust="spacing" textLength="275.5566" x="397.74" y="582.942">+__init__(config, subject_id, session_id)</text><text fill="#000000" font-family="Verdana" font-size="14" lengthAdjust="spacing" textLength="282.7754" x="397.74" y="599.2389">+find_fmriprep_files(): Tuple[Path, Path]</text><text fill="#000000" font-family="Verdana" font-size="14" lengthAdjust="spacing" textLength="219.3652" x="397.74" y="615.5357">+load_confounds(): DataFrame</text><text fill="#000000" font-family="Verdana" font-size="14" lengthAdjust="spacing" textLength="265.3027" x="397.74" y="631.8326">+select_confounds(strategy): List[str]</text><text fill="#000000" font-family="Verdana" font-size="14" lengthAdjust="spacing" textLength="361.4912" x="397.74" y="648.1295">+denoise_signal(bold_img, confounds): Nifti1Image</text><text fill="#000000" font-family="Verdana" font-size="14" lengthAdjust="spacing" textLength="462.5127" x="397.74" y="664.4264">+apply_bandpass_filter(img, high_pass, low_pass, tr): Nifti1Image</text><text fill="#000000" font-family="Verdana" font-size="14" lengthAdjust="spacing" textLength="458.3701" x="397.74" y="680.7232">+motion_scrubbing(confounds, fd_thresh, dvars_thresh): ndarray</text><text fill="#000000" font-family="Verdana" font-size="14" lengthAdjust="spacing" textLength="307.0498" x="397.74" y="697.0201">+apply_smoothing(img, fwhm): Nifti1Image</text><text fill="#000000" font-family="Verdana" font-size="14" lengthAdjust="spacing" textLength="86.707" x="397.74" y="713.317">+run(): Path</text></g><!--class ROIExtractor--><g class="entity" data-qualified-name="Processing Steps.ROIExtractor" data-source-line="45" id="ent0006"><rect fill="#FFFFFF" height="255.8594" rx="2.5" ry="2.5" style="stroke:#000000;stroke-width:1;" width="490.3516" x="391.82" y="797.6194"/><ellipse cx="588.5763" cy="811.6194" fill="#FFFFFF" rx="9" ry="9" style="stroke:#000000;stroke-width:1;"/><path d="M591.5451,817.26 Q590.967,817.5569 590.3263,817.6975 Q589.6857,817.8538 588.9826,817.8538 Q586.4826,817.8538 585.1545,816.2131 Q583.842,814.5569 583.842,811.4319 Q583.842,808.3069 585.1545,806.6506 Q586.4826,804.9944 588.9826,804.9944 Q589.6857,804.9944 590.3263,805.1506 Q590.9826,805.3069 591.5451,805.6038 L591.5451,808.3225 Q590.9201,807.7444 590.3263,807.4788 Q589.7326,807.1975 589.1076,807.1975 Q587.7638,807.1975 587.0763,808.2756 Q586.3888,809.3381 586.3888,811.4319 Q586.3888,813.5256 587.0763,814.6038 Q587.7638,815.6663 589.1076,815.6663 Q589.7326,815.6663 590.3263,815.4006 Q590.9201,815.1194 591.5451,814.5413 L591.5451,817.26 Z " fill="#000000"/><text fill="#000000" font-family="Verdana" font-size="14" lengthAdjust="spacing" textLength="89.3389" x="606.0763" y="816.4661">ROIExtractor</text><line style="stroke:#000000;stroke-width:1;" x1="392.82" x2="881.1716" y1="825.6194" y2="825.6194"/><text fill="#000000" font-family="Verdana" font-size="14" lengthAdjust="spacing" textLength="83.0225" x="397.82" y="842.6145">-config: dict</text><text fill="#000000" font-family="Verdana" font-size="14" lengthAdjust="spacing" textLength="103.2773" x="397.82" y="858.9114">-subject_id: str</text><text fill="#000000" font-family="Verdana" font-size="14" lengthAdjust="spacing" textLength="104.3574" x="397.82" y="875.2082">-session_id: str</text><text fill="#000000" font-family="Verdana" font-size="14" lengthAdjust="spacing" textLength="107.3242" x="397.82" y="891.5051">-logger: Logger</text><line style="stroke:#000000;stroke-width:1;" x1="392.82" x2="881.1716" y1="898.8069" y2="898.8069"/><text fill="#000000" font-family="Verdana" font-size="14" lengthAdjust="spacing" textLength="275.5566" x="397.82" y="915.802">+__init__(config, subject_id, session_id)</text><text fill="#000000" font-family="Verdana" font-size="14" lengthAdjust="spacing" textLength="476.3965" x="397.82" y="932.0989">+load_atlas_with_template_matching(): Tuple[Nifti1Image, List[str]]</text><text fill="#000000" font-family="Verdana" font-size="14" lengthAdjust="spacing" textLength="478.3516" x="397.82" y="948.3957">+load_schaefer_atlas(n_rois, networks): Tuple[Nifti1Image, List[str]]</text><text fill="#000000" font-family="Verdana" font-size="14" lengthAdjust="spacing" textLength="369.2705" x="397.82" y="964.6926">+load_destrieux_atlas(): Tuple[Nifti1Image, List[str]]</text><text fill="#000000" font-family="Verdana" font-size="14" lengthAdjust="spacing" textLength="386.9551" x="397.82" y="980.9895">+load_custom_atlas(path): Tuple[Nifti1Image, List[str]]</text><text fill="#000000" font-family="Verdana" font-size="14" lengthAdjust="spacing" textLength="279.8018" x="397.82" y="997.2864">+validate_atlas_space(atlas, bold): bool</text><text fill="#000000" font-family="Verdana" font-size="14" lengthAdjust="spacing" textLength="350.5879" x="397.82" y="1013.5832">+resample_atlas_to_bold(atlas, bold): Nifti1Image</text><text fill="#000000" font-family="Verdana" font-size="14" lengthAdjust="spacing" textLength="364.7588" x="397.82" y="1029.8801">+extract_roi_timeseries(bold, atlas, labels): ndarray</text><text fill="#000000" font-family="Verdana" font-size="14" lengthAdjust="spacing" textLength="176.7295" x="397.82" y="1046.177">+run(): Tuple[Path, Path]</text></g><!--class ConnectivityComputer--><g class="entity" data-qualified-name="Processing Steps.ConnectivityComputer" data-source-line="61" id="ent0007"><rect fill="#FFFFFF" height="206.9688" rx="2.5" ry="2.5" style="stroke:#000000;stroke-width:1;" width="412.374" x="430.81" y="1130.4794"/><ellipse cx="554.5859" cy="1144.4794" fill="#FFFFFF" rx="9" ry="9" style="stroke:#000000;stroke-width:1;"/><path d="M557.5546,1150.12 Q556.9765,1150.4169 556.3359,1150.5575 Q555.6953,1150.7138 554.9921,1150.7138 Q552.4921,1150.7138 551.164,1149.0731 Q549.8515,1147.4169 549.8515,1144.2919 Q549.8515,1141.1669 551.164,1139.5106 Q552.4921,1137.8544 554.9921,1137.8544 Q555.6953,1137.8544 556.3359,1138.0106 Q556.9921,1138.1669 557.5546,1138.4638 L557.5546,1141.1825 Q556.9296,1140.6044 556.3359,1140.3388 Q555.7421,1140.0575 555.1171,1140.0575 Q553.7734,1140.0575 553.0859,1141.1356 Q552.3984,1142.1981 552.3984,1144.2919 Q552.3984,1146.3856 553.0859,1147.4638 Q553.7734,1148.5263 555.1171,1148.5263 Q555.7421,1148.5263 556.3359,1148.2606 Q556.9296,1147.9794 557.5546,1147.4013 L557.5546,1150.12 Z " fill="#000000"/><text fill="#000000" font-family="Verdana" font-size="14" lengthAdjust="spacing" textLength="157.3223" x="572.0859" y="1149.3261">ConnectivityComputer</text><line style="stroke:#000000;stroke-width:1;" x1="431.81" x2="842.184" y1="1158.4794" y2="1158.4794"/><text fill="#000000" font-family="Verdana" font-size="14" lengthAdjust="spacing" textLength="83.0225" x="436.81" y="1175.4745">-config: dict</text><text fill="#000000" font-family="Verdana" font-size="14" lengthAdjust="spacing" textLength="103.2773" x="436.81" y="1191.7714">-subject_id: str</text><text fill="#000000" font-family="Verdana" font-size="14" lengthAdjust="spacing" textLength="104.3574" x="436.81" y="1208.0682">-session_id: str</text><text fill="#000000" font-family="Verdana" font-size="14" lengthAdjust="spacing" textLength="107.3242" x="436.81" y="1224.3651">-logger: Logger</text><line style="stroke:#000000;stroke-width:1;" x1="431.81" x2="842.184" y1="1231.6669" y2="1231.6669"/><text fill="#000000" font-family="Verdana" font-size="14" lengthAdjust="spacing" textLength="275.5566" x="436.81" y="1248.662">+__init__(config, subject_id, session_id)</text><text fill="#000000" font-family="Verdana" font-size="14" lengthAdjust="spacing" textLength="334.332" x="436.81" y="1264.9589">+load_roi_timeseries(): Tuple[ndarray, List[str]]</text><text fill="#000000" font-family="Verdana" font-size="14" lengthAdjust="spacing" textLength="377.002" x="436.81" y="1281.2557">+compute_connectivity(timeseries, method): ndarray</text><text fill="#000000" font-family="Verdana" font-size="14" lengthAdjust="spacing" textLength="307.2822" x="436.81" y="1297.5526">+apply_fisher_z_transform(matrix): ndarray</text><text fill="#000000" font-family="Verdana" font-size="14" lengthAdjust="spacing" textLength="400.374" x="436.81" y="1313.8495">+threshold_network(matrix, method, threshold): ndarray</text><text fill="#000000" font-family="Verdana" font-size="14" lengthAdjust="spacing" textLength="86.707" x="436.81" y="1330.1464">+run(): Path</text></g><!--class GraphAnalyzer--><g class="entity" data-qualified-name="Processing Steps.GraphAnalyzer" data-source-line="74" id="ent0008"><rect fill="#FFFFFF" height="223.2656" rx="2.5" ry="2.5" style="stroke:#000000;stroke-width:1;" width="446.2803" x="391.86" y="1414.4494"/><ellipse cx="559.3175" cy="1428.4494" fill="#FFFFFF" rx="9" ry="9" style="stroke:#000000;stroke-width:1;"/><path d="M562.2863,1434.09 Q561.7081,1434.3869 561.0675,1434.5275 Q560.4269,1434.6838 559.7238,1434.6838 Q557.2238,1434.6838 555.8956,1433.0431 Q554.5831,1431.3869 554.5831,1428.2619 Q554.5831,1425.1369 555.8956,1423.4806 Q557.2238,1421.8244 559.7238,1421.8244 Q560.4269,1421.8244 561.0675,1421.9806 Q561.7238,1422.1369 562.2863,1422.4338 L562.2863,1425.1525 Q561.6613,1424.5744 561.0675,1424.3088 Q560.4738,1424.0275 559.8488,1424.0275 Q558.505,1424.0275 557.8175,1425.1056 Q557.13,1426.1681 557.13,1428.2619 Q557.13,1430.3556 557.8175,1431.4338 Q558.505,1432.4963 559.8488,1432.4963 Q560.4738,1432.4963 561.0675,1432.2306 Q561.6613,1431.9494 562.2863,1431.3713 L562.2863,1434.09 Z " fill="#000000"/><text fill="#000000" font-family="Verdana" font-size="14" lengthAdjust="spacing" textLength="103.8652" x="576.8175" y="1433.2961">GraphAnalyzer</text><line style="stroke:#000000;stroke-width:1;" x1="392.86" x2="837.1403" y1="1442.4494" y2="1442.4494"/><text fill="#000000" font-family="Verdana" font-size="14" lengthAdjust="spacing" textLength="83.0225" x="397.86" y="1459.4445">-config: dict</text><text fill="#000000" font-family="Verdana" font-size="14" lengthAdjust="spacing" textLength="103.2773" x="397.86" y="1475.7414">-subject_id: str</text><text fill="#000000" font-family="Verdana" font-size="14" lengthAdjust="spacing" textLength="104.3574" x="397.86" y="1492.0382">-session_id: str</text><text fill="#000000" font-family="Verdana" font-size="14" lengthAdjust="spacing" textLength="208.3389" x="397.86" y="1508.3351">-graph_metrics: GraphMetrics</text><text fill="#000000" font-family="Verdana" font-size="14" lengthAdjust="spacing" textLength="107.3242" x="397.86" y="1524.632">-logger: Logger</text><line style="stroke:#000000;stroke-width:1;" x1="392.86" x2="837.1403" y1="1531.9338" y2="1531.9338"/><text fill="#000000" font-family="Verdana" font-size="14" lengthAdjust="spacing" textLength="275.5566" x="397.86" y="1548.9289">+__init__(config, subject_id, session_id)</text><text fill="#000000" font-family="Verdana" font-size="14" lengthAdjust="spacing" textLength="360.2129" x="397.86" y="1565.2257">+load_connectivity_data(): Tuple[ndarray, List[str]]</text><text fill="#000000" font-family="Verdana" font-size="14" lengthAdjust="spacing" textLength="434.2803" x="397.86" y="1581.5226">+compute_graph_metrics(matrix, labels): GraphMetricsResult</text><text fill="#000000" font-family="Verdana" font-size="14" lengthAdjust="spacing" textLength="283.1445" x="397.86" y="1597.8195">+save_results(results, output_dir): None</text><text fill="#000000" font-family="Verdana" font-size="14" lengthAdjust="spacing" textLength="310.9736" x="397.86" y="1614.1164">+generate_visualizations(results): List[Path]</text><text fill="#000000" font-family="Verdana" font-size="14" lengthAdjust="spacing" textLength="86.707" x="397.86" y="1630.4132">+run(): Path</text></g><!--class ROIVisualizer--><g class="entity" data-qualified-name="Processing Steps.ROIVisualizer" data-source-line="88" id="ent0009"><rect fill="#FFFFFF" height="223.2656" rx="2.5" ry="2.5" style="stroke:#000000;stroke-width:1;" width="653.5938" x="873.2" y="1414.4494"/><ellipse cx="1149.9539" cy="1428.4494" fill="#FFFFFF" rx="9" ry="9" style="stroke:#000000;stroke-width:1;"/><path d="M1152.9227,1434.09 Q1152.3445,1434.3869 1151.7039,1434.5275 Q1151.0633,1434.6838 1150.3602,1434.6838 Q1147.8602,1434.6838 1146.532,1433.0431 Q1145.2195,1431.3869 1145.2195,1428.2619 Q1145.2195,1425.1369 1146.532,1423.4806 Q1147.8602,1421.8244 1150.3602,1421.8244 Q1151.0633,1421.8244 1151.7039,1421.9806 Q1152.3602,1422.1369 1152.9227,1422.4338 L1152.9227,1425.1525 Q1152.2977,1424.5744 1151.7039,1424.3088 Q1151.1102,1424.0275 1150.4852,1424.0275 Q1149.1414,1424.0275 1148.4539,1425.1056 Q1147.7664,1426.1681 1147.7664,1428.2619 Q1147.7664,1430.3556 1148.4539,1431.4338 Q1149.1414,1432.4963 1150.4852,1432.4963 Q1151.1102,1432.4963 1151.7039,1432.2306 Q1152.2977,1431.9494 1152.9227,1431.3713 L1152.9227,1434.09 Z " fill="#000000"/><text fill="#000000" font-family="Verdana" font-size="14" lengthAdjust="spacing" textLength="92.5859" x="1167.4539" y="1433.2961">ROIVisualizer</text><line style="stroke:#000000;stroke-width:1;" x1="874.2" x2="1525.7938" y1="1442.4494" y2="1442.4494"/><text fill="#000000" font-family="Verdana" font-size="14" lengthAdjust="spacing" textLength="83.0225" x="879.2" y="1459.4445">-config: dict</text><text fill="#000000" font-family="Verdana" font-size="14" lengthAdjust="spacing" textLength="103.2773" x="879.2" y="1475.7414">-subject_id: str</text><text fill="#000000" font-family="Verdana" font-size="14" lengthAdjust="spacing" textLength="104.3574" x="879.2" y="1492.0382">-session_id: str</text><text fill="#000000" font-family="Verdana" font-size="14" lengthAdjust="spacing" textLength="145.8311" x="879.2" y="1508.3351">-qc_viz: QCVisualizer</text><text fill="#000000" font-family="Verdana" font-size="14" lengthAdjust="spacing" textLength="107.3242" x="879.2" y="1524.632">-logger: Logger</text><line style="stroke:#000000;stroke-width:1;" x1="874.2" x2="1525.7938" y1="1531.9338" y2="1531.9338"/><text fill="#000000" font-family="Verdana" font-size="14" lengthAdjust="spacing" textLength="275.5566" x="879.2" y="1548.9289">+__init__(config, subject_id, session_id)</text><text fill="#000000" font-family="Verdana" font-size="14" lengthAdjust="spacing" textLength="641.5938" x="879.2" y="1565.2257">+load_atlas_and_data_with_template_validation(): Tuple[Nifti1Image, Nifti1Image, List[str]]</text><text fill="#000000" font-family="Verdana" font-size="14" lengthAdjust="spacing" textLength="207.7578" x="879.2" y="1581.5226">+create_atlas_overlay(): Path</text><text fill="#000000" font-family="Verdana" font-size="14" lengthAdjust="spacing" textLength="312.9492" x="879.2" y="1597.8195">+create_connectivity_heatmaps(): List[Path]</text><text fill="#000000" font-family="Verdana" font-size="14" lengthAdjust="spacing" textLength="231.082" x="879.2" y="1614.1164">+create_summary_report(): Path</text><text fill="#000000" font-family="Verdana" font-size="14" lengthAdjust="spacing" textLength="86.707" x="879.2" y="1630.4132">+run(): Path</text></g><!--class CM--><g class="entity" data-qualified-name="External Dependencies.CM" data-source-line="104" id="ent0011"><rect fill="#FFFFFF" height="72.5625" rx="2.5" ry="2.5" style="stroke:#000000;stroke-width:1;" width="175.5332" x="371.23" y="1737.7194"/><ellipse cx="384.23" cy="1766.0006" fill="#FFFFFF" rx="9" ry="9" style="stroke:#000000;stroke-width:1;"/><path d="M387.1988,1771.6413 Q386.6206,1771.9381 385.98,1772.0788 Q385.3394,1772.235 384.6363,1772.235 Q382.1363,1772.235 380.8081,1770.5944 Q379.4956,1768.9381 379.4956,1765.8131 Q379.4956,1762.6881 380.8081,1761.0319 Q382.1363,1759.3756 384.6363,1759.3756 Q385.3394,1759.3756 385.98,1759.5319 Q386.6363,1759.6881 387.1988,1759.985 L387.1988,1762.7038 Q386.5738,1762.1256 385.98,1761.86 Q385.3863,1761.5788 384.7613,1761.5788 Q383.4175,1761.5788 382.73,1762.6569 Q382.0425,1763.7194 382.0425,1765.8131 Q382.0425,1767.9069 382.73,1768.985 Q383.4175,1770.0475 384.7613,1770.0475 Q385.3863,1770.0475 385.98,1769.7819 Q386.5738,1769.5006 387.1988,1768.9225 L387.1988,1771.6413 Z " fill="#000000"/><text fill="#000000" font-family="Verdana" font-size="12" font-style="italic" lengthAdjust="spacing" textLength="64.4824" x="437.7554" y="1753.858">&#171;external&#187;</text><text fill="#000000" font-family="Verdana" font-size="14" lengthAdjust="spacing" textLength="139.5488" x="400.2222" y="1769.6832">nilearn.connectome</text><text fill="#000000" font-family="Verdana" font-size="14" lengthAdjust="spacing" textLength="147.5332" x="396.23" y="1785.9801">ConnectivityMeasure</text><line style="stroke:#000000;stroke-width:1;" x1="372.23" x2="545.7632" y1="1794.2819" y2="1794.2819"/><line style="stroke:#000000;stroke-width:1;" x1="372.23" x2="545.7632" y1="1802.2819" y2="1802.2819"/></g><!--class NLM--><g class="entity" data-qualified-name="External Dependencies.NLM" data-source-line="105" id="ent0012"><rect fill="#FFFFFF" height="72.5625" rx="2.5" ry="2.5" style="stroke:#000000;stroke-width:1;" width="152.1611" x="183.92" y="1737.7194"/><ellipse cx="196.92" cy="1766.0006" fill="#FFFFFF" rx="9" ry="9" style="stroke:#000000;stroke-width:1;"/><path d="M199.8888,1771.6413 Q199.3106,1771.9381 198.67,1772.0788 Q198.0294,1772.235 197.3263,1772.235 Q194.8263,1772.235 193.4981,1770.5944 Q192.1856,1768.9381 192.1856,1765.8131 Q192.1856,1762.6881 193.4981,1761.0319 Q194.8263,1759.3756 197.3263,1759.3756 Q198.0294,1759.3756 198.67,1759.5319 Q199.3263,1759.6881 199.8888,1759.985 L199.8888,1762.7038 Q199.2638,1762.1256 198.67,1761.86 Q198.0763,1761.5788 197.4513,1761.5788 Q196.1075,1761.5788 195.42,1762.6569 Q194.7325,1763.7194 194.7325,1765.8131 Q194.7325,1767.9069 195.42,1768.985 Q196.1075,1770.0475 197.4513,1770.0475 Q198.0763,1770.0475 198.67,1769.7819 Q199.2638,1769.5006 199.8888,1768.9225 L199.8888,1771.6413 Z " fill="#000000"/><text fill="#000000" font-family="Verdana" font-size="12" font-style="italic" lengthAdjust="spacing" textLength="64.4824" x="238.7594" y="1753.858">&#171;external&#187;</text><text fill="#000000" font-family="Verdana" font-size="14" lengthAdjust="spacing" textLength="112.2051" x="214.898" y="1769.6832">nilearn.maskers</text><text fill="#000000" font-family="Verdana" font-size="14" lengthAdjust="spacing" textLength="124.1611" x="208.92" y="1785.9801">NiftiLabelsMasker</text><line style="stroke:#000000;stroke-width:1;" x1="184.92" x2="335.0811" y1="1794.2819" y2="1794.2819"/><line style="stroke:#000000;stroke-width:1;" x1="184.92" x2="335.0811" y1="1802.2819" y2="1802.2819"/></g><!--class CLEAN--><g class="entity" data-qualified-name="External Dependencies.CLEAN" data-source-line="106" id="ent0013"><rect fill="#FFFFFF" height="72.5625" rx="2.5" ry="2.5" style="stroke:#000000;stroke-width:1;" width="122.3359" x="26.83" y="1737.7194"/><ellipse cx="39.83" cy="1766.0006" fill="#FFFFFF" rx="9" ry="9" style="stroke:#000000;stroke-width:1;"/><path d="M42.7988,1771.6413 Q42.2206,1771.9381 41.58,1772.0788 Q40.9394,1772.235 40.2363,1772.235 Q37.7363,1772.235 36.4081,1770.5944 Q35.0956,1768.9381 35.0956,1765.8131 Q35.0956,1762.6881 36.4081,1761.0319 Q37.7363,1759.3756 40.2363,1759.3756 Q40.9394,1759.3756 41.58,1759.5319 Q42.2363,1759.6881 42.7988,1759.985 L42.7988,1762.7038 Q42.1738,1762.1256 41.58,1761.86 Q40.9863,1761.5788 40.3613,1761.5788 Q39.0175,1761.5788 38.33,1762.6569 Q37.6425,1763.7194 37.6425,1765.8131 Q37.6425,1767.9069 38.33,1768.985 Q39.0175,1770.0475 40.3613,1770.0475 Q40.9863,1770.0475 41.58,1769.7819 Q42.1738,1769.5006 42.7988,1768.9225 L42.7988,1771.6413 Z " fill="#000000"/><text fill="#000000" font-family="Verdana" font-size="12" font-style="italic" lengthAdjust="spacing" textLength="64.4824" x="66.7568" y="1753.858">&#171;external&#187;</text><text fill="#000000" font-family="Verdana" font-size="14" lengthAdjust="spacing" textLength="94.3359" x="51.83" y="1769.6832">nilearn.signal</text><text fill="#000000" font-family="Verdana" font-size="14" lengthAdjust="spacing" textLength="37.6523" x="80.1718" y="1785.9801">clean</text><line style="stroke:#000000;stroke-width:1;" x1="27.83" x2="148.1659" y1="1794.2819" y2="1794.2819"/><line style="stroke:#000000;stroke-width:1;" x1="27.83" x2="148.1659" y1="1802.2819" y2="1802.2819"/></g><!--class GM--><g class="entity" data-qualified-name="External Dependencies.GM" data-source-line="107" id="ent0014"><rect fill="#FFFFFF" height="72.5625" rx="2.5" ry="2.5" style="stroke:#000000;stroke-width:1;" width="168.6494" x="581.68" y="1737.7194"/><ellipse cx="594.68" cy="1766.0006" fill="#FFFFFF" rx="9" ry="9" style="stroke:#000000;stroke-width:1;"/><path d="M597.6488,1771.6413 Q597.0706,1771.9381 596.43,1772.0788 Q595.7894,1772.235 595.0863,1772.235 Q592.5863,1772.235 591.2581,1770.5944 Q589.9456,1768.9381 589.9456,1765.8131 Q589.9456,1762.6881 591.2581,1761.0319 Q592.5863,1759.3756 595.0863,1759.3756 Q595.7894,1759.3756 596.43,1759.5319 Q597.0863,1759.6881 597.6488,1759.985 L597.6488,1762.7038 Q597.0238,1762.1256 596.43,1761.86 Q595.8363,1761.5788 595.2113,1761.5788 Q593.8675,1761.5788 593.18,1762.6569 Q592.4925,1763.7194 592.4925,1765.8131 Q592.4925,1767.9069 593.18,1768.985 Q593.8675,1770.0475 595.2113,1770.0475 Q595.8363,1770.0475 596.43,1769.7819 Q597.0238,1769.5006 597.6488,1768.9225 L597.6488,1771.6413 Z " fill="#000000"/><text fill="#000000" font-family="Verdana" font-size="12" font-style="italic" lengthAdjust="spacing" textLength="64.4824" x="644.7635" y="1753.858">&#171;external&#187;</text><text fill="#000000" font-family="Verdana" font-size="14" lengthAdjust="spacing" textLength="140.6494" x="606.68" y="1769.6832">connectivity_shared</text><text fill="#000000" font-family="Verdana" font-size="14" lengthAdjust="spacing" textLength="93.7617" x="630.1238" y="1785.9801">GraphMetrics</text><line style="stroke:#000000;stroke-width:1;" x1="582.68" x2="749.3294" y1="1794.2819" y2="1794.2819"/><line style="stroke:#000000;stroke-width:1;" x1="582.68" x2="749.3294" y1="1802.2819" y2="1802.2819"/></g><!--class QCV--><g class="entity" data-qualified-name="External Dependencies.QCV" data-source-line="108" id="ent0015"><rect fill="#FFFFFF" height="72.5625" rx="2.5" ry="2.5" style="stroke:#000000;stroke-width:1;" width="168.6494" x="785.68" y="1737.7194"/><ellipse cx="798.68" cy="1766.0006" fill="#FFFFFF" rx="9" ry="9" style="stroke:#000000;stroke-width:1;"/><path d="M801.6488,1771.6413 Q801.0706,1771.9381 800.43,1772.0788 Q799.7894,1772.235 799.0863,1772.235 Q796.5863,1772.235 795.2581,1770.5944 Q793.9456,1768.9381 793.9456,1765.8131 Q793.9456,1762.6881 795.2581,1761.0319 Q796.5863,1759.3756 799.0863,1759.3756 Q799.7894,1759.3756 800.43,1759.5319 Q801.0863,1759.6881 801.6488,1759.985 L801.6488,1762.7038 Q801.0238,1762.1256 800.43,1761.86 Q799.8363,1761.5788 799.2113,1761.5788 Q797.8675,1761.5788 797.18,1762.6569 Q796.4925,1763.7194 796.4925,1765.8131 Q796.4925,1767.9069 797.18,1768.985 Q797.8675,1770.0475 799.2113,1770.0475 Q799.8363,1770.0475 800.43,1769.7819 Q801.0238,1769.5006 801.6488,1768.9225 L801.6488,1771.6413 Z " fill="#000000"/><text fill="#000000" font-family="Verdana" font-size="12" font-style="italic" lengthAdjust="spacing" textLength="64.4824" x="848.7635" y="1753.858">&#171;external&#187;</text><text fill="#000000" font-family="Verdana" font-size="14" lengthAdjust="spacing" textLength="140.6494" x="810.68" y="1769.6832">connectivity_shared</text><text fill="#000000" font-family="Verdana" font-size="14" lengthAdjust="spacing" textLength="88.5049" x="836.7523" y="1785.9801">QCVisualizer</text><line style="stroke:#000000;stroke-width:1;" x1="786.68" x2="953.3294" y1="1794.2819" y2="1794.2819"/><line style="stroke:#000000;stroke-width:1;" x1="786.68" x2="953.3294" y1="1802.2819" y2="1802.2819"/></g><!--class FSD--><g class="entity" data-qualified-name="External Dependencies.FSD" data-source-line="109" id="ent0016"><rect fill="#FFFFFF" height="72.5625" rx="2.5" ry="2.5" style="stroke:#000000;stroke-width:1;" width="168.6494" x="989.68" y="1737.7194"/><ellipse cx="1002.68" cy="1766.0006" fill="#FFFFFF" rx="9" ry="9" style="stroke:#000000;stroke-width:1;"/><path d="M1005.6488,1771.6413 Q1005.0706,1771.9381 1004.43,1772.0788 Q1003.7894,1772.235 1003.0863,1772.235 Q1000.5863,1772.235 999.2581,1770.5944 Q997.9456,1768.9381 997.9456,1765.8131 Q997.9456,1762.6881 999.2581,1761.0319 Q1000.5863,1759.3756 1003.0863,1759.3756 Q1003.7894,1759.3756 1004.43,1759.5319 Q1005.0863,1759.6881 1005.6488,1759.985 L1005.6488,1762.7038 Q1005.0238,1762.1256 1004.43,1761.86 Q1003.8363,1761.5788 1003.2113,1761.5788 Q1001.8675,1761.5788 1001.18,1762.6569 Q1000.4925,1763.7194 1000.4925,1765.8131 Q1000.4925,1767.9069 1001.18,1768.985 Q1001.8675,1770.0475 1003.2113,1770.0475 Q1003.8363,1770.0475 1004.43,1769.7819 Q1005.0238,1769.5006 1005.6488,1768.9225 L1005.6488,1771.6413 Z " fill="#000000"/><text fill="#000000" font-family="Verdana" font-size="12" font-style="italic" lengthAdjust="spacing" textLength="64.4824" x="1052.7635" y="1753.858">&#171;external&#187;</text><text fill="#000000" font-family="Verdana" font-size="14" lengthAdjust="spacing" textLength="140.6494" x="1014.68" y="1769.6832">connectivity_shared</text><text fill="#000000" font-family="Verdana" font-size="14" lengthAdjust="spacing" textLength="134.8525" x="1017.5784" y="1785.9801">FreeSurferDetector</text><line style="stroke:#000000;stroke-width:1;" x1="990.68" x2="1157.3294" y1="1794.2819" y2="1794.2819"/><line style="stroke:#000000;stroke-width:1;" x1="990.68" x2="1157.3294" y1="1802.2819" y2="1802.2819"/></g><!--reverse link RSBoldPipeline to SignalDenoiser--><g class="link" data-entity-1="ent0003" data-entity-2="ent0005" data-link-type="composition" data-source-line="113" id="lnk17"><path codeLine="113" d="M890.0074,372.6554 C876.6274,383.2654 872.77,386.4294 860,396.7594 C833.29,418.3994 805.13,441.7194 778,464.4494" fill="none" id="RSBoldPipeline-backto-SignalDenoiser" style="stroke:#000000;stroke-width:1;"/><polygon fill="#000000" points="899.41,365.1994,892.2234,365.7932,890.0074,372.6554,897.194,372.0616,899.41,365.1994" style="stroke:#000000;stroke-width:1;"/><text fill="#000000" font-family="Verdana" font-size="13" lengthAdjust="spacing" textLength="48.6357" x="861" y="409.8263">spawns</text><text fill="#000000" font-family="Verdana" font-size="13" lengthAdjust="spacing" textLength="8.271" x="882.1569" y="384.6953">1</text><text fill="#000000" font-family="Verdana" font-size="13" lengthAdjust="spacing" textLength="8.271" x="778.3909" y="453.6727">1</text></g><!--reverse link RSBoldPipeline to ROIExtractor--><g class="link" data-entity-1="ent0003" data-entity-2="ent0006" data-link-type="composition" data-source-line="114" id="lnk18"><path codeLine="114" d="M984.4247,375.6839 C974.5047,394.3339 970.8,402.9594 963,421.7594 C910.36,548.6694 958.08,604.9194 884,720.6194 C866.31,748.2494 843.65,773.9794 819.26,797.2094" fill="none" id="RSBoldPipeline-backto-ROIExtractor" style="stroke:#000000;stroke-width:1;"/><polygon fill="#000000" points="990.06,365.0894,983.7109,368.5082,984.4247,375.6839,990.7739,372.2651,990.06,365.0894" style="stroke:#000000;stroke-width:1;"/><text fill="#000000" font-family="Verdana" font-size="13" lengthAdjust="spacing" textLength="48.6357" x="964" y="597.2563">spawns</text><text fill="#000000" font-family="Verdana" font-size="13" lengthAdjust="spacing" textLength="8.271" x="977.2035" y="385.0295">1</text><text fill="#000000" font-family="Verdana" font-size="13" lengthAdjust="spacing" textLength="8.271" x="821.5737" y="786.4269">1</text></g><!--reverse link RSBoldPipeline to ConnectivityComputer--><g class="link" data-entity-1="ent0003" data-entity-2="ent0007" data-link-type="composition" data-source-line="115" id="lnk19"><path codeLine="115" d="M1066.1145,377.1629 C1058.3445,476.5229 1044.45,602.2094 1017,720.6194 C981.59,873.3794 995.52,929.1194 900,1053.4794 C878.03,1082.0894 850.17,1107.7694 820.86,1130.1694" fill="none" id="RSBoldPipeline-backto-ConnectivityComputer" style="stroke:#000000;stroke-width:1;"/><polygon fill="#000000" points="1067.05,365.1994,1062.5944,370.8693,1066.1145,377.1629,1070.5701,371.493,1067.05,365.1994" style="stroke:#000000;stroke-width:1;"/><text fill="#000000" font-family="Verdana" font-size="13" lengthAdjust="spacing" textLength="48.6357" x="1011.3" y="763.6863">spawns</text><text fill="#000000" font-family="Verdana" font-size="13" lengthAdjust="spacing" textLength="8.271" x="1058.4408" y="384.6953">1</text><text fill="#000000" font-family="Verdana" font-size="13" lengthAdjust="spacing" textLength="8.271" x="825.5161" y="1119.4156">1</text></g><!--reverse link RSBoldPipeline to GraphAnalyzer--><g class="link" data-entity-1="ent0003" data-entity-2="ent0008" data-link-type="composition" data-source-line="116" id="lnk20"><path codeLine="116" d="M1095.7623,377.1048 C1103.8623,444.9648 1110,516.5594 1110,591.6894 C1110,591.6894 1110,591.6894 1110,1234.9694 C1110,1314.6494 1077.28,1340.2194 1011,1384.4494 C952.64,1423.3994 922.81,1392.9994 856,1414.4494 C850.19,1416.3194 844.34,1418.2894 838.46,1420.3394" fill="none" id="RSBoldPipeline-backto-GraphAnalyzer" style="stroke:#000000;stroke-width:1;"/><polygon fill="#000000" points="1094.34,365.1894,1091.0793,371.6212,1095.7623,377.1048,1099.0229,370.673,1094.34,365.1894" style="stroke:#000000;stroke-width:1;"/><text fill="#000000" font-family="Verdana" font-size="13" lengthAdjust="spacing" textLength="48.6357" x="1111" y="930.1163">spawns</text><text fill="#000000" font-family="Verdana" font-size="13" lengthAdjust="spacing" textLength="8.271" x="1087.138" y="384.6848">1</text><text fill="#000000" font-family="Verdana" font-size="13" lengthAdjust="spacing" textLength="8.271" x="845.928" y="1413.6927">1</text></g><!--reverse link RSBoldPipeline to ROIVisualizer--><g class="link" data-entity-1="ent0003" data-entity-2="ent0009" data-link-type="composition" data-source-line="117" id="lnk21"><path codeLine="117" d="M1168.9875,375.5133 C1203.7975,441.2233 1230,512.3894 1230,591.6894 C1230,591.6894 1230,591.6894 1230,1234.9694 C1230,1294.3394 1223.71,1360.1794 1216.89,1414.1194" fill="none" id="RSBoldPipeline-backto-ROIVisualizer" style="stroke:#000000;stroke-width:1;"/><polygon fill="#000000" points="1163.37,364.9094,1162.6441,372.0838,1168.9875,375.5133,1169.7134,368.3389,1163.37,364.9094" style="stroke:#000000;stroke-width:1;"/><text fill="#000000" font-family="Verdana" font-size="13" lengthAdjust="spacing" textLength="48.6357" x="1231" y="930.1163">spawns</text><text fill="#000000" font-family="Verdana" font-size="13" lengthAdjust="spacing" textLength="8.271" x="1159.9914" y="384.8397">1</text><text fill="#000000" font-family="Verdana" font-size="13" lengthAdjust="spacing" textLength="8.271" x="1209.7246" y="1403.5374">1</text></g><!--link RSBoldPipeline to FSD--><g class="link" data-entity-1="ent0003" data-entity-2="ent0016" data-link-type="dependency" data-source-line="119" id="lnk22"><path codeLine="119" d="M1274.21,269.5794 C1367.41,297.6794 1473.02,344.5794 1543,421.7594 C1595.96,480.1794 1594,512.8394 1594,591.6894 C1594,591.6894 1594,591.6894 1594,1527.0794 C1594,1591.0694 1591.07,1619.4894 1543,1661.7194 C1486.42,1711.4294 1283.4846,1745.4359 1164.4446,1761.7259" fill="none" id="RSBoldPipeline-to-FSD" style="stroke:#000000;stroke-width:1;stroke-dasharray:7,7;"/><polygon fill="#000000" points="1158.5,1762.5394,1167.9592,1765.2822,1163.4538,1761.8615,1166.8746,1757.3561,1158.5,1762.5394" style="stroke:#000000;stroke-width:1;"/><text fill="#000000" font-family="Verdana" font-size="13" lengthAdjust="spacing" textLength="29.7832" x="1595" y="1096.5463">uses</text></g><!--link SignalDenoiser to CLEAN--><g class="link" data-entity-1="ent0005" data-entity-2="ent0013" data-link-type="dependency" data-source-line="121" id="lnk23"><path codeLine="121" d="M391.42,655.3394 C263.64,704.3594 132,787.9894 132,924.5494 C132,924.5494 132,924.5494 132,1527.0794 C132,1602.9794 113.0253,1684.2426 100.0153,1731.7326" fill="none" id="SignalDenoiser-to-CLEAN" style="stroke:#000000;stroke-width:1;stroke-dasharray:7,7;"/><polygon fill="#000000" points="98.43,1737.5194,104.6658,1729.8961,99.7511,1732.6971,96.9501,1727.7823,98.43,1737.5194" style="stroke:#000000;stroke-width:1;"/><text fill="#000000" font-family="Verdana" font-size="13" lengthAdjust="spacing" textLength="29.7832" x="133" y="1238.5363">uses</text></g><!--link ROIExtractor to NLM--><g class="link" data-entity-1="ent0006" data-entity-2="ent0012" data-link-type="dependency" data-source-line="122" id="lnk24"><path codeLine="122" d="M478.38,1053.9694 C454.51,1077.7194 431.67,1103.5894 413,1130.4794 C275.64,1328.2694 260.7345,1627.9196 259.7945,1731.3796" fill="none" id="ROIExtractor-to-NLM" style="stroke:#000000;stroke-width:1;stroke-dasharray:7,7;"/><polygon fill="#000000" points="259.74,1737.3794,263.8216,1728.4161,259.7854,1732.3796,255.8219,1728.3434,259.74,1737.3794" style="stroke:#000000;stroke-width:1;"/><text fill="#000000" font-family="Verdana" font-size="13" lengthAdjust="spacing" textLength="29.7832" x="308.88" y="1380.5163">uses</text></g><!--link ConnectivityComputer to CM--><g class="link" data-entity-1="ent0007" data-entity-2="ent0011" data-link-type="dependency" data-source-line="123" id="lnk25"><path codeLine="123" d="M430.48,1322.9394 C395.42,1347.3394 363.7,1377.5494 343,1414.4494 C289.22,1510.2894 299.89,1560.6294 343,1661.7194 C355.92,1692.0094 376.8955,1714.2579 400.8055,1733.4979" fill="none" id="ConnectivityComputer-to-CM" style="stroke:#000000;stroke-width:1;stroke-dasharray:7,7;"/><polygon fill="#000000" points="405.48,1737.2594,400.9759,1728.5008,401.5846,1734.1248,395.9606,1734.7335,405.48,1737.2594" style="stroke:#000000;stroke-width:1;"/><text fill="#000000" font-family="Verdana" font-size="13" lengthAdjust="spacing" textLength="29.7832" x="344" y="1530.6463">uses</text></g><!--reverse link GraphAnalyzer to GM--><g class="link" data-entity-1="ent0008" data-entity-2="ent0014" data-link-type="aggregation" data-source-line="124" id="lnk26"><path codeLine="124" d="M640.4773,1649.9192 C647.8973,1685.6892 653.15,1711.0594 658.59,1737.2694" fill="none" id="GraphAnalyzer-backto-GM" style="stroke:#000000;stroke-width:1;"/><polygon fill="none" points="638.04,1638.1694,635.3421,1644.8568,640.4773,1649.9192,643.1753,1643.2319,638.04,1638.1694" style="stroke:#000000;stroke-width:1;"/><text fill="#000000" font-family="Verdana" font-size="13" lengthAdjust="spacing" textLength="22.9785" x="649.05" y="1682.7863">has</text></g><!--reverse link ROIVisualizer to QCV--><g class="link" data-entity-1="ent0009" data-entity-2="ent0015" data-link-type="aggregation" data-source-line="125" id="lnk27"><path codeLine="125" d="M1038.5553,1645.1359 C1013.0453,1663.9659 996.55,1676.2694 972,1694.7194 C953.62,1708.5294 933.51,1723.8994 916.05,1737.3294" fill="none" id="ROIVisualizer-backto-QCV" style="stroke:#000000;stroke-width:1;"/><polygon fill="none" points="1048.21,1638.0094,1041.0072,1638.3544,1038.5553,1645.1359,1045.7582,1644.7909,1048.21,1638.0094" style="stroke:#000000;stroke-width:1;"/><text fill="#000000" font-family="Verdana" font-size="13" lengthAdjust="spacing" textLength="22.9785" x="1003.82" y="1682.7863">has</text></g><!--link SignalDenoiser to ROIExtractor--><g class="link" data-entity-1="ent0005" data-entity-2="ent0006" data-link-type="dependency" data-source-line="128" id="lnk28"><path codeLine="128" d="M632.07,720.6694 C632.68,745.8194 633.1769,766.2211 633.7769,791.3711" fill="none" id="SignalDenoiser-to-ROIExtractor" style="stroke:#000000;stroke-width:1;stroke-dasharray:7,7;"/><polygon fill="#000000" points="633.92,797.3694,637.7042,788.2765,633.8007,792.3708,629.7065,788.4673,633.92,797.3694" style="stroke:#000000;stroke-width:1;"/><text fill="#000000" font-family="Verdana" font-size="13" lengthAdjust="spacing" textLength="82.6084" x="634" y="763.6863">output feeds</text></g><!--link ROIExtractor to ConnectivityComputer--><g class="link" data-entity-1="ent0006" data-entity-2="ent0007" data-link-type="dependency" data-source-line="129" id="lnk29"><path codeLine="129" d="M637,1053.8394 C637,1079.3194 637,1099.7994 637,1124.3194" fill="none" id="ROIExtractor-to-ConnectivityComputer" style="stroke:#000000;stroke-width:1;stroke-dasharray:7,7;"/><polygon fill="#000000" points="637,1130.3194,641,1121.3194,637,1125.3194,633,1121.3194,637,1130.3194" style="stroke:#000000;stroke-width:1;"/><text fill="#000000" font-family="Verdana" font-size="13" lengthAdjust="spacing" textLength="82.6084" x="638" y="1096.5463">output feeds</text></g><!--link ConnectivityComputer to GraphAnalyzer--><g class="link" data-entity-1="ent0007" data-entity-2="ent0008" data-link-type="dependency" data-source-line="130" id="lnk30"><path codeLine="130" d="M629.21,1337.6594 C627.33,1362.4394 625.7745,1383.0366 623.8645,1408.1766" fill="none" id="ConnectivityComputer-to-GraphAnalyzer" style="stroke:#000000;stroke-width:1;stroke-dasharray:7,7;"/><polygon fill="#000000" points="623.41,1414.1594,628.0803,1405.4883,623.7888,1409.1737,620.1033,1404.8822,623.41,1414.1594" style="stroke:#000000;stroke-width:1;"/><text fill="#000000" font-family="Verdana" font-size="13" lengthAdjust="spacing" textLength="82.6084" x="627.66" y="1380.5163">output feeds</text></g><!--link ConnectivityComputer to ROIVisualizer--><g class="link" data-entity-1="ent0007" data-entity-2="ent0009" data-link-type="dependency" data-source-line="131" id="lnk31"><path codeLine="131" d="M836.68,1337.8594 C884.58,1362.5494 930.6163,1386.2713 979.1963,1411.3013" fill="none" id="ConnectivityComputer-to-ROIVisualizer" style="stroke:#000000;stroke-width:1;stroke-dasharray:7,7;"/><polygon fill="#000000" points="984.53,1414.0494,978.3615,1406.3715,980.0853,1411.7593,974.6974,1413.483,984.53,1414.0494" style="stroke:#000000;stroke-width:1;"/><text fill="#000000" font-family="Verdana" font-size="13" lengthAdjust="spacing" textLength="82.6084" x="919.5" y="1380.5163">output feeds</text></g><?plantuml-src rLVTJ-Gs47_VlyBTFZIKW7glgnCIPG4XyN77Ldq1P7cJIU8ZiLFRMLXEzxztx7ZpHVPO7f3QHIA9FVERySnlnlOl9eC2I9apBYRwaOkIALQG9OiUKoKh4P_8N2howzcf_Uj8H3dJ-jWOnPULWOj8YWL_0VB7P6AuoO48dWDJWjuk_gHCi7ojkQObBo7d0iW1ER7wPCvPYcYJIOa6MGfa-cKZSgEY3BHHp70ffkJxP4BmvymI19Lvt8X-TrFsTu1-93oTaPX7fXtLrV8RH8RoU4OGiZC1MYFywubOhQcgn8mifSpRuMzoYR9wXev7vWurGglsq0haCar1pSYbUpRZ-vHomGsbGUqWBPd9KBVn2zyRLqBYhU-r-hbaCQrrWxt1ylOrcAgarZGNRlfQ2cYd8mNC08svGbjIST0ZCXb4ZpGf52yLb3G6nLSO-LKjsml2HbOg2izS6xH94LaA9tfJsdon_EvC0ImgbO2w48byw7XRBGiCXSuhLL0CQA0Zj6f2OeChM06uVYX1n9fAiTVFopv6fM5He0rJ26IW30dAkxVkodvCVdIPfMHaOonIia11FU3KWgVezXo4v1hKHt1gHsvieqM73Gd7rJR9Ih3KNEp_gieSxhuuQjd_3oFyiJNjXEVCi3EiFUZoABTcMp5NVf2kKVmICttNu_f-NCUAQXUvO8abINc1_ZS0DXayCVpJHO4fQ3LPMUPhkcGYBZ7qTW46LE1qCvvcr8w699TF_iseRKY5j7IZIA5gkRJiRso798cfoHHeZ4QyOahxBuGICLEAhOSEwK9AaraKvqhob1NRx28FRH1jb3tLkktfvkBq6KDdg-s_JIH72sRGQ_h4JKOD5BWLOBCec8aotqrgMdN24BPi659CHna3hFaQD11K8KL28i0yIVMetuaMsms0G_NiuTwf7bNQoCBhsewxk_wAvJosWQY3ex6BGE3UGsA9_gef8hCOncwZO2IrOWELKIf1JHKRAMfu0TXzR8ksAY7n-ZbRGgx7cEk9E5xwFLQUI26G37p5pVf45YLks_y7TWx2qgpLHs8yVL6zFjlAcZK7BKf82Z2PZBUtWeJh35dyGZ4tGkDULmHO4ee_ZwdKVSMsFyzpBxinWmri8_6J58xtadF5okpO7g1UFYPTgJL0qL758ppOE7jNzTU7vRIR5efbnjwPrfxFJR2R8kckuHPqbNVFIcm5U5onWphmpv38oY2mFIAzEXcb8C3kWdJ5TOLTuSKTI1lTpTOus6_VsX_-zc0VazD_8lJsPKQ-dhHsFdZxmBtSPNAmZ_W-YffRclURdTYVNcihSWKgP-jUQBjIFM9bE5ImqlMCiHnv7LqL1RC7RYYbCg-XNwUoUwh4ZHuKbYUPkpChY0ZxozGdjKxtrD-53hrtie1xqUt6Ly1qfM1A67RfA_BvCtZGewCnc8BfHr3wNhZONJhMNxanXt1z-JP4VMIx5n5-YjhkvUdnzLQzNbnrnXJ4zw9RPWxZ_Efz05rwEW0SU1z2UycOWt6t6uTpjfZtSJ1Zlv5RoElQpNYf9uCxvFJJbFn-SE2UWwi05bV9diHFLNf7lbqKHdVZNHJx6yAEldNQJQCnL3ayF7A1cv4AYtqo6KJ1JjSayGAz9TjPIpm_DxewXz28zDSXqTTpEvSnXznns4vPOjHpc4TxU_DNnBhSI60x3qdmmh0tvlOWENMp9mb0FBAABOdfAMrTtZ0vksaD4zJL-XS0?></g></svg>