<?plantuml 1.2026.1?><svg xmlns="http://www.w3.org/2000/svg" xmlns:xlink="http://www.w3.org/1999/xlink" contentStyleType="text/css" data-diagram-type="DESCRIPTION" height="1059px" preserveAspectRatio="none" style="width:1066px;height:1059px;background:#FEFEFE;" version="1.1" viewBox="0 0 1066 1059" width="1066px" zoomAndPan="magnify"><title>Combined Connectivity - Use Case Diagram</title><defs/><g><rect fill="#FEFEFE" height="1059" style="stroke:none;stroke-width:1;" width="1066" x="0" y="0"/><g class="title" data-source-line="4"><text fill="#000000" font-family="Verdana" font-size="22" font-weight="bold" lengthAdjust="spacing" textLength="536.4756" x="260.5322" y="35.4209">Combined Connectivity - Use Case Diagram</text></g><!--cluster Combined Connectivity System--><g class="cluster" data-qualified-name="Combined Connectivity System" data-source-line="12" id="ent0005"><rect fill="#FFFFFF" height="714" rx="2.5" ry="2.5" style="stroke:#000000;stroke-width:1;" width="923.02" x="137.52" y="58.6094"/><text fill="#000000" font-family="Verdana" font-size="14" font-weight="bold" lengthAdjust="spacing" textLength="245.7041" x="476.1779" y="73.6045">Combined Connectivity System</text></g><!--cluster fMRI Processing--><g class="cluster" data-qualified-name="Combined Connectivity System.fMRI Processing" data-source-line="14" id="ent0006"><path d="M170.12,295.6094 L298.036,295.6094 A3.75,3.75 0 0 1 300.536,298.1094 L307.536,317.9063 L716.01,317.9063 A2.5,2.5 0 0 1 718.51,320.4063 L718.51,467.1094 A2.5,2.5 0 0 1 716.01,469.6094 L170.12,469.6094 A2.5,2.5 0 0 1 167.62,467.1094 L167.62,298.1094 A2.5,2.5 0 0 1 170.12,295.6094" fill="#FFFFFF" style="stroke:#000000;stroke-width:1;"/><line style="stroke:#000000;stroke-width:1;" x1="167.62" x2="307.536" y1="317.9063" y2="317.9063"/><text fill="#000000" font-family="Verdana" font-size="14" font-weight="bold" lengthAdjust="spacing" textLength="126.916" x="171.62" y="310.6045">fMRI Processing</text></g><!--cluster DWI Processing--><g class="cluster" data-qualified-name="Combined Connectivity System.DWI Processing" data-source-line="21" id="ent0011"><path d="M193.72,101.6094 L317.8968,101.6094 A3.75,3.75 0 0 1 320.3968,104.1094 L327.3968,123.9063 L1030.48,123.9063 A2.5,2.5 0 0 1 1032.98,126.4063 L1032.98,202.1094 A2.5,2.5 0 0 1 1030.48,204.6094 L193.72,204.6094 A2.5,2.5 0 0 1 191.22,202.1094 L191.22,104.1094 A2.5,2.5 0 0 1 193.72,101.6094" fill="#FFFFFF" style="stroke:#000000;stroke-width:1;"/><line style="stroke:#000000;stroke-width:1;" x1="191.22" x2="327.3968" y1="123.9063" y2="123.9063"/><text fill="#000000" font-family="Verdana" font-size="14" font-weight="bold" lengthAdjust="spacing" textLength="123.1768" x="195.22" y="116.6045">DWI Processing</text></g><!--cluster Analysis--><g class="cluster" data-qualified-name="Combined Connectivity System.Analysis" data-source-line="27" id="ent0015"><path d="M164.02,493.6094 L230.6587,493.6094 A3.75,3.75 0 0 1 233.1587,496.1094 L240.1587,515.9063 L722.69,515.9063 A2.5,2.5 0 0 1 725.19,518.4063 L725.19,672.1094 A2.5,2.5 0 0 1 722.69,674.6094 L164.02,674.6094 A2.5,2.5 0 0 1 161.52,672.1094 L161.52,496.1094 A2.5,2.5 0 0 1 164.02,493.6094" fill="#FFFFFF" style="stroke:#000000;stroke-width:1;"/><line style="stroke:#000000;stroke-width:1;" x1="161.52" x2="240.1587" y1="515.9063" y2="515.9063"/><text fill="#000000" font-family="Verdana" font-size="14" font-weight="bold" lengthAdjust="spacing" textLength="65.6387" x="165.52" y="508.6045">Analysis</text></g><!--cluster Data Management--><g class="cluster" data-qualified-name="Combined Connectivity System.Data Management" data-source-line="34" id="ent0020"><path d="M824.69,477.6094 L970.8238,477.6094 A3.75,3.75 0 0 1 973.3238,480.1094 L980.3238,499.9063 L1034.04,499.9063 A2.5,2.5 0 0 1 1036.54,502.4063 L1036.54,746.1094 A2.5,2.5 0 0 1 1034.04,748.6094 L824.69,748.6094 A2.5,2.5 0 0 1 822.19,746.1094 L822.19,480.1094 A2.5,2.5 0 0 1 824.69,477.6094" fill="#FFFFFF" style="stroke:#000000;stroke-width:1;"/><line style="stroke:#000000;stroke-width:1;" x1="822.19" x2="980.3238" y1="499.9063" y2="499.9063"/><text fill="#000000" font-family="Verdana" font-size="14" font-weight="bold" lengthAdjust="spacing" textLength="145.1338" x="826.19" y="492.6045">Data Management</text></g><!--cluster Job Management--><g class="cluster" data-qualified-name="Combined Connectivity System.Job Management" data-source-line="40" id="ent0024"><path d="M836.62,228.6094 L970.3944,228.6094 A3.75,3.75 0 0 1 972.8944,231.1094 L979.8944,250.9063 L1022.11,250.9063 A2.5,2.5 0 0 1 1024.61,253.4063 L1024.61,451.1094 A2.5,2.5 0 0 1 1022.11,453.6094 L836.62,453.6094 A2.5,2.5 0 0 1 834.12,451.1094 L834.12,231.1094 A2.5,2.5 0 0 1 836.62,228.6094" fill="#FFFFFF" style="stroke:#000000;stroke-width:1;"/><line style="stroke:#000000;stroke-width:1;" x1="834.12" x2="979.8944" y1="250.9063" y2="250.9063"/><text fill="#000000" font-family="Verdana" font-size="14" font-weight="bold" lengthAdjust="spacing" textLength="132.7744" x="838.12" y="243.6045">Job Management</text></g><!--entity UC1--><g class="entity" data-qualified-name="Combined Connectivity System.fMRI Processing.UC1" data-source-line="15" id="ent0007"><ellipse cx="613.5077" cy="350.6109" fill="#FFFFFF" rx="89.0077" ry="20.2015" style="stroke:#000000;stroke-width:1;"/><text fill="#000000" font-family="Verdana" font-size="14" lengthAdjust="spacing" textLength="151.4912" x="537.7621" y="355.2594">Run Full fMRI Pipeline</text></g><!--entity UC2--><g class="entity" data-qualified-name="Combined Connectivity System.fMRI Processing.UC2" data-source-line="16" id="ent0008"><ellipse cx="285.1664" cy="434.6107" fill="#FFFFFF" rx="82.4564" ry="18.8913" style="stroke:#000000;stroke-width:1;"/><text fill="#000000" font-family="Verdana" font-size="14" lengthAdjust="spacing" textLength="136.4316" x="216.9506" y="439.2591">Run Individual Step</text></g><!--entity UC3--><g class="entity" data-qualified-name="Combined Connectivity System.fMRI Processing.UC3" data-source-line="17" id="ent0009"><ellipse cx="285.1718" cy="355.6074" fill="#FFFFFF" rx="101.5518" ry="24.928" style="stroke:#000000;stroke-width:1;"/><text fill="#000000" font-family="Verdana" font-size="14" lengthAdjust="spacing" textLength="113.5654" x="228.3891" y="350.4819">Process Existing</text><text fill="#000000" font-family="Verdana" font-size="14" lengthAdjust="spacing" textLength="146.4873" x="211.9282" y="366.7787">fMRIPrep Derivatives</text></g><!--entity UC4--><g class="entity" data-qualified-name="Combined Connectivity System.fMRI Processing.UC4" data-source-line="18" id="ent0010"><ellipse cx="613.5059" cy="429.6049" fill="#FFFFFF" rx="84.2459" ry="23.7355" style="stroke:#000000;stroke-width:1;"/><text fill="#000000" font-family="Verdana" font-size="14" lengthAdjust="spacing" textLength="127.709" x="549.6514" y="429.581">Configure Pipeline</text><text fill="#000000" font-family="Verdana" font-size="14" lengthAdjust="spacing" textLength="48.9316" x="589.04" y="445.8778">(YAML)</text></g><!--entity UC5--><g class="entity" data-qualified-name="Combined Connectivity System.DWI Processing.UC5" data-source-line="22" id="ent0012"><ellipse cx="613.509" cy="168.6052" fill="#FFFFFF" rx="88.079" ry="20.0158" style="stroke:#000000;stroke-width:1;"/><text fill="#000000" font-family="Verdana" font-size="14" lengthAdjust="spacing" textLength="149.3789" x="538.8196" y="173.2536">Run Full DWI Pipeline</text></g><!--entity UC6--><g class="entity" data-qualified-name="Combined Connectivity System.DWI Processing.UC6" data-source-line="23" id="ent0013"><ellipse cx="929.3613" cy="162.6116" fill="#FFFFFF" rx="87.6113" ry="19.9223" style="stroke:#000000;stroke-width:1;"/><text fill="#000000" font-family="Verdana" font-size="14" lengthAdjust="spacing" textLength="148.3125" x="855.2051" y="167.2601">Classify Image Types</text></g><!--entity UC7--><g class="entity" data-qualified-name="Combined Connectivity System.DWI Processing.UC7" data-source-line="24" id="ent0014"><ellipse cx="285.1744" cy="154.6103" fill="#FFFFFF" rx="77.9544" ry="17.9909" style="stroke:#000000;stroke-width:1;"/><text fill="#000000" font-family="Verdana" font-size="14" lengthAdjust="spacing" textLength="125.8291" x="222.2599" y="159.2587">Run Tractography</text></g><!--entity UC8--><g class="entity" data-qualified-name="Combined Connectivity System.Analysis.UC8" data-source-line="28" id="ent0016"><ellipse cx="613.5062" cy="636.6066" fill="#FFFFFF" rx="95.6862" ry="21.5372" style="stroke:#000000;stroke-width:1;"/><text fill="#000000" font-family="Verdana" font-size="14" lengthAdjust="spacing" textLength="166.5029" x="530.2547" y="641.2551">Compute Graph Metrics</text></g><!--entity UC9--><g class="entity" data-qualified-name="Combined Connectivity System.Analysis.UC9" data-source-line="29" id="ent0017"><ellipse cx="613.513" cy="554.6139" fill="#FFFFFF" rx="69.983" ry="25.7345" style="stroke:#000000;stroke-width:1;"/><text fill="#000000" font-family="Verdana" font-size="14" lengthAdjust="spacing" textLength="90.6309" x="568.1975" y="550.6686">Generate QC</text><text fill="#000000" font-family="Verdana" font-size="14" lengthAdjust="spacing" textLength="96.0313" x="565.4973" y="566.9654">Visualizations</text></g><!--entity UC10--><g class="entity" data-qualified-name="Combined Connectivity System.Analysis.UC10" data-source-line="30" id="ent0018"><ellipse cx="285.1729" cy="551.6099" fill="#FFFFFF" rx="92.9029" ry="20.9806" style="stroke:#000000;stroke-width:1;"/><text fill="#000000" font-family="Verdana" font-size="14" lengthAdjust="spacing" textLength="160.2822" x="205.0317" y="556.2584">Generate HTML Report</text></g><!--entity UC11--><g class="entity" data-qualified-name="Combined Connectivity System.Analysis.UC11" data-source-line="31" id="ent0019"><ellipse cx="285.1691" cy="631.6092" fill="#FFFFFF" rx="107.6491" ry="23.9298" style="stroke:#000000;stroke-width:1;"/><text fill="#000000" font-family="Verdana" font-size="14" lengthAdjust="spacing" textLength="169.3467" x="200.4957" y="632.1067">Aggregate Multi-Subject</text><text fill="#000000" font-family="Verdana" font-size="14" lengthAdjust="spacing" textLength="51.1807" x="259.5787" y="648.4036">Results</text></g><!--entity UC12--><g class="entity" data-qualified-name="Combined Connectivity System.Data Management.UC12" data-source-line="35" id="ent0021"><ellipse cx="929.3613" cy="623.6111" fill="#FFFFFF" rx="91.1713" ry="24.0918" style="stroke:#000000;stroke-width:1;"/><text fill="#000000" font-family="Verdana" font-size="14" lengthAdjust="spacing" textLength="72.9121" x="892.9053" y="617.2036">Load/Save</text><text fill="#000000" font-family="Verdana" font-size="14" lengthAdjust="spacing" textLength="136.2539" x="861.2344" y="633.5004">Connectivity Matrix</text></g><!--entity UC13--><g class="entity" data-qualified-name="Combined Connectivity System.Data Management.UC13" data-source-line="36" id="ent0022"><ellipse cx="929.3551" cy="538.6046" fill="#FFFFFF" rx="89.3351" ry="25.5152" style="stroke:#000000;stroke-width:1;"/><text fill="#000000" font-family="Verdana" font-size="14" lengthAdjust="spacing" textLength="124.9814" x="866.8644" y="535.8661">Detect FreeSurfer</text><text fill="#000000" font-family="Verdana" font-size="14" lengthAdjust="spacing" textLength="112.6973" x="873.0065" y="552.163">Reconstructions</text></g><!--entity UC14--><g class="entity" data-qualified-name="Combined Connectivity System.Data Management.UC14" data-source-line="37" id="ent0023"><ellipse cx="929.356" cy="707.6098" fill="#FFFFFF" rx="69.456" ry="25.3804" style="stroke:#000000;stroke-width:1;"/><text fill="#000000" font-family="Verdana" font-size="14" lengthAdjust="spacing" textLength="96.7832" x="880.9644" y="705.0673">Validate Atlas</text><text fill="#000000" font-family="Verdana" font-size="14" lengthAdjust="spacing" textLength="84.6494" x="887.0313" y="721.3642">Consistency</text></g><!--entity UC15--><g class="entity" data-qualified-name="Combined Connectivity System.Job Management.UC15" data-source-line="41" id="ent0025"><ellipse cx="929.3614" cy="348.6076" fill="#FFFFFF" rx="79.2414" ry="18.2483" style="stroke:#000000;stroke-width:1;"/><text fill="#000000" font-family="Verdana" font-size="14" lengthAdjust="spacing" textLength="128.8848" x="864.919" y="353.2561">Submit SLURM Job</text></g><!--entity UC16--><g class="entity" data-qualified-name="Combined Connectivity System.Job Management.UC16" data-source-line="42" id="ent0026"><ellipse cx="929.3588" cy="419.6091" fill="#FFFFFF" rx="78.9988" ry="18.1998" style="stroke:#000000;stroke-width:1;"/><text fill="#000000" font-family="Verdana" font-size="14" lengthAdjust="spacing" textLength="128.3105" x="865.2036" y="424.2576">Monitor Job Status</text></g><!--entity UC17--><g class="entity" data-qualified-name="Combined Connectivity System.Job Management.UC17" data-source-line="43" id="ent0027"><ellipse cx="929.3648" cy="279.6143" fill="#FFFFFF" rx="67.4748" ry="15.895" style="stroke:#000000;stroke-width:1;"/><text fill="#000000" font-family="Verdana" font-size="14" lengthAdjust="spacing" textLength="99.9414" x="879.3941" y="284.2628">Dry-Run Mode</text></g><!--entity researcher--><g class="entity" data-qualified-name="researcher" data-source-line="8" id="ent0002"><ellipse cx="50.7612" cy="678.9594" fill="#FFFFFF" rx="8" ry="8" style="stroke:#000000;stroke-width:1;"/><path d="M50.7612,686.9594 L50.7612,713.9594 M37.7612,694.9594 L63.7612,694.9594 M50.7612,713.9594 L37.7612,728.9594 M50.7612,713.9594 L63.7612,728.9594" fill="none" style="stroke:#000000;stroke-width:1;"/><text fill="#000000" font-family="Verdana" font-size="14" lengthAdjust="spacing" textLength="79.5225" x="11" y="743.9545">Researcher</text></g><!--entity datamanager--><g class="entity" data-qualified-name="datamanager" data-source-line="9" id="ent0003"><ellipse cx="613.5021" cy="925.9594" fill="#FFFFFF" rx="8" ry="8" style="stroke:#000000;stroke-width:1;"/><path d="M613.5021,933.9594 L613.5021,960.9594 M600.5021,941.9594 L626.5021,941.9594 M613.5021,960.9594 L600.5021,975.9594 M613.5021,960.9594 L626.5021,975.9594" fill="none" style="stroke:#000000;stroke-width:1;"/><text fill="#000000" font-family="Verdana" font-size="14" lengthAdjust="spacing" textLength="99.2441" x="563.88" y="990.9545">Data Manager</text></g><!--entity slurm--><g class="entity" data-qualified-name="slurm" data-source-line="10" id="ent0004"><ellipse cx="613.5096" cy="814.1063" fill="#FFFFFF" rx="8" ry="8" style="stroke:#000000;stroke-width:1;"/><path d="M613.5096,822.1063 L613.5096,849.1063 M600.5096,830.1063 L626.5096,830.1063 M613.5096,849.1063 L600.5096,864.1063 M613.5096,849.1063 L626.5096,864.1063" fill="none" style="stroke:#000000;stroke-width:1;"/><text fill="#000000" font-family="Verdana" font-size="14" lengthAdjust="spacing" textLength="123.2793" x="551.87" y="879.1014">SLURM Scheduler</text><text fill="#000000" font-family="Verdana" font-size="14" font-style="italic" lengthAdjust="spacing" textLength="67.7441" x="579.6376" y="801.8045">&#171;system&#187;</text></g><!--link researcher to UC1--><g class="link" data-entity-1="ent0002" data-entity-2="ent0007" data-link-type="dependency" data-source-line="48" id="lnk28"><path d="M90.76,727.2094 C175.3,764.4994 376.73,836.4794 487.82,734.6094 C544.7,682.4394 471.87,450.6094 517.82,388.6094 C525.73,377.9294 531.6658,372.7278 543.8358,367.2078" fill="none" id="researcher-to-UC1" style="stroke:#000000;stroke-width:1;"/><polygon fill="#000000" points="549.3,364.7294,539.4514,364.8042,544.7465,366.7947,542.756,372.0898,549.3,364.7294" style="stroke:#000000;stroke-width:1;"/></g><!--link researcher to UC2--><g class="link" data-entity-1="ent0002" data-entity-2="ent0008" data-link-type="dependency" data-source-line="49" id="lnk29"><path d="M58.63,669.5894 C67.99,626.5494 88.52,557.4494 129.52,512.6094 C157.42,482.0894 194.3337,463.9065 227.7337,451.7165" fill="none" id="researcher-to-UC2" style="stroke:#000000;stroke-width:1;"/><polygon fill="#000000" points="233.37,449.6594,223.5441,448.9875,228.673,451.3736,226.2869,456.5026,233.37,449.6594" style="stroke:#000000;stroke-width:1;"/></g><!--link researcher to UC3--><g class="link" data-entity-1="ent0002" data-entity-2="ent0009" data-link-type="dependency" data-source-line="50" id="lnk30"><path d="M56.62,669.6494 C66.67,595.2994 91.95,437.1394 129.52,398.6094 C145.86,381.8394 162.3573,373.0852 184.9073,366.6952" fill="none" id="researcher-to-UC3" style="stroke:#000000;stroke-width:1;"/><polygon fill="#000000" points="190.68,365.0594,180.9304,363.6646,185.8694,366.4226,183.1115,371.3616,190.68,365.0594" style="stroke:#000000;stroke-width:1;"/></g><!--link researcher to UC4--><g class="link" data-entity-1="ent0002" data-entity-2="ent0010" data-link-type="dependency" data-source-line="51" id="lnk31"><path d="M68.27,747.5094 C79.59,768.8394 96.87,793.3794 120.52,805.6094 C265.54,880.5594 366.65,914.9994 487.82,805.6094 C536.4,761.7494 487.8,570.7694 517.82,512.6094 C531.06,486.9694 550.9017,469.136 571.7817,454.546" fill="none" id="researcher-to-UC4" style="stroke:#000000;stroke-width:1;"/><polygon fill="#000000" points="576.7,451.1094,567.0315,452.9855,572.6014,453.9733,571.6137,459.5432,576.7,451.1094" style="stroke:#000000;stroke-width:1;"/></g><!--link researcher to UC5--><g class="link" data-entity-1="ent0002" data-entity-2="ent0012" data-link-type="dependency" data-source-line="52" id="lnk32"><path d="M90.92,711.6794 C187.41,718.3294 432.77,729.3594 487.82,674.6094 C544.74,617.9894 491.86,390.5694 517.82,314.6094 C534.82,264.8594 568.5925,219.885 590.9625,193.235" fill="none" id="researcher-to-UC5" style="stroke:#000000;stroke-width:1;"/><polygon fill="#000000" points="594.82,188.6394,585.97,192.9611,591.6054,192.469,592.0974,198.1044,594.82,188.6394" style="stroke:#000000;stroke-width:1;"/></g><!--link researcher to UC8--><g class="link" data-entity-1="ent0002" data-entity-2="ent0016" data-link-type="dependency" data-source-line="53" id="lnk33"><path d="M57.25,747.5194 C66.8,808.8494 88.53,923.5194 120.52,947.6094 C250.94,1045.7894 363.07,1052.8894 487.82,947.6094 C548.46,896.4294 487.63,844.9894 517.82,771.6094 C536.12,727.1294 567.2366,687.4115 589.1766,662.2515" fill="none" id="researcher-to-UC8" style="stroke:#000000;stroke-width:1;"/><polygon fill="#000000" points="593.12,657.7294,584.1902,661.8837,589.8338,661.4978,590.2197,667.1415,593.12,657.7294" style="stroke:#000000;stroke-width:1;"/></g><!--link researcher to UC9--><g class="link" data-entity-1="ent0002" data-entity-2="ent0017" data-link-type="dependency" data-source-line="54" id="lnk34"><path d="M55.51,747.6794 C61.66,787.6994 77.87,847.9794 120.52,876.6094 C256.06,967.5794 366.38,985.6894 487.82,876.6094 C534.21,834.9394 481.29,648.1494 517.82,597.6094 C527.13,584.7294 535.7309,578.0421 550.2309,571.6421" fill="none" id="researcher-to-UC9" style="stroke:#000000;stroke-width:1;"/><polygon fill="#000000" points="555.72,569.2194,545.8712,569.1941,551.1458,571.2384,549.1015,576.5129,555.72,569.2194" style="stroke:#000000;stroke-width:1;"/></g><!--link researcher to UC10--><g class="link" data-entity-1="ent0002" data-entity-2="ent0018" data-link-type="dependency" data-source-line="55" id="lnk35"><path d="M68.22,669.5694 C81.18,643.4394 101.72,610.3494 129.52,590.6094 C150.4,575.7694 170.5445,567.9223 195.2145,562.2123" fill="none" id="researcher-to-UC10" style="stroke:#000000;stroke-width:1;"/><polygon fill="#000000" points="201.06,560.8594,191.3898,558.9918,196.1888,561.9868,193.1938,566.7858,201.06,560.8594" style="stroke:#000000;stroke-width:1;"/></g><!--link researcher to UC11--><g class="link" data-entity-1="ent0002" data-entity-2="ent0019" data-link-type="dependency" data-source-line="56" id="lnk36"><path d="M90.89,693.3494 C100.53,689.7194 110.87,685.9294 120.52,682.6094 C152.88,671.4594 183.4507,661.7789 213.6307,652.5789" fill="none" id="researcher-to-UC11" style="stroke:#000000;stroke-width:1;"/><polygon fill="#000000" points="219.37,650.8294,209.5947,649.6275,214.5873,652.2873,211.9275,657.2799,219.37,650.8294" style="stroke:#000000;stroke-width:1;"/></g><!--link datamanager to UC12--><g class="link" data-entity-1="ent0003" data-entity-2="ent0021" data-link-type="dependency" data-source-line="59" id="lnk37"><path d="M663.31,935.2794 C714.95,912.5994 791.06,875.4594 806.19,847.6094 C815.91,829.7194 802.12,680.9894 814.19,664.6094 C823.69,651.7194 832.0445,645.1356 846.9245,639.0656" fill="none" id="datamanager-to-UC12" style="stroke:#000000;stroke-width:1;"/><polygon fill="#000000" points="852.48,636.7994,842.6358,636.4951,847.8504,638.6879,845.6575,643.9025,852.48,636.7994" style="stroke:#000000;stroke-width:1;"/></g><!--link datamanager to UC13--><g class="link" data-entity-1="ent0003" data-entity-2="ent0022" data-link-type="dependency" data-source-line="60" id="lnk38"><path d="M663.5,944.2894 C688.21,936.0294 716.42,922.1994 733.19,899.6094 C747.65,880.1194 728.7,866.3994 741.19,845.6094 C759.68,814.8194 789.42,829.3594 806.19,797.6094 C817.41,776.3694 800.16,601.0994 814.19,581.6094 C823.91,568.1094 832.8533,561.1371 848.2733,554.7771" fill="none" id="datamanager-to-UC13" style="stroke:#000000;stroke-width:1;"/><polygon fill="#000000" points="853.82,552.4894,843.9747,552.2232,849.1977,554.3958,847.0251,559.6188,853.82,552.4894" style="stroke:#000000;stroke-width:1;"/></g><!--link datamanager to UC14--><g class="link" data-entity-1="ent0003" data-entity-2="ent0023" data-link-type="dependency" data-source-line="61" id="lnk39"><path d="M663.31,952.8994 C704.85,948.3994 764.29,936.5794 806.19,905.6094 C866.93,860.7094 902.0491,781.3807 917.6891,738.8507" fill="none" id="datamanager-to-UC14" style="stroke:#000000;stroke-width:1;"/><polygon fill="#000000" points="919.76,733.2194,912.8995,740.2858,918.0343,737.9121,920.4079,743.0469,919.76,733.2194" style="stroke:#000000;stroke-width:1;"/></g><!--link datamanager to UC6--><g class="link" data-entity-1="ent0003" data-entity-2="ent0013" data-link-type="dependency" data-source-line="62" id="lnk40"><path d="M663.54,944.9494 C688.59,936.8494 717.1,922.9594 733.19,899.6094 C746.35,880.5194 735.78,818.1394 741.19,795.6094 C758.74,722.5694 790.71,713.0994 806.19,639.6094 C810.68,618.2894 804.22,266.9694 814.19,247.6094 C829.86,217.1794 856.7203,197.6499 882.9103,183.5099" fill="none" id="datamanager-to-UC6" style="stroke:#000000;stroke-width:1;"/><polygon fill="#000000" points="888.19,180.6594,878.3702,181.4153,883.7903,183.0348,882.1708,188.4549,888.19,180.6594" style="stroke:#000000;stroke-width:1;"/></g><!--link slurm to UC15--><g class="link" data-entity-1="ent0004" data-entity-2="ent0025" data-link-type="dependency" data-source-line="65" id="lnk41"><path d="M675.65,793.1894 C720.84,757.9194 779.05,703.3194 806.19,639.6094 C817.35,613.4194 796.92,406.2194 814.19,383.6094 C824.64,369.9294 834.592,363.2572 851.012,358.0372" fill="none" id="slurm-to-UC15" style="stroke:#000000;stroke-width:1;"/><polygon fill="#000000" points="856.73,356.2194,846.9411,355.134,851.965,357.7342,849.3648,362.7581,856.73,356.2194" style="stroke:#000000;stroke-width:1;"/></g><!--link slurm to UC16--><g class="link" data-entity-1="ent0004" data-entity-2="ent0026" data-link-type="dependency" data-source-line="66" id="lnk42"><path d="M675.58,816.1294 C725.65,798.8094 790.71,772.7094 806.19,749.6094 C821.85,726.2394 800.6,521.2294 814.19,496.6094 C830.03,467.9294 856.1991,450.4922 882.1391,438.0622" fill="none" id="slurm-to-UC16" style="stroke:#000000;stroke-width:1;"/><polygon fill="#000000" points="887.55,435.4694,877.7052,435.7513,883.0409,437.63,881.1622,442.9658,887.55,435.4694" style="stroke:#000000;stroke-width:1;"/></g><!--link UC1 to UC15--><g class="link" data-entity-1="ent0007" data-entity-2="ent0025" data-link-type="dependency" data-source-line="69" id="lnk43"><path d="M672.65,366.0594 C692.28,372.0994 714.06,379.7294 733.19,388.6094 C737,390.3694 737.16,392.4494 741.19,393.6094 C768.96,401.5694 780.16,406.1194 806.19,393.6094 C811.32,391.1394 809.49,386.7994 814.19,383.6094 C829.88,372.9494 843.1795,367.1077 861.1995,361.8577" fill="none" id="UC1-to-UC15" style="stroke:#000000;stroke-width:1;stroke-dasharray:7,7;"/><polygon fill="#000000" points="866.96,360.1794,857.2004,358.8565,862.1596,361.5779,859.4381,366.5371,866.96,360.1794" style="stroke:#000000;stroke-width:1;"/><text fill="#000000" font-family="Verdana" font-size="13" lengthAdjust="spacing" textLength="63.0068" x="742.19" y="389.6763">&#171;include&#187;</text></g><!--link UC1 to UC13--><g class="link" data-entity-1="ent0007" data-entity-2="ent0022" data-link-type="dependency" data-source-line="70" id="lnk44"><path d="M689.22,361.5694 C705.66,367.2294 721.6,375.7594 733.19,388.6094 C744.76,401.4194 731.17,412.5494 741.19,426.6094 C773.08,471.3094 823.3487,498.9985 865.7587,516.6085" fill="none" id="UC1-to-UC13" style="stroke:#000000;stroke-width:1;stroke-dasharray:7,7;"/><polygon fill="#000000" points="871.3,518.9094,864.522,511.7638,866.6823,516.9919,861.4541,519.1522,871.3,518.9094" style="stroke:#000000;stroke-width:1;"/><text fill="#000000" font-family="Verdana" font-size="13" lengthAdjust="spacing" textLength="63.0068" x="742.19" y="422.6763">&#171;include&#187;</text></g><!--link UC5 to UC15--><g class="link" data-entity-1="ent0012" data-entity-2="ent0025" data-link-type="dependency" data-source-line="71" id="lnk45"><path d="M634.55,188.0594 C660.69,214.4694 706.26,264.1794 733.19,314.6094 C738.89,325.2694 731.62,333.2194 741.19,340.6094 C778.14,369.1294 826.5417,369.1144 867.1717,362.7744" fill="none" id="UC5-to-UC15" style="stroke:#000000;stroke-width:1;stroke-dasharray:7,7;"/><polygon fill="#000000" points="873.1,361.8494,863.5909,359.2848,868.1598,362.6203,864.8243,367.1891,873.1,361.8494" style="stroke:#000000;stroke-width:1;"/><text fill="#000000" font-family="Verdana" font-size="13" lengthAdjust="spacing" textLength="63.0068" x="742.19" y="336.6763">&#171;include&#187;</text></g><!--link UC5 to UC6--><g class="link" data-entity-1="ent0012" data-entity-2="ent0013" data-link-type="dependency" data-source-line="72" id="lnk46"><path d="M701.52,166.9394 C745.24,166.1094 792.0611,165.2148 835.7311,164.3748" fill="none" id="UC5-to-UC6" style="stroke:#000000;stroke-width:1;stroke-dasharray:7,7;"/><polygon fill="#000000" points="841.73,164.2594,832.6547,160.4332,836.7309,164.3555,832.8086,168.4317,841.73,164.2594" style="stroke:#000000;stroke-width:1;"/><text fill="#000000" font-family="Verdana" font-size="13" lengthAdjust="spacing" textLength="63.0068" x="742.19" y="161.1363">&#171;include&#187;</text></g><!--reverse link UC1 to UC17--><g class="link" data-entity-1="ent0007" data-entity-2="ent0027" data-link-type="dependency" data-source-line="75" id="lnk47"><path d="M674.913,332.8548 C697.163,326.5548 717.42,321.1694 741.19,315.6094 C785.5,305.2394 836.2,295.6294 873.66,288.9394" fill="none" id="UC1-backto-UC17" style="stroke:#000000;stroke-width:1;stroke-dasharray:7,7;"/><polygon fill="#000000" points="669.14,334.4894,678.8893,335.8861,673.9509,333.1272,676.7098,328.1888,669.14,334.4894" style="stroke:#000000;stroke-width:1;"/><text fill="#000000" font-family="Verdana" font-size="13" lengthAdjust="spacing" textLength="61.1851" x="743.19" y="298.4263">&#171;extend&#187;</text></g><!--reverse link UC5 to UC17--><g class="link" data-entity-1="ent0012" data-entity-2="ent0027" data-link-type="dependency" data-source-line="76" id="lnk48"><path d="M668.1768,187.5896 C730.8468,209.7496 833.61,246.0994 890.71,266.2894" fill="none" id="UC5-backto-UC17" style="stroke:#000000;stroke-width:1;stroke-dasharray:7,7;"/><polygon fill="#000000" points="662.52,185.5894,669.6717,192.3609,667.234,187.2562,672.3386,184.8185,662.52,185.5894" style="stroke:#000000;stroke-width:1;"/><text fill="#000000" font-family="Verdana" font-size="13" lengthAdjust="spacing" textLength="61.1851" x="743.19" y="210.2263">&#171;extend&#187;</text></g><!--reverse link UC3 to UC1--><g class="link" data-entity-1="ent0009" data-entity-2="ent0007" data-link-type="dependency" data-source-line="77" id="lnk49"><path d="M392.7493,353.9767 C436.7593,353.2967 481.93,352.6094 524.41,351.9594" fill="none" id="UC3-backto-UC1" style="stroke:#000000;stroke-width:1;stroke-dasharray:7,7;"/><polygon fill="#000000" points="386.75,354.0694,395.8107,357.9299,391.7494,353.9921,395.6871,349.9308,386.75,354.0694" style="stroke:#000000;stroke-width:1;"/><text fill="#000000" font-family="Verdana" font-size="13" lengthAdjust="spacing" textLength="61.1851" x="424.82" y="348.7263">&#171;extend&#187;</text></g><!--link UC8 to UC12--><g class="link" data-entity-1="ent0016" data-entity-2="ent0021" data-link-type="dependency" data-source-line="80" id="lnk50"><path d="M707.82,632.7394 C749.29,631.0194 791.9051,629.2579 832.9151,627.5579" fill="none" id="UC8-to-UC12" style="stroke:#000000;stroke-width:1;stroke-dasharray:7,7;"/><polygon fill="#000000" points="838.91,627.3094,829.7521,623.6856,833.9143,627.5165,830.0834,631.6787,838.91,627.3094" style="stroke:#000000;stroke-width:1;"/><text fill="#000000" font-family="Verdana" font-size="13" lengthAdjust="spacing" textLength="63.0068" x="742.19" y="625.0063">&#171;include&#187;</text></g><!--link UC9 to UC12--><g class="link" data-entity-1="ent0017" data-entity-2="ent0021" data-link-type="dependency" data-source-line="81" id="lnk51"><path d="M674.28,567.7494 C726.66,579.2594 796.9899,594.7212 852.2599,606.8712" fill="none" id="UC9-to-UC12" style="stroke:#000000;stroke-width:1;stroke-dasharray:7,7;"/><polygon fill="#000000" points="858.12,608.1594,850.1887,602.3203,853.2366,607.0859,848.4711,610.1338,858.12,608.1594" style="stroke:#000000;stroke-width:1;"/><text fill="#000000" font-family="Verdana" font-size="13" lengthAdjust="spacing" textLength="63.0068" x="742.19" y="578.9963">&#171;include&#187;</text></g><!--link UC10 to UC9--><g class="link" data-entity-1="ent0018" data-entity-2="ent0017" data-link-type="dependency" data-source-line="82" id="lnk52"><path d="M378.38,552.4494 C430.68,552.9294 489.0603,553.4744 537.0703,553.9144" fill="none" id="UC10-to-UC9" style="stroke:#000000;stroke-width:1;stroke-dasharray:7,7;"/><polygon fill="#000000" points="543.07,553.9694,534.107,549.8871,538.0702,553.9236,534.0337,557.8867,543.07,553.9694" style="stroke:#000000;stroke-width:1;"/><text fill="#000000" font-family="Verdana" font-size="13" lengthAdjust="spacing" textLength="63.0068" x="423.82" y="548.9963">&#171;include&#187;</text></g><!--link UC11 to UC8--><g class="link" data-entity-1="ent0019" data-entity-2="ent0016" data-link-type="dependency" data-source-line="83" id="lnk53"><path d="M393.03,633.2394 C433.27,633.8594 472.7207,634.4688 511.7907,635.0588" fill="none" id="UC11-to-UC8" style="stroke:#000000;stroke-width:1;stroke-dasharray:7,7;"/><polygon fill="#000000" points="517.79,635.1494,508.8514,631.0139,512.7906,635.0739,508.7306,639.013,517.79,635.1494" style="stroke:#000000;stroke-width:1;"/><text fill="#000000" font-family="Verdana" font-size="13" lengthAdjust="spacing" textLength="63.0068" x="423.82" y="629.8763">&#171;include&#187;</text></g><!--link UC2 to UC4--><g class="link" data-entity-1="ent0008" data-entity-2="ent0010" data-link-type="dependency" data-source-line="85" id="lnk54"><path d="M367.68,433.3594 C416.86,432.5994 473.3707,431.7414 522.9207,430.9814" fill="none" id="UC2-to-UC4" style="stroke:#000000;stroke-width:1;stroke-dasharray:7,7;"/><polygon fill="#000000" points="528.92,430.8894,519.8597,427.0279,523.9206,430.9661,519.9824,435.0269,528.92,430.8894" style="stroke:#000000;stroke-width:1;"/><text fill="#000000" font-family="Verdana" font-size="13" lengthAdjust="spacing" textLength="63.0068" x="423.82" y="427.7263">&#171;include&#187;</text></g><!--link UC7 to UC5--><g class="link" data-entity-1="ent0014" data-entity-2="ent0012" data-link-type="dependency" data-source-line="86" id="lnk55"><path d="M362.27,157.8694 C411.43,159.9794 469.4955,162.472 520.5055,164.662" fill="none" id="UC7-to-UC5" style="stroke:#000000;stroke-width:1;stroke-dasharray:7,7;"/><polygon fill="#000000" points="526.5,164.9194,517.6799,160.537,521.5046,164.7049,517.3367,168.5297,526.5,164.9194" style="stroke:#000000;stroke-width:1;"/><text fill="#000000" font-family="Verdana" font-size="13" lengthAdjust="spacing" textLength="63.0068" x="423.82" y="156.8363">&#171;include&#187;</text></g><?plantuml-src ZLLHRzem47xFhxYnXsqFi5AWXQcgXA3Tc8ZKaRRJ95vCSWIlYHFPJbSsxR_ldCGKYBiD99JSVNVtdU_pyKflC4N84yQ5fnwuo9baAQnO-13Bh13H94io2Q-lhypNypJN2S8aIrTSO4GFGc2e-IFNMsZ3dI8VevyfPp7byRm4rnfq1fB76mqHbmQT2SzZeQQyhGKgP3BSe6m1Ko1thnOmPPg1pmIBQqX4XhHwjvXWVhVm8Q2mg4Xgc4eAcSB5XTegZUdbfUUPqap4HB_bvX-Kq1RyyZoWJqvdG5MWjVONCxYHMOXASH4R0DIVGc5e-cqj2W7NHP901UOv9bIWP78twRhnCn5HuQXW2GGQynfysWJNjU7gYIjD39R2LBcHcCCK9Nzar02gEhxNZASkrpmk9Ew8BSNRRsD__gwEwPSnlu_wddxz_xPBx67N0mUHX56kzHPcgQbmkyrtjC_SoM-bcJ5fATziQ-Iva-nOi6Ihk7BIf7ddXKRuQFA0Zrhoq1OUDk4VKQ1aXFyoMOfxhcX2_2SpkhL1exy4VRhrvx30F9FQpl-a2H_7iSJOuFqYqRmT5AllfCIbe1j11bkestMFvlbMf2Yqi-bvngBt0NkaOH_8t6VK_fFDxv3R53M1uLeY1eLSepIaGcfUooBSFuMkGsltT5QHQMkiQTXbQPgAHX7Q-NNTQlkShVxL4PrHoZLKrvtmDg53QNuckDaD9ckWcIvsd1r2cyfjsuZDpwBTbRKg8vflu7bBaLTb8Q_4u3slAsYtBykRtZ2TDaszfgdVD0sQfc7JD7AGE77OkgQF_MLwsCdULhKHfovZpsNiEundfbwrKGyhLOkvZXmSlfP1Cn4cHOJqNv1K8HkUAu-yqEbKGV215ZklOBJPzrozXclmSfHrdHrvYCFL4oasSb2uw7HATPGXMABgN2zvUjPpw33Jm9oUwMPmLB12_GDH6562KQKfDxJSJnlSHo-xkYUrRzHqsOCQ7hTCEgrT_KRKUUqvEi4_?></g></svg>